  0
SECTION
  2
HEADER
  9
$ACADVER
  1
AC1021
  9
$ACADMAINTVER
 70
    25
  9
$DWGCODEPAGE
  3
ANSI_936
  9
$INSBASE
 10
0.0
 20
0.0
 30
0.0
  9
$EXTMIN
 10
0.0
 20
0.0
 30
0.0
  9
$EXTMAX
 10
594.0
 20
420.0
 30
0.0
  9
$LIMMIN
 10
0.0
 20
0.0
  9
$LIMMAX
 10
594.0
 20
420.0
  9
$ORTHOMODE
 70
     0
  9
$REGENMODE
 70
     1
  9
$FILLMODE
 70
     1
  9
$QTEXTMODE
 70
     0
  9
$MIRRTEXT
 70
     1
  9
$LTSCALE
 40
1.0
  9
$ATTMODE
 70
     1
  9
$TEXTSIZE
 40
3.5
  9
$TRACEWID
 40
1.0
  9
$TEXTSTYLE
  7
Standard
  9
$CLAYER
  8
0
  9
$CELTYPE
  6
ByLayer
  9
$CECOLOR
 62
   256
  9
$CELTSCALE
 40
1.0
  9
$DISPSILH
 70
     0
  9
$DIMSCALE
 40
1.0
  9
$DIMASZ
 40
4.08
  9
$DIMEXO
 40
0.0
  9
$DIMDLI
 40
3.75
  9
$DIMRND
 40
0.0
  9
$DIMDLE
 40
0.0
  9
$DIMEXE
 40
2.0
  9
$DIMTP
 40
0.0
  9
$DIMTM
 40
0.0
  9
$DIMTXT
 40
3.5
  9
$DIMCEN
 40
2.5
  9
$DIMTSZ
 40
0.0
  9
$DIMTOL
 70
     0
  9
$DIMLIM
 70
     0
  9
$DIMTIH
 70
     1
  9
$DIMTOH
 70
     1
  9
$DIMSE1
 70
     0
  9
$DIMSE2
 70
     0
  9
$DIMTAD
 70
     1
  9
$DIMZIN
 70
     1
  9
$DIMBLK
  1

  9
$DIMASO
 70
     1
  9
$DIMSHO
 70
     1
  9
$DIMPOST
  1

  9
$DIMAPOST
  1

  9
$DIMALT
 70
     0
  9
$DIMALTD
 70
     3
  9
$DIMALTF
 40
0.0393700787
  9
$DIMLFAC
 40
1.0
  9
$DIMTOFL
 70
     1
  9
$DIMTVP
 40
0.0
  9
$DIMTIX
 70
     0
  9
$DIMSOXD
 70
     0
  9
$DIMSAH
 70
     0
  9
$DIMBLK1
  1

  9
$DIMBLK2
  1

  9
$DIMSTYLE
  2
ISO-25
  9
$DIMCLRD
 70
     0
  9
$DIMCLRE
 70
     0
  9
$DIMCLRT
 70
     0
  9
$DIMTFAC
 40
1.0
  9
$DIMGAP
 40
1.524
  9
$DIMJUST
 70
     0
  9
$DIMSD1
 70
     0
  9
$DIMSD2
 70
     0
  9
$DIMTOLJ
 70
     0
  9
$DIMTZIN
 70
     1
  9
$DIMALTZ
 70
     0
  9
$DIMALTTZ
 70
     0
  9
$DIMUPT
 70
     0
  9
$DIMDEC
 70
     0
  9
$DIMTDEC
 70
     2
  9
$DIMALTU
 70
     2
  9
$DIMALTTD
 70
     3
  9
$DIMTXSTY
  7
Standard
  9
$DIMAUNIT
 70
     0
  9
$DIMADEC
 70
     0
  9
$DIMALTRND
 40
0.0
  9
$DIMAZIN
 70
     0
  9
$DIMDSEP
 70
    44
  9
$DIMATFIT
 70
     3
  9
$DIMFRAC
 70
     0
  9
$DIMLDRBLK
  1

  9
$DIMLUNIT
 70
     2
  9
$DIMLWD
 70
    -2
  9
$DIMLWE
 70
    -2
  9
$DIMTMOVE
 70
     0
  9
$DIMFXL
 40
1.0
  9
$DIMFXLON
 70
     0
  9
$DIMJOGANG
 40
0.7853981634
  9
$DIMTFILL
 70
     0
  9
$DIMTFILLCLR
 70
     0
  9
$DIMARCSYM
 70
     0
  9
$DIMLTYPE
  6

  9
$DIMLTEX1
  6

  9
$DIMLTEX2
  6

  9
$LUNITS
 70
     2
  9
$LUPREC
 70
     4
  9
$SKETCHINC
 40
1.0
  9
$FILLETRAD
 40
10.0
  9
$AUNITS
 70
     0
  9
$AUPREC
 70
     0
  9
$MENU
  1
.
  9
$ELEVATION
 40
0.0
  9
$PELEVATION
 40
0.0
  9
$THICKNESS
 40
0.0
  9
$LIMCHECK
 70
     0
  9
$CHAMFERA
 40
0.0
  9
$CHAMFERB
 40
0.0
  9
$CHAMFERC
 40
0.0
  9
$CHAMFERD
 40
0.0
  9
$SKPOLY
 70
     0
  9
$TDCREATE
 40
2459004.663480405
  9
$TDUCREATE
 40
2459004.330147072
  9
$TDUPDATE
 40
2459004.663481146
  9
$TDUUPDATE
 40
2459004.330147813
  9
$TDINDWG
 40
0.0000000116
  9
$TDUSRTIMER
 40
0.0000000116
  9
$USRTIMER
 70
     1
  9
$ANGBASE
 50
0.0
  9
$ANGDIR
 70
     0
  9
$PDMODE
 70
     0
  9
$PDSIZE
 40
-1.0
  9
$PLINEWID
 40
0.0
  9
$SPLFRAME
 70
     0
  9
$SPLINETYPE
 70
     6
  9
$SPLINESEGS
 70
     8
  9
$HANDSEED
  5
334
  9
$SURFTAB1
 70
     6
  9
$SURFTAB2
 70
     6
  9
$SURFTYPE
 70
     6
  9
$SURFU
 70
     6
  9
$SURFV
 70
     6
  9
$UCSBASE
  2

  9
$UCSNAME
  2

  9
$UCSORG
 10
0.0
 20
0.0
 30
0.0
  9
$UCSXDIR
 10
1.0
 20
0.0
 30
0.0
  9
$UCSYDIR
 10
0.0
 20
1.0
 30
0.0
  9
$UCSORTHOREF
  2

  9
$UCSORTHOVIEW
 70
     0
  9
$UCSORGTOP
 10
0.0
 20
0.0
 30
0.0
  9
$UCSORGBOTTOM
 10
0.0
 20
0.0
 30
0.0
  9
$UCSORGLEFT
 10
0.0
 20
0.0
 30
0.0
  9
$UCSORGRIGHT
 10
0.0
 20
0.0
 30
0.0
  9
$UCSORGFRONT
 10
0.0
 20
0.0
 30
0.0
  9
$UCSORGBACK
 10
0.0
 20
0.0
 30
0.0
  9
$PUCSBASE
  2

  9
$PUCSNAME
  2

  9
$PUCSORG
 10
0.0
 20
0.0
 30
0.0
  9
$PUCSXDIR
 10
1.0
 20
0.0
 30
0.0
  9
$PUCSYDIR
 10
0.0
 20
1.0
 30
0.0
  9
$PUCSORTHOREF
  2

  9
$PUCSORTHOVIEW
 70
     0
  9
$PUCSORGTOP
 10
0.0
 20
0.0
 30
0.0
  9
$PUCSORGBOTTOM
 10
0.0
 20
0.0
 30
0.0
  9
$PUCSORGLEFT
 10
0.0
 20
0.0
 30
0.0
  9
$PUCSORGRIGHT
 10
0.0
 20
0.0
 30
0.0
  9
$PUCSORGFRONT
 10
0.0
 20
0.0
 30
0.0
  9
$PUCSORGBACK
 10
0.0
 20
0.0
 30
0.0
  9
$USERI1
 70
     0
  9
$USERI2
 70
     0
  9
$USERI3
 70
     0
  9
$USERI4
 70
     0
  9
$USERI5
 70
     0
  9
$USERR1
 40
0.0
  9
$USERR2
 40
0.0
  9
$USERR3
 40
0.0
  9
$USERR4
 40
0.0
  9
$USERR5
 40
0.0
  9
$WORLDVIEW
 70
     1
  9
$SHADEDGE
 70
     3
  9
$SHADEDIF
 70
    70
  9
$TILEMODE
 70
     1
  9
$MAXACTVP
 70
    64
  9
$PINSBASE
 10
0.0
 20
0.0
 30
0.0
  9
$PLIMCHECK
 70
     0
  9
$PEXTMIN
 10
1.0000000000E+20
 20
1.0000000000E+20
 30
1.0000000000E+20
  9
$PEXTMAX
 10
-1.0000000000E+20
 20
-1.0000000000E+20
 30
-1.0000000000E+20
  9
$PLIMMIN
 10
0.0
 20
0.0
  9
$PLIMMAX
 10
420.0
 20
297.0
  9
$UNITMODE
 70
     0
  9
$VISRETAIN
 70
     1
  9
$PLINEGEN
 70
     0
  9
$PSLTSCALE
 70
     1
  9
$TREEDEPTH
 70
  3020
  9
$CMLSTYLE
  2
Standard
  9
$CMLJUST
 70
     0
  9
$CMLSCALE
 40
20.0
  9
$PROXYGRAPHICS
 70
     1
  9
$MEASUREMENT
 70
     1
  9
$CELWEIGHT
370
    -1
  9
$ENDCAPS
280
     0
  9
$JOINSTYLE
280
     0
  9
$LWDISPLAY
290
     1
  9
$INSUNITS
 70
     4
  9
$HYPERLINKBASE
  1

  9
$STYLESHEET
  1

  9
$XEDIT
290
     1
  9
$CEPSNTYPE
380
     0
  9
$PSTYLEMODE
290
     1
  9
$FINGERPRINTGUID
  2
{173509c5-7228-4035-96c9-c55782fa627d}
  9
$VERSIONGUID
  2
{FAEB1C32-E019-11D5-929B-00C0DF256EC4}
  9
$EXTNAMES
290
     1
  9
$PSVPSCALE
 40
0.0
  9
$OLESTARTUP
290
     0
  9
$SORTENTS
280
   127
  9
$INDEXCTL
280
     0
  9
$HIDETEXT
280
     1
  9
$XCLIPFRAME
290
     0
  9
$HALOGAP
280
     0
  9
$OBSCOLOR
 70
   257
  9
$OBSLTYPE
280
     0
  9
$INTERSECTIONDISPLAY
280
     0
  9
$INTERSECTIONCOLOR
 70
   257
  9
$DIMASSOC
280
     2
  9
$PROJECTNAME
  1

  9
$CAMERADISPLAY
290
     0
  9
$LENSLENGTH
 40
50.0
  9
$CAMERAHEIGHT
 40
0.0
  9
$STEPSPERSEC
 40
2.0
  9
$STEPSIZE
 40
6.0
  9
$3DDWFPREC
 40
2.0
  9
$PSOLWIDTH
 40
5.0
  9
$PSOLHEIGHT
 40
80.0
  9
$LOFTANG1
 40
1.5707963268
  9
$LOFTANG2
 40
1.5707963268
  9
$LOFTMAG1
 40
0.0
  9
$LOFTMAG2
 40
0.0
  9
$LOFTPARAM
 70
     7
  9
$LOFTNORMALS
280
     1
  9
$LATITUDE
 40
37.795
  9
$LONGITUDE
 40
-122.394
  9
$NORTHDIRECTION
 40
0.0
  9
$TIMEZONE
 70
 -8000
  9
$LIGHTGLYPHDISPLAY
280
     1
  9
$TILEMODELIGHTSYNCH
280
     1
  9
$CMATERIAL
347
44
  9
$SOLIDHIST
280
     0
  9
$SHOWHIST
280
     1
  9
$DWFFRAME
280
     2
  9
$DGNFRAME
280
     2
  9
$REALWORLDSCALE
290
     1
  9
$INTERFERECOLOR
 62
   256
  9
$CSHADOW
280
     0
  9
$SHADOWPLANELOCATION
 40
0.0
  0
ENDSEC
  0
SECTION
  2
CLASSES
  0
CLASS
  1
ACDBDICTIONARYWDFLT
  2
AcDbDictionaryWithDefault
  3
ObjectDBX Classes
 90
        0
 91
        3
280
     0
281
     0
  0
CLASS
  1
VISUALSTYLE
  2
AcDbVisualStyle
  3
ObjectDBX Classes
 90
     4095
 91
        3
280
     0
281
     0
  0
CLASS
  1
MATERIAL
  2
AcDbMaterial
  3
ObjectDBX Classes
 90
     1153
 91
        3
280
     0
281
     0
  0
CLASS
  1
SCALE
  2
AcDbScale
  3
ObjectDBX Classes
 90
     1153
 91
        3
280
     0
281
     0
  0
CLASS
  1
TABLESTYLE
  2
AcDbTableStyle
  3
ObjectDBX Classes
 90
     4095
 91
        3
280
     0
281
     0
  0
CLASS
  1
MLEADERSTYLE
  2
AcDbMLeaderStyle
  3
ACDB_MLEADERSTYLE_CLASS
 90
     4095
 91
        3
280
     0
281
     0
  0
CLASS
  1
SUN
  2
AcDbSun
  3
SCENEOE
 90
     1153
 91
        3
280
     0
281
     0
  0
CLASS
  1
DICTIONARYVAR
  2
AcDbDictionaryVar
  3
ObjectDBX Classes
 90
        0
 91
        3
280
     0
281
     0
  0
CLASS
  1
CELLSTYLEMAP
  2
AcDbCellStyleMap
  3
ObjectDBX Classes
 90
     1152
 91
        3
280
     0
281
     0
  0
ENDSEC
  0
SECTION
  2
TABLES
  0
TABLE
  2
VPORT
  5
8
330
0
100
AcDbSymbolTable
 70
     1
  0
VPORT
  5
29
330
8
100
AcDbSymbolTableRecord
100
AcDbViewportTableRecord
  2
*Active
 70
     0
 10
0.0
 20
0.0
 11
1.0
 21
1.0
 12
297.0
 22
210.0
 13
0.0
 23
0.0
 14
10.0
 24
10.0
 15
10.0
 25
10.0
 16
0.0
 26
0.0
 36
1.0
 17
0.0
 27
0.0
 37
0.0
 40
420.0
 41
1.4142857143
 42
50.0
 43
0.0
 44
0.0
 50
0.0
 51
0.0
 71
     0
 72
  2000
 73
     1
 74
     3
 75
     0
 76
     0
 77
     0
 78
     0
281
     0
 65
     1
110
0.0
120
0.0
130
0.0
111
1.0
121
0.0
131
0.0
112
0.0
122
1.0
132
0.0
 79
     0
146
0.0
348
2F
 60
     3
 61
     5
292
     1
282
     1
141
0.0
142
0.0
 63
   250
361
6D
  0
ENDTAB
  0
TABLE
  2
LTYPE
  5
5
330
0
100
AcDbSymbolTable
 70
     6
  0
LTYPE
  5
14
330
5
100
AcDbSymbolTableRecord
100
AcDbLinetypeTableRecord
  2
ByBlock
 70
     0
  3

 72
    65
 73
     0
 40
0.0
  0
LTYPE
  5
15
330
5
100
AcDbSymbolTableRecord
100
AcDbLinetypeTableRecord
  2
ByLayer
 70
     0
  3

 72
    65
 73
     0
 40
0.0
  0
LTYPE
  5
16
330
5
100
AcDbSymbolTableRecord
100
AcDbLinetypeTableRecord
  2
Continuous
 70
     0
  3
Solid line
 72
    65
 73
     0
 40
0.0
  0
LTYPE
  5
6E
330
5
100
AcDbSymbolTableRecord
100
AcDbLinetypeTableRecord
  2
HIDDEN
 70
     0
  3
Hidden __ __ __ __ __ __ __ __ __ __ __ __ __ __
 72
    65
 73
     2
 40
1.905
 49
1.27
 74
     0
 49
-0.635
 74
     0
  0
LTYPE
  5
6F
330
5
100
AcDbSymbolTableRecord
100
AcDbLinetypeTableRecord
  2
PHANTOM
 70
     0
  3
Phantom ______  __  __  ______  __  __  ______
 72
    65
 73
     6
 40
12.7
 49
6.35
 74
     0
 49
-1.27
 74
     0
 49
1.27
 74
     0
 49
-1.27
 74
     0
 49
1.27
 74
     0
 49
-1.27
 74
     0
  0
LTYPE
  5
70
330
5
100
AcDbSymbolTableRecord
100
AcDbLinetypeTableRecord
  2
CENTER
 70
     0
  3
Center ____ _ ____ _ ____ _ ____ _ ____ _ ____
 72
    65
 73
     4
 40
10.16
 49
6.35
 74
     0
 49
-1.27
 74
     0
 49
1.27
 74
     0
 49
-1.27
 74
     0
  0
LTYPE
  5
71
330
5
100
AcDbSymbolTableRecord
100
AcDbLinetypeTableRecord
  2
CENTERX2
 70
     0
  3
Center (2x) ________  __  ________  __  _____
 72
    65
 73
     4
 40
20.32
 49
12.7
 74
     0
 49
-2.54
 74
     0
 49
2.54
 74
     0
 49
-2.54
 74
     0
  0
LTYPE
  5
72
330
5
100
AcDbSymbolTableRecord
100
AcDbLinetypeTableRecord
  2
DOT2
 70
     0
  3
Dot (.5x) ........................................
 72
    65
 73
     2
 40
0.635
 49
0.0
 74
     0
 49
-0.635
 74
     0
  0
ENDTAB
  0
TABLE
  2
LAYER
  5
2
330
0
100
AcDbSymbolTable
 70
     1
  0
LAYER
  5
10
330
2
100
AcDbSymbolTableRecord
100
AcDbLayerTableRecord
  2
0
 70
     0
 62
     7
  6
Continuous
370
    -3
390
F
347
46
  0
ENDTAB
  0
TABLE
  2
STYLE
  5
3
330
0
100
AcDbSymbolTable
 70
     1
  0
STYLE
  5
11
330
3
100
AcDbSymbolTableRecord
100
AcDbTextStyleTableRecord
  2
Standard
 70
     0
 40
0.0
 41
1.0
 50
0.0
 71
     0
 42
3.5
  3
txt
  4

  0
ENDTAB
  0
TABLE
  2
VIEW
  5
6
330
0
100
AcDbSymbolTable
 70
     0
  0
ENDTAB
  0
TABLE
  2
UCS
  5
7
330
0
100
AcDbSymbolTable
 70
     0
  0
ENDTAB
  0
TABLE
  2
APPID
  5
9
330
0
100
AcDbSymbolTable
 70
     2
  0
APPID
  5
12
330
9
100
AcDbSymbolTableRecord
100
AcDbRegAppTableRecord
  2
ACAD
 70
     0
  0
APPID
  5
32C
330
9
100
AcDbSymbolTableRecord
100
AcDbRegAppTableRecord
  2
ACAD_MLEADERVER
 70
     0
  0
ENDTAB
  0
TABLE
  2
DIMSTYLE
  5
A
330
0
100
AcDbSymbolTable
 70
     1
100
AcDbDimStyleTable
  0
DIMSTYLE
105
27
330
A
100
AcDbSymbolTableRecord
100
AcDbDimStyleTableRecord
  2
ISO-25
 70
     0
 41
2.5
 42
0.625
 43
3.75
 44
1.25
 73
     0
 74
     0
 77
     1
 78
     8
140
2.5
141
2.5
143
0.0393700787
147
0.625
171
     3
172
     1
178
     0
271
     2
272
     2
274
     3
278
    44
283
     0
284
     8
340
11
  0
ENDTAB
  0
TABLE
  2
BLOCK_RECORD
  5
1
330
0
100
AcDbSymbolTable
 70
     1
  0
BLOCK_RECORD
  5
1F
330
1
100
AcDbSymbolTableRecord
100
AcDbBlockTableRecord
  2
*Model_Space
340
22
 70
     0
280
     1
281
     0
  0
BLOCK_RECORD
  5
1B
330
1
100
AcDbSymbolTableRecord
100
AcDbBlockTableRecord
  2
*Paper_Space
340
1E
 70
     0
280
     1
281
     0
  0
BLOCK_RECORD
  5
23
330
1
100
AcDbSymbolTableRecord
100
AcDbBlockTableRecord
  2
*Paper_Space0
340
26
 70
     0
280
     1
281
     0
  0
ENDTAB
  0
ENDSEC
  0
SECTION
  2
BLOCKS
  0
BLOCK
  5
20
330
1F
100
AcDbEntity
  8
0
100
AcDbBlockBegin
  2
*Model_Space
 70
     0
 10
0.0
 20
0.0
 30
0.0
  3
*Model_Space
  1

  0
ENDBLK
  5
21
330
1F
100
AcDbEntity
  8
0
100
AcDbBlockEnd
  0
BLOCK
  5
1C
330
1B
100
AcDbEntity
 67
     1
  8
0
100
AcDbBlockBegin
  2
*Paper_Space
 70
     0
 10
0.0
 20
0.0
 30
0.0
  3
*Paper_Space
  1

  0
ENDBLK
  5
1D
330
1B
100
AcDbEntity
 67
     1
  8
0
100
AcDbBlockEnd
  0
BLOCK
  5
24
330
23
100
AcDbEntity
  8
0
100
AcDbBlockBegin
  2
*Paper_Space0
 70
     0
 10
0.0
 20
0.0
 30
0.0
  3
*Paper_Space0
  1

  0
ENDBLK
  5
25
330
23
100
AcDbEntity
  8
0
100
AcDbBlockEnd
  0
ENDSEC
  0
SECTION
  2
ENTITIES
  0
LINE
  5
73
330
1F
100
AcDbEntity
  8
0
  6
Continuous
 62
     7
420
 16777215
370
    18
100
AcDbLine
 10
97.9414866475
 20
26.9258524978
 30
0.0
 11
87.9414866475
 21
26.9258524978
 31
0.0
  0
LINE
  5
74
330
1F
100
AcDbEntity
  8
0
  6
Continuous
 62
     7
420
 16777215
370
    18
100
AcDbLine
 10
515.1694946736
 20
40.2188908147
 30
0.0
 11
508.4414918736
 21
40.2188908147
 31
0.0
  0
LINE
  5
75
330
1F
100
AcDbEntity
  8
0
  6
Continuous
 62
     7
420
 16777215
370
    18
100
AcDbLine
 10
468.5014916935
 20
178.9588914647
 30
0.0
 11
482.5014916335
 21
178.9588914647
 31
0.0
  0
LINE
  5
76
330
1F
100
AcDbEntity
  8
0
  6
Continuous
 62
     7
420
 16777215
370
    18
100
AcDbLine
 10
515.1694946736
 20
40.2188908147
 30
0.0
 11
515.1694946736
 21
94.5788913147
 31
0.0
  0
LINE
  5
77
330
1F
100
AcDbEntity
  8
0
  6
Continuous
 62
     7
420
 16777215
370
    18
100
AcDbLine
 10
522.1694895445
 20
46.723641754
 30
0.0
 11
522.1694895445
 21
61.723641754
 31
0.0
  0
LINE
  5
78
330
1F
100
AcDbEntity
  8
0
  6
Continuous
 62
     7
420
 16777215
370
    18
100
AcDbLine
 10
515.1694946736
 20
94.5788913147
 30
0.0
 11
508.4414918736
 21
94.5788913147
 31
0.0
  0
LINE
  5
79
330
1F
100
AcDbEntity
  8
0
  6
Continuous
 62
     7
420
 16777215
370
    18
100
AcDbLine
 10
468.5014916935
 20
178.9588914647
 30
0.0
 11
468.5014916935
 21
172.2288922247
 31
0.0
  0
LINE
  5
7A
330
1F
100
AcDbEntity
  8
0
  6
Continuous
 62
     7
420
 16777215
370
    18
100
AcDbLine
 10
468.5014916935
 20
172.2288922247
 30
0.0
 11
482.5014916335
 21
172.2288922247
 31
0.0
  0
LINE
  5
7B
330
1F
100
AcDbEntity
  8
0
  6
Continuous
 62
     7
420
 16777215
370
    18
100
AcDbLine
 10
482.5014916335
 20
178.9588914647
 30
0.0
 11
482.5014916335
 21
172.2288922247
 31
0.0
  0
LINE
  5
7C
330
1F
100
AcDbEntity
  8
0
  6
Continuous
 62
     7
420
 16777215
370
    18
100
AcDbLine
 10
508.4414918736
 20
40.2188908147
 30
0.0
 11
508.4414918736
 21
94.5788913147
 31
0.0
  0
LINE
  5
7D
330
1F
100
AcDbEntity
  8
0
  6
Continuous
 62
     7
420
 16777215
370
    18
100
AcDbLine
 10
439.375489889
 20
185.9598776624
 30
0.0
 11
457.375489889
 21
185.9598776624
 31
0.0
  0
LINE
  5
7E
330
1F
100
AcDbEntity
  8
0
  6
Continuous
 62
     7
420
 16777215
370
    18
100
AcDbLine
 10
458.0114936235
 20
157.0288908747
 30
0.0
 11
496.5114928235
 21
157.0288908747
 31
0.0
  0
LINE
  5
7F
330
1F
100
AcDbEntity
  8
0
  6
Continuous
 62
     7
420
 16777215
370
    18
100
AcDbLine
 10
458.0114936235
 20
157.0288908747
 30
0.0
 11
458.0114936235
 21
58.3488901147
 31
0.0
  0
LINE
  5
80
330
1F
100
AcDbEntity
  8
0
  6
Continuous
 62
     7
420
 16777215
370
    18
100
AcDbLine
 10
458.0114936235
 20
58.3488901147
 30
0.0
 11
496.5114928235
 21
58.3488901147
 31
0.0
  0
LINE
  5
81
330
1F
100
AcDbEntity
  8
0
  6
Continuous
 62
     7
420
 16777215
370
    18
100
AcDbLine
 10
496.5114928235
 20
157.0288908747
 30
0.0
 11
496.5114928235
 21
58.3488901147
 31
0.0
  0
LINE
  5
82
330
1F
100
AcDbEntity
  8
0
  6
Continuous
 62
     7
420
 16777215
370
    18
100
AcDbLine
 10
495.8658172035
 20
58.3428906347
 30
0.0
 11
496.5054933435
 21
58.3428906347
 31
0.0
  0
LINE
  5
83
330
1F
100
AcDbEntity
  8
0
  6
Continuous
 62
     7
420
 16777215
370
    18
100
AcDbLine
 10
496.5114928235
 20
58.3488901147
 30
0.0
 11
496.5114928235
 21
58.3428906347
 31
0.0
  0
LINE
  5
84
330
1F
100
AcDbEntity
  8
0
  6
Continuous
 62
     7
420
 16777215
370
    18
100
AcDbLine
 10
496.5114928235
 20
58.3428906347
 30
0.0
 11
496.5054933435
 21
58.3428906347
 31
0.0
  0
LINE
  5
85
330
1F
100
AcDbEntity
  8
0
  6
Continuous
 62
     7
420
 16777215
370
    18
100
AcDbLine
 10
-105.6236009539
 20
469.1884277877
 30
0.0
 11
-105.6236009539
 21
467.1884277877
 31
0.0
  0
LINE
  5
86
330
1F
100
AcDbEntity
  8
0
  6
Continuous
 62
     7
420
 16777215
370
    18
100
AcDbLine
 10
723.434359962
 20
495.8061741158
 30
0.0
 11
723.434359962
 21
497.8061741158
 31
0.0
  0
LINE
  5
87
330
1F
100
AcDbEntity
  8
0
  6
Continuous
 62
     7
420
 16777215
370
    18
100
AcDbLine
 10
-105.6236009539
 20
467.1884277877
 30
0.0
 11
298.8104876116
 21
467.1884277877
 31
0.0
  0
LINE
  5
88
330
1F
100
AcDbEntity
  8
0
  6
Continuous
 62
     7
420
 16777215
370
    18
100
AcDbLine
 10
298.8104876116
 20
469.1884277877
 30
0.0
 11
298.8104876116
 21
494.9975553851
 31
0.0
  0
LINE
  5
89
330
1F
100
AcDbEntity
  8
0
  6
Continuous
 62
     7
420
 16777215
370
    18
100
AcDbLine
 10
-105.6236009539
 20
494.9975553851
 30
0.0
 11
-105.6236009539
 21
519.4372929722
 31
0.0
  0
LINE
  5
8A
330
1F
100
AcDbEntity
  8
0
  6
Continuous
 62
     7
420
 16777215
370
    18
100
AcDbLine
 10
298.8104876116
 20
467.1884277877
 30
0.0
 11
298.8104876116
 21
469.1884277877
 31
0.0
  0
LINE
  5
8B
330
1F
100
AcDbEntity
  8
0
  6
Continuous
 62
     7
420
 16777215
370
    18
100
AcDbLine
 10
723.434359962
 20
497.8061741158
 30
0.0
 11
309.0002694199
 21
497.8061741158
 31
0.0
  0
LINE
  5
8C
330
1F
100
AcDbEntity
  8
0
  6
Continuous
 62
     7
420
 16777215
370
    18
100
AcDbLine
 10
309.0002694199
 20
497.8061741158
 30
0.0
 11
309.0002694199
 21
495.1483758537
 31
0.0
  0
LINE
  5
8D
330
1F
100
AcDbEntity
  8
0
  6
Continuous
 62
     7
420
 16777215
370
    18
100
AcDbLine
 10
-105.6236009539
 20
519.4372929722
 30
0.0
 11
298.8104876116
 21
519.4372929722
 31
0.0
  0
LINE
  5
8E
330
1F
100
AcDbEntity
  8
0
  6
Continuous
 62
     7
420
 16777215
370
    18
100
AcDbLine
 10
298.8104876116
 20
519.4372929722
 30
0.0
 11
298.8104876116
 21
494.9975553851
 31
0.0
  0
LINE
  5
8F
330
1F
100
AcDbEntity
  8
0
  6
Continuous
 62
     7
420
 16777215
370
    18
100
AcDbLine
 10
309.0002694199
 20
481.9477136836
 30
0.0
 11
309.0002694199
 21
466.6924365448
 31
0.0
  0
LINE
  5
90
330
1F
100
AcDbEntity
  8
0
  6
Continuous
 62
     7
420
 16777215
370
    18
100
AcDbLine
 10
309.0002694199
 20
466.6924365448
 30
0.0
 11
723.434359962
 21
466.6924365448
 31
0.0
  0
LINE
  5
91
330
1F
100
AcDbEntity
  8
0
  6
Continuous
 62
     7
420
 16777215
370
    18
100
AcDbLine
 10
-105.6236009539
 20
469.1884277877
 30
0.0
 11
-105.6236009539
 21
494.9975553851
 31
0.0
  0
LINE
  5
92
330
1F
100
AcDbEntity
  8
0
  6
Continuous
 62
     7
420
 16777215
370
    18
100
AcDbLine
 10
723.434359962
 20
495.8061741158
 30
0.0
 11
723.434359962
 21
481.9477136836
 31
0.0
  0
LINE
  5
93
330
1F
100
AcDbEntity
  8
0
  6
Continuous
 62
     7
420
 16777215
370
    18
100
AcDbLine
 10
723.434359962
 20
466.6924365448
 30
0.0
 11
723.434359962
 21
481.9477136836
 31
0.0
  0
LINE
  5
94
330
1F
100
AcDbEntity
  8
0
  6
Continuous
 62
     7
420
 16777215
370
    18
100
AcDbLine
 10
309.0002694199
 20
495.8061741158
 30
0.0
 11
309.0002694199
 21
481.9477136836
 31
0.0
  0
LINE
  5
95
330
1F
100
AcDbEntity
  8
0
  6
Continuous
 62
     7
420
 16777215
370
    18
100
AcDbLine
 10
723.6241397937
 20
569.3175912578
 30
0.0
 11
723.6241397937
 21
571.3175912578
 31
0.0
  0
LINE
  5
96
330
1F
100
AcDbEntity
  8
0
  6
Continuous
 62
     7
420
 16777215
370
    18
100
AcDbLine
 10
-105.4338211222
 20
542.6998449297
 30
0.0
 11
-105.4338211222
 21
540.6998449297
 31
0.0
  0
LINE
  5
97
330
1F
100
AcDbEntity
  8
0
  6
Continuous
 62
     7
420
 16777215
370
    18
100
AcDbLine
 10
723.6241397937
 20
571.3175912578
 30
0.0
 11
319.1900512283
 21
571.3175912578
 31
0.0
  0
LINE
  5
98
330
1F
100
AcDbEntity
  8
0
  6
Continuous
 62
     7
420
 16777215
370
    18
100
AcDbLine
 10
319.1900512283
 20
569.3175912578
 30
0.0
 11
319.1900512283
 21
543.5084636604
 31
0.0
  0
LINE
  5
99
330
1F
100
AcDbEntity
  8
0
  6
Continuous
 62
     7
420
 16777215
370
    18
100
AcDbLine
 10
723.6241397937
 20
543.5084636604
 30
0.0
 11
723.6241397937
 21
519.0687260732
 31
0.0
  0
LINE
  5
9A
330
1F
100
AcDbEntity
  8
0
  6
Continuous
 62
     7
420
 16777215
370
    18
100
AcDbLine
 10
319.1900512283
 20
571.3175912578
 30
0.0
 11
319.1900512283
 21
569.3175912578
 31
0.0
  0
LINE
  5
9B
330
1F
100
AcDbEntity
  8
0
  6
Continuous
 62
     7
420
 16777215
370
    18
100
AcDbLine
 10
-105.4338211222
 20
540.6998449297
 30
0.0
 11
309.0002694199
 21
540.6998449297
 31
0.0
  0
LINE
  5
9C
330
1F
100
AcDbEntity
  8
0
  6
Continuous
 62
     7
420
 16777215
370
    18
100
AcDbLine
 10
309.0002694199
 20
540.6998449297
 30
0.0
 11
309.0002694199
 21
543.3576431918
 31
0.0
  0
LINE
  5
9D
330
1F
100
AcDbEntity
  8
0
  6
Continuous
 62
     7
420
 16777215
370
    18
100
AcDbLine
 10
723.6241397937
 20
519.0687260732
 30
0.0
 11
319.1900512283
 21
519.0687260732
 31
0.0
  0
LINE
  5
9E
330
1F
100
AcDbEntity
  8
0
  6
Continuous
 62
     7
420
 16777215
370
    18
100
AcDbLine
 10
319.1900512283
 20
519.0687260732
 30
0.0
 11
319.1900512283
 21
543.5084636604
 31
0.0
  0
LINE
  5
9F
330
1F
100
AcDbEntity
  8
0
  6
Continuous
 62
     7
420
 16777215
370
    18
100
AcDbLine
 10
309.0002694199
 20
556.5583053618
 30
0.0
 11
309.0002694199
 21
571.8135825007
 31
0.0
  0
LINE
  5
A0
330
1F
100
AcDbEntity
  8
0
  6
Continuous
 62
     7
420
 16777215
370
    18
100
AcDbLine
 10
309.0002694199
 20
571.8135825007
 30
0.0
 11
-105.4338211222
 21
571.8135825007
 31
0.0
  0
LINE
  5
A1
330
1F
100
AcDbEntity
  8
0
  6
Continuous
 62
     7
420
 16777215
370
    18
100
AcDbLine
 10
723.6241397937
 20
569.3175912578
 30
0.0
 11
723.6241397937
 21
543.5084636604
 31
0.0
  0
LINE
  5
A2
330
1F
100
AcDbEntity
  8
0
  6
Continuous
 62
     7
420
 16777215
370
    18
100
AcDbLine
 10
-105.4338211222
 20
542.6998449297
 30
0.0
 11
-105.4338211222
 21
556.5583053618
 31
0.0
  0
LINE
  5
A3
330
1F
100
AcDbEntity
  8
0
  6
Continuous
 62
     7
420
 16777215
370
    18
100
AcDbLine
 10
-105.4338211222
 20
571.8135825007
 30
0.0
 11
-105.4338211222
 21
556.5583053618
 31
0.0
  0
LINE
  5
A4
330
1F
100
AcDbEntity
  8
0
  6
Continuous
 62
     7
420
 16777215
370
    18
100
AcDbLine
 10
309.0002694199
 20
542.6998449297
 30
0.0
 11
309.0002694199
 21
556.5583053618
 31
0.0
  0
LINE
  5
A5
330
1F
100
AcDbEntity
  8
0
  6
Continuous
 62
     7
420
 16777215
370
    18
100
AcDbLine
 10
45.1337680558
 20
20.669029998
 30
0.0
 11
35.1337680558
 21
20.669029998
 31
0.0
  0
LINE
  5
A6
330
1F
100
AcDbEntity
  8
0
  6
Continuous
 62
     7
420
 16777215
370
    18
100
AcDbLine
 10
45.1337680558
 20
26.669029998
 30
0.0
 11
35.1337680558
 21
26.669029998
 31
0.0
  0
LINE
  5
A7
330
1F
100
AcDbEntity
  8
0
  6
Continuous
 62
     7
420
 16777215
370
    18
100
AcDbLine
 10
35.1337680558
 20
26.669029998
 30
0.0
 11
35.1337680558
 21
20.669029998
 31
0.0
  0
LINE
  5
A8
330
1F
100
AcDbEntity
  8
0
  6
Continuous
 62
     7
420
 16777215
370
    18
100
AcDbLine
 10
45.1336753552
 20
173.6993025476
 30
0.0
 11
35.1336827317
 21
173.6993025476
 31
0.0
  0
LINE
  5
A9
330
1F
100
AcDbEntity
  8
0
  6
Continuous
 62
     7
420
 16777215
370
    18
100
AcDbLine
 10
45.1336827317
 20
179.6993025476
 30
0.0
 11
35.1336827317
 21
179.6993025476
 31
0.0
  0
LINE
  5
AA
330
1F
100
AcDbEntity
  8
0
  6
Continuous
 62
     7
420
 16777215
370
    18
100
AcDbLine
 10
35.1336827317
 20
179.6993025476
 30
0.0
 11
35.1336827317
 21
173.6993025476
 31
0.0
  0
LINE
  5
AB
330
1F
100
AcDbEntity
  8
0
  6
Continuous
 62
     7
420
 16777215
370
    18
100
AcDbLine
 10
54.9276823758
 20
30.4630309108
 30
0.0
 11
54.9276823758
 21
169.9053903466
 31
0.0
  0
LINE
  5
AC
330
1F
100
AcDbEntity
  8
0
  6
Continuous
 62
     7
420
 16777215
370
    18
100
AcDbLine
 10
48.9276823758
 20
30.4630309108
 30
0.0
 11
48.9276823758
 21
169.9053294008
 31
0.0
  0
LINE
  5
AD
330
1F
100
AcDbEntity
  8
0
  6
Continuous
 62
     7
420
 16777215
370
    18
100
AcDbLine
 10
33.819999597
 20
17.7342098888
 30
0.0
 11
43.819999597
 21
17.7342098888
 31
0.0
  0
LINE
  5
AE
330
1F
100
AcDbEntity
  8
0
  6
Continuous
 62
     7
420
 16777215
370
    18
100
AcDbLine
 10
33.819999597
 20
11.7342098888
 30
0.0
 11
43.819999597
 21
11.7342098888
 31
0.0
  0
LINE
  5
AF
330
1F
100
AcDbEntity
  8
0
  6
Continuous
 62
     7
420
 16777215
370
    18
100
AcDbLine
 10
43.819999597
 20
17.7342098888
 30
0.0
 11
43.819999597
 21
11.7342098888
 31
0.0
  0
LINE
  5
B0
330
1F
100
AcDbEntity
  8
0
  6
Continuous
 62
     7
420
 16777215
370
    18
100
AcDbLine
 10
33.8199122964
 20
164.7644455951
 30
0.0
 11
43.8199122964
 21
164.7644455951
 31
0.0
  0
LINE
  5
B1
330
1F
100
AcDbEntity
  8
0
  6
Continuous
 62
     7
420
 16777215
370
    18
100
AcDbLine
 10
33.8199122964
 20
170.7644455951
 30
0.0
 11
43.8199122964
 21
170.7644455951
 31
0.0
  0
LINE
  5
B2
330
1F
100
AcDbEntity
  8
0
  6
Continuous
 62
     7
420
 16777215
370
    18
100
AcDbLine
 10
43.8199122964
 20
170.7644455951
 30
0.0
 11
43.8199122964
 21
164.7644455951
 31
0.0
  0
LINE
  5
B3
330
1F
100
AcDbEntity
  8
0
  6
Continuous
 62
     7
420
 16777215
370
    18
100
AcDbLine
 10
24.0259999415
 20
160.9704457972
 30
0.0
 11
24.0259999415
 21
21.5281229515
 31
0.0
  0
LINE
  5
B4
330
1F
100
AcDbEntity
  8
0
  6
Continuous
 62
     7
420
 16777215
370
    18
100
AcDbLine
 10
30.0259999415
 20
160.9704457972
 30
0.0
 11
30.0259999415
 21
21.5281229515
 31
0.0
  0
LINE
  5
B5
330
1F
100
AcDbEntity
  8
0
  6
Continuous
 62
     7
420
 16777215
370
    18
100
AcDbLine
 10
6.6951884403
 20
9.0155699762
 30
0.0
 11
0.6951884403
 21
9.0155699762
 31
0.0
  0
LINE
  5
B6
330
1F
100
AcDbEntity
  8
0
  6
Continuous
 62
     7
420
 16777215
370
    18
100
AcDbLine
 10
6.6914358253
 20
413.4496585417
 30
0.0
 11
0.6914358253
 21
413.4496585417
 31
0.0
  0
LINE
  5
B7
330
1F
100
AcDbEntity
  8
0
  6
Continuous
 62
     7
420
 16777215
370
    18
100
AcDbLine
 10
-15.6541341321
 20
412.6308069648
 30
0.0
 11
-15.6503815172
 21
8.1967183993
 31
0.0
  0
LINE
  5
B8
330
1F
100
AcDbEntity
  8
0
  6
Continuous
 62
     7
420
 16777215
370
    18
100
AcDbLine
 10
0.6914358253
 20
413.4496585417
 30
0.0
 11
0.6914358253
 21
368.4496585417
 31
0.0
  0
LINE
  5
B9
330
1F
100
AcDbEntity
  8
0
  6
Continuous
 62
     7
420
 16777215
370
    18
100
AcDbLine
 10
-21.6503815172
 20
8.1967183993
 30
0.0
 11
-21.6541341321
 21
412.6308069648
 31
0.0
  0
LINE
  5
BA
330
1F
100
AcDbEntity
  8
0
  6
Continuous
 62
     7
420
 16777215
370
    18
100
AcDbLine
 10
-15.6503815172
 20
8.1967183993
 30
0.0
 11
-21.6503815172
 21
8.1967183993
 31
0.0
  0
LINE
  5
BB
330
1F
100
AcDbEntity
  8
0
  6
Continuous
 62
     7
420
 16777215
370
    18
100
AcDbLine
 10
-15.6541341321
 20
412.6308069648
 30
0.0
 11
-21.6541341321
 21
412.6308069648
 31
0.0
  0
LINE
  5
BC
330
1F
100
AcDbEntity
  8
0
  6
Continuous
 62
     7
420
 16777215
370
    18
100
AcDbLine
 10
6.6914358253
 20
413.4496585417
 30
0.0
 11
6.6914358253
 21
368.4496585417
 31
0.0
  0
LINE
  5
BD
330
1F
100
AcDbEntity
  8
0
  6
Continuous
 62
     7
420
 16777215
370
    18
100
AcDbLine
 10
-4.4538443568
 20
8.0856610826
 30
0.0
 11
-4.4576338151
 21
412.5197516247
 31
0.0
  0
LINE
  5
BE
330
1F
100
AcDbEntity
  8
0
  6
Continuous
 62
     7
420
 16777215
370
    18
100
AcDbLine
 10
-10.4576338151
 20
412.5197516247
 30
0.0
 11
-10.4538443568
 21
8.0856610826
 31
0.0
  0
LINE
  5
BF
330
1F
100
AcDbEntity
  8
0
  6
Continuous
 62
     7
420
 16777215
370
    18
100
AcDbLine
 10
-4.4538443568
 20
8.0856610826
 30
0.0
 11
-10.4538443568
 21
8.0856610826
 31
0.0
  0
LINE
  5
C0
330
1F
100
AcDbEntity
  8
0
  6
Continuous
 62
     7
420
 16777215
370
    18
100
AcDbLine
 10
-4.4576338151
 20
412.5197516247
 30
0.0
 11
-10.4576338151
 21
412.5197516247
 31
0.0
  0
LINE
  5
C1
330
1F
100
AcDbEntity
  8
0
  6
Continuous
 62
     7
420
 16777215
370
    18
100
AcDbLine
 10
6.6914358253
 20
368.4496585417
 30
0.0
 11
0.6914358253
 21
368.4496585417
 31
0.0
  0
LINE
  5
C2
330
1F
100
AcDbEntity
  8
0
  6
Continuous
 62
     7
420
 16777215
370
    18
100
AcDbLine
 10
0.6914358253
 20
350.4496585417
 30
0.0
 11
6.6914358253
 21
350.4496585417
 31
0.0
  0
LINE
  5
C3
330
1F
100
AcDbEntity
  8
0
  6
Continuous
 62
     7
420
 16777215
370
    18
100
AcDbLine
 10
0.6914358253
 20
350.4496585417
 30
0.0
 11
0.6951884403
 21
9.0155699762
 31
0.0
  0
LINE
  5
C4
330
1F
100
AcDbEntity
  8
0
  6
Continuous
 62
     7
420
 16777215
370
    18
100
AcDbLine
 10
6.6951884403
 20
9.0155699762
 30
0.0
 11
6.6914358253
 21
350.4496585417
 31
0.0
  0
LINE
  5
C5
330
1F
100
AcDbEntity
  8
0
  6
Continuous
 62
     7
420
 16777215
370
    18
100
AcDbLine
 10
17.5742679611
 20
8.3738887545
 30
0.0
 11
11.5742679611
 21
8.3738887545
 31
0.0
  0
LINE
  5
C6
330
1F
100
AcDbEntity
  8
0
  6
Continuous
 62
     7
420
 16777215
370
    18
100
AcDbLine
 10
17.5704785028
 20
412.8079792966
 30
0.0
 11
11.5704785028
 21
412.8079792966
 31
0.0
  0
LINE
  5
C7
330
1F
100
AcDbEntity
  8
0
  6
Continuous
 62
     7
420
 16777215
370
    18
100
AcDbLine
 10
11.5704785028
 20
412.8079792966
 30
0.0
 11
11.5742679611
 21
8.3738887545
 31
0.0
  0
LINE
  5
C8
330
1F
100
AcDbEntity
  8
0
  6
Continuous
 62
     7
420
 16777215
370
    18
100
AcDbLine
 10
17.5742679611
 20
8.3738887545
 30
0.0
 11
17.5704785028
 21
412.8079792966
 31
0.0
  0
LINE
  5
C9
330
1F
100
AcDbEntity
  8
0
  6
Continuous
 62
     7
420
 16777215
370
    18
100
AcDbLine
 10
45.1581839771
 20
214.4485827913
 30
0.0
 11
35.1581839771
 21
214.4485827913
 31
0.0
  0
LINE
  5
CA
330
1F
100
AcDbEntity
  8
0
  6
Continuous
 62
     7
420
 16777215
370
    18
100
AcDbLine
 10
45.1581839771
 20
220.4485827913
 30
0.0
 11
35.1581839771
 21
220.4485827913
 31
0.0
  0
LINE
  5
CB
330
1F
100
AcDbEntity
  8
0
  6
Continuous
 62
     7
420
 16777215
370
    18
100
AcDbLine
 10
35.1581839771
 20
220.4485827913
 30
0.0
 11
35.1581839771
 21
214.4485827913
 31
0.0
  0
LINE
  5
CC
330
1F
100
AcDbEntity
  8
0
  6
Continuous
 62
     7
420
 16777215
370
    18
100
AcDbLine
 10
45.1580912765
 20
367.4788553409
 30
0.0
 11
35.158098653
 21
367.4788553409
 31
0.0
  0
LINE
  5
CD
330
1F
100
AcDbEntity
  8
0
  6
Continuous
 62
     7
420
 16777215
370
    18
100
AcDbLine
 10
45.158098653
 20
373.4788553409
 30
0.0
 11
35.158098653
 21
373.4788553409
 31
0.0
  0
LINE
  5
CE
330
1F
100
AcDbEntity
  8
0
  6
Continuous
 62
     7
420
 16777215
370
    18
100
AcDbLine
 10
35.158098653
 20
373.4788553409
 30
0.0
 11
35.158098653
 21
367.4788553409
 31
0.0
  0
LINE
  5
CF
330
1F
100
AcDbEntity
  8
0
  6
Continuous
 62
     7
420
 16777215
370
    18
100
AcDbLine
 10
54.9520982971
 20
224.2425837041
 30
0.0
 11
54.9520982971
 21
363.6849431399
 31
0.0
  0
LINE
  5
D0
330
1F
100
AcDbEntity
  8
0
  6
Continuous
 62
     7
420
 16777215
370
    18
100
AcDbLine
 10
48.9520982971
 20
224.2425837041
 30
0.0
 11
48.9520982971
 21
363.6848821941
 31
0.0
  0
LINE
  5
D1
330
1F
100
AcDbEntity
  8
0
  6
Continuous
 62
     7
420
 16777215
370
    18
100
AcDbLine
 10
33.8444155183
 20
211.5137626821
 30
0.0
 11
43.8444155183
 21
211.5137626821
 31
0.0
  0
LINE
  5
D2
330
1F
100
AcDbEntity
  8
0
  6
Continuous
 62
     7
420
 16777215
370
    18
100
AcDbLine
 10
33.8444155183
 20
205.5137626821
 30
0.0
 11
43.8444155183
 21
205.5137626821
 31
0.0
  0
LINE
  5
D3
330
1F
100
AcDbEntity
  8
0
  6
Continuous
 62
     7
420
 16777215
370
    18
100
AcDbLine
 10
43.8444155183
 20
211.5137626821
 30
0.0
 11
43.8444155183
 21
205.5137626821
 31
0.0
  0
LINE
  5
D4
330
1F
100
AcDbEntity
  8
0
  6
Continuous
 62
     7
420
 16777215
370
    18
100
AcDbLine
 10
33.8443282177
 20
358.5439983884
 30
0.0
 11
43.8443282177
 21
358.5439983884
 31
0.0
  0
LINE
  5
D5
330
1F
100
AcDbEntity
  8
0
  6
Continuous
 62
     7
420
 16777215
370
    18
100
AcDbLine
 10
33.8443282177
 20
364.5439983884
 30
0.0
 11
43.8443282177
 21
364.5439983884
 31
0.0
  0
LINE
  5
D6
330
1F
100
AcDbEntity
  8
0
  6
Continuous
 62
     7
420
 16777215
370
    18
100
AcDbLine
 10
43.8443282177
 20
364.5439983884
 30
0.0
 11
43.8443282177
 21
358.5439983884
 31
0.0
  0
LINE
  5
D7
330
1F
100
AcDbEntity
  8
0
  6
Continuous
 62
     7
420
 16777215
370
    18
100
AcDbLine
 10
24.0504158628
 20
354.7499985905
 30
0.0
 11
24.0504158628
 21
344.7499985905
 31
0.0
  0
LINE
  5
D8
330
1F
100
AcDbEntity
  8
0
  6
Continuous
 62
     7
420
 16777215
370
    18
100
AcDbLine
 10
30.0504158628
 20
354.7499985905
 30
0.0
 11
30.0504158628
 21
344.7499985905
 31
0.0
  0
LINE
  5
D9
330
1F
100
AcDbEntity
  8
0
  6
Continuous
 62
     7
420
 16777215
370
    18
100
AcDbLine
 10
30.0504158628
 20
344.7499985905
 30
0.0
 11
24.0504158628
 21
344.7499985905
 31
0.0
  0
LINE
  5
DA
330
1F
100
AcDbEntity
  8
0
  6
Continuous
 62
     7
420
 16777215
370
    18
100
AcDbLine
 10
30.0504158628
 20
215.3076757447
 30
0.0
 11
30.0504158628
 21
329.7499985905
 31
0.0
  0
LINE
  5
DB
330
1F
100
AcDbEntity
  8
0
  6
Continuous
 62
     7
420
 16777215
370
    18
100
AcDbLine
 10
24.0504158628
 20
215.3076757447
 30
0.0
 11
24.0504158628
 21
329.7499985905
 31
0.0
  0
LINE
  5
DC
330
1F
100
AcDbEntity
  8
0
  6
Continuous
 62
     7
420
 16777215
370
    18
100
AcDbLine
 10
30.0504158628
 20
329.7499985905
 30
0.0
 11
24.0504158628
 21
329.7499985905
 31
0.0
  0
LINE
  5
DD
330
1F
100
AcDbEntity
  8
0
  6
Continuous
 62
     7
420
 16777215
370
    18
100
AcDbLine
 10
-44.3594638647
 20
22.8681571834
 30
0.0
 11
-54.3594638647
 21
22.8681571834
 31
0.0
  0
LINE
  5
DE
330
1F
100
AcDbEntity
  8
0
  6
Continuous
 62
     7
420
 16777215
370
    18
100
AcDbLine
 10
-44.3594638647
 20
28.8681571834
 30
0.0
 11
-54.3594638647
 21
28.8681571834
 31
0.0
  0
LINE
  5
DF
330
1F
100
AcDbEntity
  8
0
  6
Continuous
 62
     7
420
 16777215
370
    18
100
AcDbLine
 10
-54.3594638647
 20
28.8681571834
 30
0.0
 11
-54.3594638647
 21
22.8681571834
 31
0.0
  0
LINE
  5
E0
330
1F
100
AcDbEntity
  8
0
  6
Continuous
 62
     7
420
 16777215
370
    18
100
AcDbLine
 10
-44.3595565653
 20
175.898429733
 30
0.0
 11
-54.3595491887
 21
175.898429733
 31
0.0
  0
LINE
  5
E1
330
1F
100
AcDbEntity
  8
0
  6
Continuous
 62
     7
420
 16777215
370
    18
100
AcDbLine
 10
-44.3595491887
 20
181.898429733
 30
0.0
 11
-54.3595491887
 21
181.898429733
 31
0.0
  0
LINE
  5
E2
330
1F
100
AcDbEntity
  8
0
  6
Continuous
 62
     7
420
 16777215
370
    18
100
AcDbLine
 10
-54.3595491887
 20
181.898429733
 30
0.0
 11
-54.3595491887
 21
175.898429733
 31
0.0
  0
LINE
  5
E3
330
1F
100
AcDbEntity
  8
0
  6
Continuous
 62
     7
420
 16777215
370
    18
100
AcDbLine
 10
-34.5655495447
 20
32.6621580962
 30
0.0
 11
-34.5655495447
 21
172.104517532
 31
0.0
  0
LINE
  5
E4
330
1F
100
AcDbEntity
  8
0
  6
Continuous
 62
     7
420
 16777215
370
    18
100
AcDbLine
 10
-40.5655495447
 20
32.6621580962
 30
0.0
 11
-40.5655495447
 21
172.1044565861
 31
0.0
  0
LINE
  5
E5
330
1F
100
AcDbEntity
  8
0
  6
Continuous
 62
     7
420
 16777215
370
    18
100
AcDbLine
 10
-55.6732323235
 20
19.9333370741
 30
0.0
 11
-45.6732323235
 21
19.9333370741
 31
0.0
  0
LINE
  5
E6
330
1F
100
AcDbEntity
  8
0
  6
Continuous
 62
     7
420
 16777215
370
    18
100
AcDbLine
 10
-55.6732323235
 20
13.9333370741
 30
0.0
 11
-45.6732323235
 21
13.9333370741
 31
0.0
  0
LINE
  5
E7
330
1F
100
AcDbEntity
  8
0
  6
Continuous
 62
     7
420
 16777215
370
    18
100
AcDbLine
 10
-45.6732323235
 20
19.9333370741
 30
0.0
 11
-45.6732323235
 21
13.9333370741
 31
0.0
  0
LINE
  5
E8
330
1F
100
AcDbEntity
  8
0
  6
Continuous
 62
     7
420
 16777215
370
    18
100
AcDbLine
 10
-55.6733196241
 20
166.9635727804
 30
0.0
 11
-45.6733196241
 21
166.9635727804
 31
0.0
  0
LINE
  5
E9
330
1F
100
AcDbEntity
  8
0
  6
Continuous
 62
     7
420
 16777215
370
    18
100
AcDbLine
 10
-55.6733196241
 20
172.9635727804
 30
0.0
 11
-45.6733196241
 21
172.9635727804
 31
0.0
  0
LINE
  5
EA
330
1F
100
AcDbEntity
  8
0
  6
Continuous
 62
     7
420
 16777215
370
    18
100
AcDbLine
 10
-45.6733196241
 20
172.9635727804
 30
0.0
 11
-45.6733196241
 21
166.9635727804
 31
0.0
  0
LINE
  5
EB
330
1F
100
AcDbEntity
  8
0
  6
Continuous
 62
     7
420
 16777215
370
    18
100
AcDbLine
 10
-65.467231979
 20
163.1695729826
 30
0.0
 11
-65.467231979
 21
23.7272501368
 31
0.0
  0
LINE
  5
EC
330
1F
100
AcDbEntity
  8
0
  6
Continuous
 62
     7
420
 16777215
370
    18
100
AcDbLine
 10
-59.467231979
 20
163.1695729826
 30
0.0
 11
-59.467231979
 21
23.7272501368
 31
0.0
  0
LINE
  5
ED
330
1F
100
AcDbEntity
  8
0
  6
Continuous
 62
     7
420
 16777215
370
    18
100
AcDbLine
 10
-82.7980434802
 20
11.2146971615
 30
0.0
 11
-88.7980434802
 21
11.2146971615
 31
0.0
  0
LINE
  5
EE
330
1F
100
AcDbEntity
  8
0
  6
Continuous
 62
     7
420
 16777215
370
    18
100
AcDbLine
 10
-82.8017960952
 20
415.648785727
 30
0.0
 11
-88.8017960952
 21
415.648785727
 31
0.0
  0
LINE
  5
EF
330
1F
100
AcDbEntity
  8
0
  6
Continuous
 62
     7
420
 16777215
370
    18
100
AcDbLine
 10
-105.1473660526
 20
414.8299341501
 30
0.0
 11
-105.1436134377
 21
10.3958455847
 31
0.0
  0
LINE
  5
F0
330
1F
100
AcDbEntity
  8
0
  6
Continuous
 62
     7
420
 16777215
370
    18
100
AcDbLine
 10
-88.8017960952
 20
415.648785727
 30
0.0
 11
-88.8017960952
 21
370.648785727
 31
0.0
  0
LINE
  5
F1
330
1F
100
AcDbEntity
  8
0
  6
Continuous
 62
     7
420
 16777215
370
    18
100
AcDbLine
 10
-111.1436134377
 20
10.3958455847
 30
0.0
 11
-111.1473660526
 21
414.8299341501
 31
0.0
  0
LINE
  5
F2
330
1F
100
AcDbEntity
  8
0
  6
Continuous
 62
     7
420
 16777215
370
    18
100
AcDbLine
 10
-105.1436134377
 20
10.3958455847
 30
0.0
 11
-111.1436134377
 21
10.3958455847
 31
0.0
  0
LINE
  5
F3
330
1F
100
AcDbEntity
  8
0
  6
Continuous
 62
     7
420
 16777215
370
    18
100
AcDbLine
 10
-105.1473660526
 20
414.8299341501
 30
0.0
 11
-111.1473660526
 21
414.8299341501
 31
0.0
  0
LINE
  5
F4
330
1F
100
AcDbEntity
  8
0
  6
Continuous
 62
     7
420
 16777215
370
    18
100
AcDbLine
 10
-82.8017960952
 20
415.648785727
 30
0.0
 11
-82.8017960952
 21
370.648785727
 31
0.0
  0
LINE
  5
F5
330
1F
100
AcDbEntity
  8
0
  6
Continuous
 62
     7
420
 16777215
370
    18
100
AcDbLine
 10
-93.9470762773
 20
10.284788268
 30
0.0
 11
-93.9508657356
 21
414.7188788101
 31
0.0
  0
LINE
  5
F6
330
1F
100
AcDbEntity
  8
0
  6
Continuous
 62
     7
420
 16777215
370
    18
100
AcDbLine
 10
-99.9508657356
 20
414.7188788101
 30
0.0
 11
-99.9470762773
 21
10.284788268
 31
0.0
  0
LINE
  5
F7
330
1F
100
AcDbEntity
  8
0
  6
Continuous
 62
     7
420
 16777215
370
    18
100
AcDbLine
 10
-93.9470762773
 20
10.284788268
 30
0.0
 11
-99.9470762773
 21
10.284788268
 31
0.0
  0
LINE
  5
F8
330
1F
100
AcDbEntity
  8
0
  6
Continuous
 62
     7
420
 16777215
370
    18
100
AcDbLine
 10
-93.9508657356
 20
414.7188788101
 30
0.0
 11
-99.9508657356
 21
414.7188788101
 31
0.0
  0
LINE
  5
F9
330
1F
100
AcDbEntity
  8
0
  6
Continuous
 62
     7
420
 16777215
370
    18
100
AcDbLine
 10
-82.8017960952
 20
370.648785727
 30
0.0
 11
-88.8017960952
 21
370.648785727
 31
0.0
  0
LINE
  5
FA
330
1F
100
AcDbEntity
  8
0
  6
Continuous
 62
     7
420
 16777215
370
    18
100
AcDbLine
 10
-88.8017960952
 20
352.648785727
 30
0.0
 11
-82.8017960952
 21
352.648785727
 31
0.0
  0
LINE
  5
FB
330
1F
100
AcDbEntity
  8
0
  6
Continuous
 62
     7
420
 16777215
370
    18
100
AcDbLine
 10
-88.8017960952
 20
352.648785727
 30
0.0
 11
-88.7980434802
 21
11.2146971615
 31
0.0
  0
LINE
  5
FC
330
1F
100
AcDbEntity
  8
0
  6
Continuous
 62
     7
420
 16777215
370
    18
100
AcDbLine
 10
-82.7980434802
 20
11.2146971615
 30
0.0
 11
-82.8017960952
 21
352.648785727
 31
0.0
  0
LINE
  5
FD
330
1F
100
AcDbEntity
  8
0
  6
Continuous
 62
     7
420
 16777215
370
    18
100
AcDbLine
 10
-71.9189639594
 20
10.5730159398
 30
0.0
 11
-77.9189639594
 21
10.5730159398
 31
0.0
  0
LINE
  5
FE
330
1F
100
AcDbEntity
  8
0
  6
Continuous
 62
     7
420
 16777215
370
    18
100
AcDbLine
 10
-71.9227534177
 20
415.0071064819
 30
0.0
 11
-77.9227534177
 21
415.0071064819
 31
0.0
  0
LINE
  5
FF
330
1F
100
AcDbEntity
  8
0
  6
Continuous
 62
     7
420
 16777215
370
    18
100
AcDbLine
 10
-77.9227534177
 20
415.0071064819
 30
0.0
 11
-77.9189639594
 21
10.5730159398
 31
0.0
  0
LINE
  5
100
330
1F
100
AcDbEntity
  8
0
  6
Continuous
 62
     7
420
 16777215
370
    18
100
AcDbLine
 10
-71.9189639594
 20
10.5730159398
 30
0.0
 11
-71.9227534177
 21
415.0071064819
 31
0.0
  0
LINE
  5
101
330
1F
100
AcDbEntity
  8
0
  6
Continuous
 62
     7
420
 16777215
370
    18
100
AcDbLine
 10
-44.3350479434
 20
216.6477099766
 30
0.0
 11
-54.3350479434
 21
216.6477099766
 31
0.0
  0
LINE
  5
102
330
1F
100
AcDbEntity
  8
0
  6
Continuous
 62
     7
420
 16777215
370
    18
100
AcDbLine
 10
-44.3350479434
 20
222.6477099766
 30
0.0
 11
-54.3350479434
 21
222.6477099766
 31
0.0
  0
LINE
  5
103
330
1F
100
AcDbEntity
  8
0
  6
Continuous
 62
     7
420
 16777215
370
    18
100
AcDbLine
 10
-54.3350479434
 20
222.6477099766
 30
0.0
 11
-54.3350479434
 21
216.6477099766
 31
0.0
  0
LINE
  5
104
330
1F
100
AcDbEntity
  8
0
  6
Continuous
 62
     7
420
 16777215
370
    18
100
AcDbLine
 10
-44.335140644
 20
369.6779825263
 30
0.0
 11
-54.3351332674
 21
369.6779825263
 31
0.0
  0
LINE
  5
105
330
1F
100
AcDbEntity
  8
0
  6
Continuous
 62
     7
420
 16777215
370
    18
100
AcDbLine
 10
-44.3351332674
 20
375.6779825263
 30
0.0
 11
-54.3351332674
 21
375.6779825263
 31
0.0
  0
LINE
  5
106
330
1F
100
AcDbEntity
  8
0
  6
Continuous
 62
     7
420
 16777215
370
    18
100
AcDbLine
 10
-54.3351332674
 20
375.6779825263
 30
0.0
 11
-54.3351332674
 21
369.6779825263
 31
0.0
  0
LINE
  5
107
330
1F
100
AcDbEntity
  8
0
  6
Continuous
 62
     7
420
 16777215
370
    18
100
AcDbLine
 10
-34.5411336234
 20
226.4417108895
 30
0.0
 11
-34.5411336234
 21
365.8840703252
 31
0.0
  0
LINE
  5
108
330
1F
100
AcDbEntity
  8
0
  6
Continuous
 62
     7
420
 16777215
370
    18
100
AcDbLine
 10
-40.5411336234
 20
226.4417108895
 30
0.0
 11
-40.5411336234
 21
365.8840093794
 31
0.0
  0
LINE
  5
109
330
1F
100
AcDbEntity
  8
0
  6
Continuous
 62
     7
420
 16777215
370
    18
100
AcDbLine
 10
-55.6488164021
 20
213.7128898674
 30
0.0
 11
-45.6488164021
 21
213.7128898674
 31
0.0
  0
LINE
  5
10A
330
1F
100
AcDbEntity
  8
0
  6
Continuous
 62
     7
420
 16777215
370
    18
100
AcDbLine
 10
-55.6488164021
 20
207.7128898674
 30
0.0
 11
-45.6488164021
 21
207.7128898674
 31
0.0
  0
LINE
  5
10B
330
1F
100
AcDbEntity
  8
0
  6
Continuous
 62
     7
420
 16777215
370
    18
100
AcDbLine
 10
-45.6488164021
 20
213.7128898674
 30
0.0
 11
-45.6488164021
 21
207.7128898674
 31
0.0
  0
LINE
  5
10C
330
1F
100
AcDbEntity
  8
0
  6
Continuous
 62
     7
420
 16777215
370
    18
100
AcDbLine
 10
-55.6489037028
 20
360.7431255737
 30
0.0
 11
-45.6489037028
 21
360.7431255737
 31
0.0
  0
LINE
  5
10D
330
1F
100
AcDbEntity
  8
0
  6
Continuous
 62
     7
420
 16777215
370
    18
100
AcDbLine
 10
-55.6489037028
 20
366.7431255737
 30
0.0
 11
-45.6489037028
 21
366.7431255737
 31
0.0
  0
LINE
  5
10E
330
1F
100
AcDbEntity
  8
0
  6
Continuous
 62
     7
420
 16777215
370
    18
100
AcDbLine
 10
-45.6489037028
 20
366.7431255737
 30
0.0
 11
-45.6489037028
 21
360.7431255737
 31
0.0
  0
LINE
  5
10F
330
1F
100
AcDbEntity
  8
0
  6
Continuous
 62
     7
420
 16777215
370
    18
100
AcDbLine
 10
-65.4428160576
 20
356.9491257758
 30
0.0
 11
-65.4428160576
 21
346.9491257758
 31
0.0
  0
LINE
  5
110
330
1F
100
AcDbEntity
  8
0
  6
Continuous
 62
     7
420
 16777215
370
    18
100
AcDbLine
 10
-59.4428160576
 20
356.9491257758
 30
0.0
 11
-59.4428160576
 21
346.9491257758
 31
0.0
  0
LINE
  5
111
330
1F
100
AcDbEntity
  8
0
  6
Continuous
 62
     7
420
 16777215
370
    18
100
AcDbLine
 10
-59.4428160576
 20
346.9491257758
 30
0.0
 11
-65.4428160576
 21
346.9491257758
 31
0.0
  0
LINE
  5
112
330
1F
100
AcDbEntity
  8
0
  6
Continuous
 62
     7
420
 16777215
370
    18
100
AcDbLine
 10
-59.4428160576
 20
217.5068029301
 30
0.0
 11
-59.4428160576
 21
331.9491257758
 31
0.0
  0
LINE
  5
113
330
1F
100
AcDbEntity
  8
0
  6
Continuous
 62
     7
420
 16777215
370
    18
100
AcDbLine
 10
-65.4428160576
 20
217.5068029301
 30
0.0
 11
-65.4428160576
 21
331.9491257758
 31
0.0
  0
LINE
  5
114
330
1F
100
AcDbEntity
  8
0
  6
Continuous
 62
     7
420
 16777215
370
    18
100
AcDbLine
 10
-59.4428160576
 20
331.9491257758
 30
0.0
 11
-65.4428160576
 21
331.9491257758
 31
0.0
  0
LINE
  5
115
330
1F
100
AcDbEntity
  8
0
  6
Continuous
 62
     7
420
 16777215
370
    18
100
AcDbLine
 10
610.9972287403
 20
31.4261346119
 30
0.0
 11
600.9972287403
 21
31.4261346119
 31
0.0
  0
LINE
  5
116
330
1F
100
AcDbEntity
  8
0
  6
Continuous
 62
     7
420
 16777215
370
    18
100
AcDbLine
 10
610.9972287403
 20
37.4261346119
 30
0.0
 11
600.9972287403
 21
37.4261346119
 31
0.0
  0
LINE
  5
117
330
1F
100
AcDbEntity
  8
0
  6
Continuous
 62
     7
420
 16777215
370
    18
100
AcDbLine
 10
600.9972287403
 20
37.4261346119
 30
0.0
 11
600.9972287403
 21
31.4261346119
 31
0.0
  0
LINE
  5
118
330
1F
100
AcDbEntity
  8
0
  6
Continuous
 62
     7
420
 16777215
370
    18
100
AcDbLine
 10
610.9971360397
 20
184.4564071615
 30
0.0
 11
600.9971434163
 21
184.4564071615
 31
0.0
  0
LINE
  5
119
330
1F
100
AcDbEntity
  8
0
  6
Continuous
 62
     7
420
 16777215
370
    18
100
AcDbLine
 10
610.9971434163
 20
190.4564071615
 30
0.0
 11
600.9971434163
 21
190.4564071615
 31
0.0
  0
LINE
  5
11A
330
1F
100
AcDbEntity
  8
0
  6
Continuous
 62
     7
420
 16777215
370
    18
100
AcDbLine
 10
600.9971434163
 20
190.4564071615
 30
0.0
 11
600.9971434163
 21
184.4564071615
 31
0.0
  0
LINE
  5
11B
330
1F
100
AcDbEntity
  8
0
  6
Continuous
 62
     7
420
 16777215
370
    18
100
AcDbLine
 10
620.7911430603
 20
41.2201355247
 30
0.0
 11
620.7911430603
 21
180.6624949605
 31
0.0
  0
LINE
  5
11C
330
1F
100
AcDbEntity
  8
0
  6
Continuous
 62
     7
420
 16777215
370
    18
100
AcDbLine
 10
614.7911430603
 20
41.2201355247
 30
0.0
 11
614.7911430603
 21
180.6624340147
 31
0.0
  0
LINE
  5
11D
330
1F
100
AcDbEntity
  8
0
  6
Continuous
 62
     7
420
 16777215
370
    18
100
AcDbLine
 10
599.6834602816
 20
28.4913145027
 30
0.0
 11
609.6834602816
 21
28.4913145027
 31
0.0
  0
LINE
  5
11E
330
1F
100
AcDbEntity
  8
0
  6
Continuous
 62
     7
420
 16777215
370
    18
100
AcDbLine
 10
599.6834602816
 20
22.4913145027
 30
0.0
 11
609.6834602816
 21
22.4913145027
 31
0.0
  0
LINE
  5
11F
330
1F
100
AcDbEntity
  8
0
  6
Continuous
 62
     7
420
 16777215
370
    18
100
AcDbLine
 10
609.6834602816
 20
28.4913145027
 30
0.0
 11
609.6834602816
 21
22.4913145027
 31
0.0
  0
LINE
  5
120
330
1F
100
AcDbEntity
  8
0
  6
Continuous
 62
     7
420
 16777215
370
    18
100
AcDbLine
 10
599.6833729809
 20
175.521550209
 30
0.0
 11
609.6833729809
 21
175.521550209
 31
0.0
  0
LINE
  5
121
330
1F
100
AcDbEntity
  8
0
  6
Continuous
 62
     7
420
 16777215
370
    18
100
AcDbLine
 10
599.6833729809
 20
181.521550209
 30
0.0
 11
609.6833729809
 21
181.521550209
 31
0.0
  0
LINE
  5
122
330
1F
100
AcDbEntity
  8
0
  6
Continuous
 62
     7
420
 16777215
370
    18
100
AcDbLine
 10
609.6833729809
 20
181.521550209
 30
0.0
 11
609.6833729809
 21
175.521550209
 31
0.0
  0
LINE
  5
123
330
1F
100
AcDbEntity
  8
0
  6
Continuous
 62
     7
420
 16777215
370
    18
100
AcDbLine
 10
589.8894606261
 20
171.7275504111
 30
0.0
 11
589.8894606261
 21
32.2852275654
 31
0.0
  0
LINE
  5
124
330
1F
100
AcDbEntity
  8
0
  6
Continuous
 62
     7
420
 16777215
370
    18
100
AcDbLine
 10
595.8894606261
 20
171.7275504111
 30
0.0
 11
595.8894606261
 21
32.2852275654
 31
0.0
  0
LINE
  5
125
330
1F
100
AcDbEntity
  8
0
  6
Continuous
 62
     7
420
 16777215
370
    18
100
AcDbLine
 10
572.5586491248
 20
19.7726745901
 30
0.0
 11
566.5586491248
 21
19.7726745901
 31
0.0
  0
LINE
  5
126
330
1F
100
AcDbEntity
  8
0
  6
Continuous
 62
     7
420
 16777215
370
    18
100
AcDbLine
 10
572.5548965098
 20
424.2067631555
 30
0.0
 11
566.5548965098
 21
424.2067631555
 31
0.0
  0
LINE
  5
127
330
1F
100
AcDbEntity
  8
0
  6
Continuous
 62
     7
420
 16777215
370
    18
100
AcDbLine
 10
550.2093265524
 20
423.3879115787
 30
0.0
 11
550.2130791674
 21
18.9538230132
 31
0.0
  0
LINE
  5
128
330
1F
100
AcDbEntity
  8
0
  6
Continuous
 62
     7
420
 16777215
370
    18
100
AcDbLine
 10
566.5548965098
 20
424.2067631555
 30
0.0
 11
566.5548965098
 21
379.2067631555
 31
0.0
  0
LINE
  5
129
330
1F
100
AcDbEntity
  8
0
  6
Continuous
 62
     7
420
 16777215
370
    18
100
AcDbLine
 10
544.2130791674
 20
18.9538230132
 30
0.0
 11
544.2093265524
 21
423.3879115787
 31
0.0
  0
LINE
  5
12A
330
1F
100
AcDbEntity
  8
0
  6
Continuous
 62
     7
420
 16777215
370
    18
100
AcDbLine
 10
550.2130791674
 20
18.9538230132
 30
0.0
 11
544.2130791674
 21
18.9538230132
 31
0.0
  0
LINE
  5
12B
330
1F
100
AcDbEntity
  8
0
  6
Continuous
 62
     7
420
 16777215
370
    18
100
AcDbLine
 10
550.2093265524
 20
423.3879115787
 30
0.0
 11
544.2093265524
 21
423.3879115787
 31
0.0
  0
LINE
  5
12C
330
1F
100
AcDbEntity
  8
0
  6
Continuous
 62
     7
420
 16777215
370
    18
100
AcDbLine
 10
572.5548965098
 20
424.2067631555
 30
0.0
 11
572.5548965098
 21
379.2067631555
 31
0.0
  0
LINE
  5
12D
330
1F
100
AcDbEntity
  8
0
  6
Continuous
 62
     7
420
 16777215
370
    18
100
AcDbLine
 10
561.4096163277
 20
18.8427656965
 30
0.0
 11
561.4058268694
 21
423.2768562386
 31
0.0
  0
LINE
  5
12E
330
1F
100
AcDbEntity
  8
0
  6
Continuous
 62
     7
420
 16777215
370
    18
100
AcDbLine
 10
555.4058268694
 20
423.2768562386
 30
0.0
 11
555.4096163277
 21
18.8427656965
 31
0.0
  0
LINE
  5
12F
330
1F
100
AcDbEntity
  8
0
  6
Continuous
 62
     7
420
 16777215
370
    18
100
AcDbLine
 10
561.4096163277
 20
18.8427656965
 30
0.0
 11
555.4096163277
 21
18.8427656965
 31
0.0
  0
LINE
  5
130
330
1F
100
AcDbEntity
  8
0
  6
Continuous
 62
     7
420
 16777215
370
    18
100
AcDbLine
 10
561.4058268694
 20
423.2768562386
 30
0.0
 11
555.4058268694
 21
423.2768562386
 31
0.0
  0
LINE
  5
131
330
1F
100
AcDbEntity
  8
0
  6
Continuous
 62
     7
420
 16777215
370
    18
100
AcDbLine
 10
572.5548965098
 20
379.2067631555
 30
0.0
 11
566.5548965098
 21
379.2067631555
 31
0.0
  0
LINE
  5
132
330
1F
100
AcDbEntity
  8
0
  6
Continuous
 62
     7
420
 16777215
370
    18
100
AcDbLine
 10
566.5548965098
 20
361.2067631555
 30
0.0
 11
572.5548965098
 21
361.2067631555
 31
0.0
  0
LINE
  5
133
330
1F
100
AcDbEntity
  8
0
  6
Continuous
 62
     7
420
 16777215
370
    18
100
AcDbLine
 10
566.5548965098
 20
361.2067631555
 30
0.0
 11
566.5586491248
 21
19.7726745901
 31
0.0
  0
LINE
  5
134
330
1F
100
AcDbEntity
  8
0
  6
Continuous
 62
     7
420
 16777215
370
    18
100
AcDbLine
 10
572.5586491248
 20
19.7726745901
 30
0.0
 11
572.5548965098
 21
361.2067631555
 31
0.0
  0
LINE
  5
135
330
1F
100
AcDbEntity
  8
0
  6
Continuous
 62
     7
420
 16777215
370
    18
100
AcDbLine
 10
583.4377286456
 20
19.1309933684
 30
0.0
 11
577.4377286456
 21
19.1309933684
 31
0.0
  0
LINE
  5
136
330
1F
100
AcDbEntity
  8
0
  6
Continuous
 62
     7
420
 16777215
370
    18
100
AcDbLine
 10
583.4339391873
 20
423.5650839105
 30
0.0
 11
577.4339391873
 21
423.5650839105
 31
0.0
  0
LINE
  5
137
330
1F
100
AcDbEntity
  8
0
  6
Continuous
 62
     7
420
 16777215
370
    18
100
AcDbLine
 10
577.4339391873
 20
423.5650839105
 30
0.0
 11
577.4377286456
 21
19.1309933684
 31
0.0
  0
LINE
  5
138
330
1F
100
AcDbEntity
  8
0
  6
Continuous
 62
     7
420
 16777215
370
    18
100
AcDbLine
 10
583.4377286456
 20
19.1309933684
 30
0.0
 11
583.4339391873
 21
423.5650839105
 31
0.0
  0
LINE
  5
139
330
1F
100
AcDbEntity
  8
0
  6
Continuous
 62
     7
420
 16777215
370
    18
100
AcDbLine
 10
611.0216446616
 20
225.2056874052
 30
0.0
 11
601.0216446616
 21
225.2056874052
 31
0.0
  0
LINE
  5
13A
330
1F
100
AcDbEntity
  8
0
  6
Continuous
 62
     7
420
 16777215
370
    18
100
AcDbLine
 10
611.0216446616
 20
231.2056874052
 30
0.0
 11
601.0216446616
 21
231.2056874052
 31
0.0
  0
LINE
  5
13B
330
1F
100
AcDbEntity
  8
0
  6
Continuous
 62
     7
420
 16777215
370
    18
100
AcDbLine
 10
601.0216446616
 20
231.2056874052
 30
0.0
 11
601.0216446616
 21
225.2056874052
 31
0.0
  0
LINE
  5
13C
330
1F
100
AcDbEntity
  8
0
  6
Continuous
 62
     7
420
 16777215
370
    18
100
AcDbLine
 10
611.021551961
 20
378.2359599548
 30
0.0
 11
601.0215593376
 21
378.2359599548
 31
0.0
  0
LINE
  5
13D
330
1F
100
AcDbEntity
  8
0
  6
Continuous
 62
     7
420
 16777215
370
    18
100
AcDbLine
 10
611.0215593376
 20
384.2359599548
 30
0.0
 11
601.0215593376
 21
384.2359599548
 31
0.0
  0
LINE
  5
13E
330
1F
100
AcDbEntity
  8
0
  6
Continuous
 62
     7
420
 16777215
370
    18
100
AcDbLine
 10
601.0215593376
 20
384.2359599548
 30
0.0
 11
601.0215593376
 21
378.2359599548
 31
0.0
  0
LINE
  5
13F
330
1F
100
AcDbEntity
  8
0
  6
Continuous
 62
     7
420
 16777215
370
    18
100
AcDbLine
 10
620.8155589816
 20
234.999688318
 30
0.0
 11
620.8155589816
 21
374.4420477538
 31
0.0
  0
LINE
  5
140
330
1F
100
AcDbEntity
  8
0
  6
Continuous
 62
     7
420
 16777215
370
    18
100
AcDbLine
 10
614.8155589816
 20
234.999688318
 30
0.0
 11
614.8155589816
 21
374.441986808
 31
0.0
  0
LINE
  5
141
330
1F
100
AcDbEntity
  8
0
  6
Continuous
 62
     7
420
 16777215
370
    18
100
AcDbLine
 10
599.7078762029
 20
222.270867296
 30
0.0
 11
609.7078762029
 21
222.270867296
 31
0.0
  0
LINE
  5
142
330
1F
100
AcDbEntity
  8
0
  6
Continuous
 62
     7
420
 16777215
370
    18
100
AcDbLine
 10
599.7078762029
 20
216.270867296
 30
0.0
 11
609.7078762029
 21
216.270867296
 31
0.0
  0
LINE
  5
143
330
1F
100
AcDbEntity
  8
0
  6
Continuous
 62
     7
420
 16777215
370
    18
100
AcDbLine
 10
609.7078762029
 20
222.270867296
 30
0.0
 11
609.7078762029
 21
216.270867296
 31
0.0
  0
LINE
  5
144
330
1F
100
AcDbEntity
  8
0
  6
Continuous
 62
     7
420
 16777215
370
    18
100
AcDbLine
 10
599.7077889022
 20
369.3011030022
 30
0.0
 11
609.7077889022
 21
369.3011030023
 31
0.0
  0
LINE
  5
145
330
1F
100
AcDbEntity
  8
0
  6
Continuous
 62
     7
420
 16777215
370
    18
100
AcDbLine
 10
599.7077889022
 20
375.3011030022
 30
0.0
 11
609.7077889022
 21
375.3011030022
 31
0.0
  0
LINE
  5
146
330
1F
100
AcDbEntity
  8
0
  6
Continuous
 62
     7
420
 16777215
370
    18
100
AcDbLine
 10
609.7077889022
 20
375.3011030022
 30
0.0
 11
609.7077889022
 21
369.3011030023
 31
0.0
  0
LINE
  5
147
330
1F
100
AcDbEntity
  8
0
  6
Continuous
 62
     7
420
 16777215
370
    18
100
AcDbLine
 10
589.9138765474
 20
365.5071032044
 30
0.0
 11
589.9138765474
 21
355.5071032044
 31
0.0
  0
LINE
  5
148
330
1F
100
AcDbEntity
  8
0
  6
Continuous
 62
     7
420
 16777215
370
    18
100
AcDbLine
 10
595.9138765474
 20
365.5071032044
 30
0.0
 11
595.9138765474
 21
355.5071032044
 31
0.0
  0
LINE
  5
149
330
1F
100
AcDbEntity
  8
0
  6
Continuous
 62
     7
420
 16777215
370
    18
100
AcDbLine
 10
595.9138765474
 20
355.5071032044
 30
0.0
 11
589.9138765474
 21
355.5071032044
 31
0.0
  0
LINE
  5
14A
330
1F
100
AcDbEntity
  8
0
  6
Continuous
 62
     7
420
 16777215
370
    18
100
AcDbLine
 10
595.9138765474
 20
226.0647803586
 30
0.0
 11
595.9138765474
 21
340.5071032044
 31
0.0
  0
LINE
  5
14B
330
1F
100
AcDbEntity
  8
0
  6
Continuous
 62
     7
420
 16777215
370
    18
100
AcDbLine
 10
589.9138765474
 20
226.0647803586
 30
0.0
 11
589.9138765474
 21
340.5071032044
 31
0.0
  0
LINE
  5
14C
330
1F
100
AcDbEntity
  8
0
  6
Continuous
 62
     7
420
 16777215
370
    18
100
AcDbLine
 10
595.9138765474
 20
340.5071032044
 30
0.0
 11
589.9138765474
 21
340.5071032044
 31
0.0
  0
LINE
  5
14D
330
1F
100
AcDbEntity
  8
0
  6
Continuous
 62
     7
420
 16777215
370
    18
100
AcDbLine
 10
711.322686338
 20
30.3356405076
 30
0.0
 11
701.322686338
 21
30.3356405076
 31
0.0
  0
LINE
  5
14E
330
1F
100
AcDbEntity
  8
0
  6
Continuous
 62
     7
420
 16777215
370
    18
100
AcDbLine
 10
711.322686338
 20
36.3356405076
 30
0.0
 11
701.322686338
 21
36.3356405076
 31
0.0
  0
LINE
  5
14F
330
1F
100
AcDbEntity
  8
0
  6
Continuous
 62
     7
420
 16777215
370
    18
100
AcDbLine
 10
701.322686338
 20
36.3356405076
 30
0.0
 11
701.322686338
 21
30.3356405076
 31
0.0
  0
LINE
  5
150
330
1F
100
AcDbEntity
  8
0
  6
Continuous
 62
     7
420
 16777215
370
    18
100
AcDbLine
 10
711.3225936374
 20
183.3659130572
 30
0.0
 11
701.322601014
 21
183.3659130572
 31
0.0
  0
LINE
  5
151
330
1F
100
AcDbEntity
  8
0
  6
Continuous
 62
     7
420
 16777215
370
    18
100
AcDbLine
 10
711.322601014
 20
189.3659130572
 30
0.0
 11
701.322601014
 21
189.3659130572
 31
0.0
  0
LINE
  5
152
330
1F
100
AcDbEntity
  8
0
  6
Continuous
 62
     7
420
 16777215
370
    18
100
AcDbLine
 10
701.322601014
 20
189.3659130572
 30
0.0
 11
701.322601014
 21
183.3659130572
 31
0.0
  0
LINE
  5
153
330
1F
100
AcDbEntity
  8
0
  6
Continuous
 62
     7
420
 16777215
370
    18
100
AcDbLine
 10
721.116600658
 20
40.1296414204
 30
0.0
 11
721.116600658
 21
179.5720008562
 31
0.0
  0
LINE
  5
154
330
1F
100
AcDbEntity
  8
0
  6
Continuous
 62
     7
420
 16777215
370
    18
100
AcDbLine
 10
715.116600658
 20
40.1296414204
 30
0.0
 11
715.116600658
 21
179.5719399104
 31
0.0
  0
LINE
  5
155
330
1F
100
AcDbEntity
  8
0
  6
Continuous
 62
     7
420
 16777215
370
    18
100
AcDbLine
 10
700.0089178793
 20
27.4008203984
 30
0.0
 11
710.0089178793
 21
27.4008203984
 31
0.0
  0
LINE
  5
156
330
1F
100
AcDbEntity
  8
0
  6
Continuous
 62
     7
420
 16777215
370
    18
100
AcDbLine
 10
700.0089178793
 20
21.4008203984
 30
0.0
 11
710.0089178793
 21
21.4008203984
 31
0.0
  0
LINE
  5
157
330
1F
100
AcDbEntity
  8
0
  6
Continuous
 62
     7
420
 16777215
370
    18
100
AcDbLine
 10
710.0089178793
 20
27.4008203984
 30
0.0
 11
710.0089178793
 21
21.4008203984
 31
0.0
  0
LINE
  5
158
330
1F
100
AcDbEntity
  8
0
  6
Continuous
 62
     7
420
 16777215
370
    18
100
AcDbLine
 10
700.0088305786
 20
174.4310561046
 30
0.0
 11
710.0088305786
 21
174.4310561046
 31
0.0
  0
LINE
  5
159
330
1F
100
AcDbEntity
  8
0
  6
Continuous
 62
     7
420
 16777215
370
    18
100
AcDbLine
 10
700.0088305786
 20
180.4310561046
 30
0.0
 11
710.0088305786
 21
180.4310561046
 31
0.0
  0
LINE
  5
15A
330
1F
100
AcDbEntity
  8
0
  6
Continuous
 62
     7
420
 16777215
370
    18
100
AcDbLine
 10
710.0088305786
 20
180.4310561046
 30
0.0
 11
710.0088305786
 21
174.4310561046
 31
0.0
  0
LINE
  5
15B
330
1F
100
AcDbEntity
  8
0
  6
Continuous
 62
     7
420
 16777215
370
    18
100
AcDbLine
 10
690.2149182238
 20
170.6370563068
 30
0.0
 11
690.2149182238
 21
31.194733461
 31
0.0
  0
LINE
  5
15C
330
1F
100
AcDbEntity
  8
0
  6
Continuous
 62
     7
420
 16777215
370
    18
100
AcDbLine
 10
696.2149182238
 20
170.6370563068
 30
0.0
 11
696.2149182238
 21
31.194733461
 31
0.0
  0
LINE
  5
15D
330
1F
100
AcDbEntity
  8
0
  6
Continuous
 62
     7
420
 16777215
370
    18
100
AcDbLine
 10
672.8841067225
 20
18.6821804858
 30
0.0
 11
666.8841067225
 21
18.6821804858
 31
0.0
  0
LINE
  5
15E
330
1F
100
AcDbEntity
  8
0
  6
Continuous
 62
     7
420
 16777215
370
    18
100
AcDbLine
 10
672.8803541076
 20
423.1162690512
 30
0.0
 11
666.8803541076
 21
423.1162690512
 31
0.0
  0
LINE
  5
15F
330
1F
100
AcDbEntity
  8
0
  6
Continuous
 62
     7
420
 16777215
370
    18
100
AcDbLine
 10
650.5347841501
 20
422.2974174744
 30
0.0
 11
650.5385367651
 21
17.8633289089
 31
0.0
  0
LINE
  5
160
330
1F
100
AcDbEntity
  8
0
  6
Continuous
 62
     7
420
 16777215
370
    18
100
AcDbLine
 10
666.8803541076
 20
423.1162690512
 30
0.0
 11
666.8803541076
 21
378.1162690512
 31
0.0
  0
LINE
  5
161
330
1F
100
AcDbEntity
  8
0
  6
Continuous
 62
     7
420
 16777215
370
    18
100
AcDbLine
 10
644.5385367651
 20
17.8633289089
 30
0.0
 11
644.5347841501
 21
422.2974174744
 31
0.0
  0
LINE
  5
162
330
1F
100
AcDbEntity
  8
0
  6
Continuous
 62
     7
420
 16777215
370
    18
100
AcDbLine
 10
650.5385367651
 20
17.8633289089
 30
0.0
 11
644.5385367651
 21
17.8633289089
 31
0.0
  0
LINE
  5
163
330
1F
100
AcDbEntity
  8
0
  6
Continuous
 62
     7
420
 16777215
370
    18
100
AcDbLine
 10
650.5347841501
 20
422.2974174744
 30
0.0
 11
644.5347841501
 21
422.2974174744
 31
0.0
  0
LINE
  5
164
330
1F
100
AcDbEntity
  8
0
  6
Continuous
 62
     7
420
 16777215
370
    18
100
AcDbLine
 10
672.8803541076
 20
423.1162690512
 30
0.0
 11
672.8803541076
 21
378.1162690512
 31
0.0
  0
LINE
  5
165
330
1F
100
AcDbEntity
  8
0
  6
Continuous
 62
     7
420
 16777215
370
    18
100
AcDbLine
 10
661.7350739254
 20
17.7522715922
 30
0.0
 11
661.7312844671
 21
422.1863621343
 31
0.0
  0
LINE
  5
166
330
1F
100
AcDbEntity
  8
0
  6
Continuous
 62
     7
420
 16777215
370
    18
100
AcDbLine
 10
655.7312844671
 20
422.1863621343
 30
0.0
 11
655.7350739254
 21
17.7522715922
 31
0.0
  0
LINE
  5
167
330
1F
100
AcDbEntity
  8
0
  6
Continuous
 62
     7
420
 16777215
370
    18
100
AcDbLine
 10
661.7350739254
 20
17.7522715922
 30
0.0
 11
655.7350739254
 21
17.7522715922
 31
0.0
  0
LINE
  5
168
330
1F
100
AcDbEntity
  8
0
  6
Continuous
 62
     7
420
 16777215
370
    18
100
AcDbLine
 10
661.7312844671
 20
422.1863621343
 30
0.0
 11
655.7312844671
 21
422.1863621343
 31
0.0
  0
LINE
  5
169
330
1F
100
AcDbEntity
  8
0
  6
Continuous
 62
     7
420
 16777215
370
    18
100
AcDbLine
 10
672.8803541076
 20
378.1162690512
 30
0.0
 11
666.8803541076
 21
378.1162690512
 31
0.0
  0
LINE
  5
16A
330
1F
100
AcDbEntity
  8
0
  6
Continuous
 62
     7
420
 16777215
370
    18
100
AcDbLine
 10
666.8803541076
 20
360.1162690512
 30
0.0
 11
672.8803541076
 21
360.1162690512
 31
0.0
  0
LINE
  5
16B
330
1F
100
AcDbEntity
  8
0
  6
Continuous
 62
     7
420
 16777215
370
    18
100
AcDbLine
 10
666.8803541076
 20
360.1162690512
 30
0.0
 11
666.8841067225
 21
18.6821804858
 31
0.0
  0
LINE
  5
16C
330
1F
100
AcDbEntity
  8
0
  6
Continuous
 62
     7
420
 16777215
370
    18
100
AcDbLine
 10
672.8841067225
 20
18.6821804858
 30
0.0
 11
672.8803541076
 21
360.1162690512
 31
0.0
  0
LINE
  5
16D
330
1F
100
AcDbEntity
  8
0
  6
Continuous
 62
     7
420
 16777215
370
    18
100
AcDbLine
 10
683.7631862433
 20
18.0404992641
 30
0.0
 11
677.7631862433
 21
18.0404992641
 31
0.0
  0
LINE
  5
16E
330
1F
100
AcDbEntity
  8
0
  6
Continuous
 62
     7
420
 16777215
370
    18
100
AcDbLine
 10
683.759396785
 20
422.4745898061
 30
0.0
 11
677.759396785
 21
422.4745898061
 31
0.0
  0
LINE
  5
16F
330
1F
100
AcDbEntity
  8
0
  6
Continuous
 62
     7
420
 16777215
370
    18
100
AcDbLine
 10
677.759396785
 20
422.4745898061
 30
0.0
 11
677.7631862433
 21
18.0404992641
 31
0.0
  0
LINE
  5
170
330
1F
100
AcDbEntity
  8
0
  6
Continuous
 62
     7
420
 16777215
370
    18
100
AcDbLine
 10
683.7631862433
 20
18.0404992641
 30
0.0
 11
683.759396785
 21
422.4745898061
 31
0.0
  0
LINE
  5
171
330
1F
100
AcDbEntity
  8
0
  6
Continuous
 62
     7
420
 16777215
370
    18
100
AcDbLine
 10
711.3471022593
 20
224.1151933009
 30
0.0
 11
701.3471022593
 21
224.1151933009
 31
0.0
  0
LINE
  5
172
330
1F
100
AcDbEntity
  8
0
  6
Continuous
 62
     7
420
 16777215
370
    18
100
AcDbLine
 10
711.3471022593
 20
230.1151933009
 30
0.0
 11
701.3471022593
 21
230.1151933009
 31
0.0
  0
LINE
  5
173
330
1F
100
AcDbEntity
  8
0
  6
Continuous
 62
     7
420
 16777215
370
    18
100
AcDbLine
 10
701.3471022593
 20
230.1151933009
 30
0.0
 11
701.3471022593
 21
224.1151933009
 31
0.0
  0
LINE
  5
174
330
1F
100
AcDbEntity
  8
0
  6
Continuous
 62
     7
420
 16777215
370
    18
100
AcDbLine
 10
711.3470095587
 20
377.1454658505
 30
0.0
 11
701.3470169353
 21
377.1454658505
 31
0.0
  0
LINE
  5
175
330
1F
100
AcDbEntity
  8
0
  6
Continuous
 62
     7
420
 16777215
370
    18
100
AcDbLine
 10
711.3470169353
 20
383.1454658505
 30
0.0
 11
701.3470169353
 21
383.1454658505
 31
0.0
  0
LINE
  5
176
330
1F
100
AcDbEntity
  8
0
  6
Continuous
 62
     7
420
 16777215
370
    18
100
AcDbLine
 10
701.3470169353
 20
383.1454658505
 30
0.0
 11
701.3470169353
 21
377.1454658505
 31
0.0
  0
LINE
  5
177
330
1F
100
AcDbEntity
  8
0
  6
Continuous
 62
     7
420
 16777215
370
    18
100
AcDbLine
 10
721.1410165793
 20
233.9091942137
 30
0.0
 11
721.1410165793
 21
373.3515536495
 31
0.0
  0
LINE
  5
178
330
1F
100
AcDbEntity
  8
0
  6
Continuous
 62
     7
420
 16777215
370
    18
100
AcDbLine
 10
715.1410165793
 20
233.9091942137
 30
0.0
 11
715.1410165793
 21
373.3514927037
 31
0.0
  0
LINE
  5
179
330
1F
100
AcDbEntity
  8
0
  6
Continuous
 62
     7
420
 16777215
370
    18
100
AcDbLine
 10
700.0333338006
 20
221.1803731916
 30
0.0
 11
710.0333338006
 21
221.1803731916
 31
0.0
  0
LINE
  5
17A
330
1F
100
AcDbEntity
  8
0
  6
Continuous
 62
     7
420
 16777215
370
    18
100
AcDbLine
 10
700.0333338006
 20
215.1803731916
 30
0.0
 11
710.0333338006
 21
215.1803731916
 31
0.0
  0
LINE
  5
17B
330
1F
100
AcDbEntity
  8
0
  6
Continuous
 62
     7
420
 16777215
370
    18
100
AcDbLine
 10
710.0333338006
 20
221.1803731916
 30
0.0
 11
710.0333338006
 21
215.1803731916
 31
0.0
  0
LINE
  5
17C
330
1F
100
AcDbEntity
  8
0
  6
Continuous
 62
     7
420
 16777215
370
    18
100
AcDbLine
 10
700.0332464999
 20
368.2106088979
 30
0.0
 11
710.0332464999
 21
368.2106088979
 31
0.0
  0
LINE
  5
17D
330
1F
100
AcDbEntity
  8
0
  6
Continuous
 62
     7
420
 16777215
370
    18
100
AcDbLine
 10
700.0332464999
 20
374.2106088979
 30
0.0
 11
710.0332464999
 21
374.2106088979
 31
0.0
  0
LINE
  5
17E
330
1F
100
AcDbEntity
  8
0
  6
Continuous
 62
     7
420
 16777215
370
    18
100
AcDbLine
 10
710.0332464999
 20
374.2106088979
 30
0.0
 11
710.0332464999
 21
368.2106088979
 31
0.0
  0
LINE
  5
17F
330
1F
100
AcDbEntity
  8
0
  6
Continuous
 62
     7
420
 16777215
370
    18
100
AcDbLine
 10
690.2393341451
 20
364.4166091001
 30
0.0
 11
690.2393341451
 21
354.4166091001
 31
0.0
  0
LINE
  5
180
330
1F
100
AcDbEntity
  8
0
  6
Continuous
 62
     7
420
 16777215
370
    18
100
AcDbLine
 10
696.2393341451
 20
364.4166091001
 30
0.0
 11
696.2393341451
 21
354.4166091001
 31
0.0
  0
LINE
  5
181
330
1F
100
AcDbEntity
  8
0
  6
Continuous
 62
     7
420
 16777215
370
    18
100
AcDbLine
 10
696.2393341451
 20
354.4166091001
 30
0.0
 11
690.2393341451
 21
354.4166091001
 31
0.0
  0
LINE
  5
182
330
1F
100
AcDbEntity
  8
0
  6
Continuous
 62
     7
420
 16777215
370
    18
100
AcDbLine
 10
696.2393341451
 20
224.9742862543
 30
0.0
 11
696.2393341451
 21
339.4166091001
 31
0.0
  0
LINE
  5
183
330
1F
100
AcDbEntity
  8
0
  6
Continuous
 62
     7
420
 16777215
370
    18
100
AcDbLine
 10
690.2393341451
 20
224.9742862543
 30
0.0
 11
690.2393341451
 21
339.4166091001
 31
0.0
  0
LINE
  5
184
330
1F
100
AcDbEntity
  8
0
  6
Continuous
 62
     7
420
 16777215
370
    18
100
AcDbLine
 10
696.2393341451
 20
339.4166091001
 30
0.0
 11
690.2393341451
 21
339.4166091001
 31
0.0
  0
LINE
  5
185
330
1F
100
AcDbEntity
  8
0
  6
Continuous
 62
     7
420
 16777215
370
    18
100
AcDbLine
 10
97.9414013235
 20
185.9561250475
 30
0.0
 11
87.9414013235
 21
185.9561250475
 31
0.0
  0
LINE
  5
186
330
1F
100
AcDbEntity
  8
0
  6
Continuous
 62
     7
420
 16777215
370
    18
100
AcDbLine
 10
512.375489889
 20
185.9598776624
 30
0.0
 11
502.375489889
 21
185.9598776624
 31
0.0
  0
LINE
  5
187
330
1F
100
AcDbEntity
  8
0
  6
Continuous
 62
     7
420
 16777215
370
    18
100
AcDbLine
 10
512.3755771896
 20
26.9296419561
 30
0.0
 11
502.3755771896
 21
26.9296419561
 31
0.0
  0
LINE
  5
188
330
1F
100
AcDbEntity
  8
0
  6
Continuous
 62
     7
420
 16777215
370
    18
100
AcDbLine
 10
502.375489889
 20
185.9598776624
 30
0.0
 11
457.375489889
 21
185.9598776624
 31
0.0
  0
LINE
  5
189
330
1F
100
AcDbEntity
  8
0
  6
Continuous
 62
     7
420
 16777215
370
    18
100
AcDbLine
 10
87.1162663051
 20
353.9779820402
 30
0.0
 11
97.1162663051
 21
353.9779820402
 31
0.0
  0
LINE
  5
18A
330
1F
100
AcDbEntity
  8
0
  6
Continuous
 62
     7
420
 16777215
370
    18
100
AcDbLine
 10
87.1163516291
 20
194.9477094906
 30
0.0
 11
97.1163516291
 21
194.9477094906
 31
0.0
  0
LINE
  5
18B
330
1F
100
AcDbEntity
  8
0
  6
Continuous
 62
     7
420
 16777215
370
    18
100
AcDbLine
 10
511.5503548705
 20
353.9817346551
 30
0.0
 11
501.5503548705
 21
353.9817346551
 31
0.0
  0
LINE
  5
18C
330
1F
100
AcDbEntity
  8
0
  6
Continuous
 62
     7
420
 16777215
370
    18
100
AcDbLine
 10
511.5504421712
 20
194.9514989489
 30
0.0
 11
501.5504421712
 21
194.9514989489
 31
0.0
  0
LINE
  5
18D
330
1F
100
AcDbEntity
  8
0
  6
Continuous
 62
     7
420
 16777215
370
    18
100
AcDbLine
 10
97.1162663051
 20
353.9779820402
 30
0.0
 11
501.5503548705
 21
353.9817346551
 31
0.0
  0
LINE
  5
18E
330
1F
100
AcDbEntity
  8
0
  6
Continuous
 62
     7
420
 16777215
370
    18
100
AcDbLine
 10
97.1163516291
 20
194.9477094906
 30
0.0
 11
501.5504421712
 21
194.9514989489
 31
0.0
  0
LINE
  5
18F
330
1F
100
AcDbEntity
  8
0
  6
Continuous
 62
     7
420
 16777215
370
    18
100
AcDbLine
 10
77.3223519851
 20
344.1839811274
 30
0.0
 11
77.3223519851
 21
204.7416216916
 31
0.0
  0
LINE
  5
190
330
1F
100
AcDbEntity
  8
0
  6
Continuous
 62
     7
420
 16777215
370
    18
100
AcDbLine
 10
521.344354526
 20
204.7454987467
 30
0.0
 11
521.344354526
 21
344.1878215925
 31
0.0
  0
LINE
  5
191
330
1F
100
AcDbEntity
  8
0
  6
Continuous
 62
     7
420
 16777215
370
    18
100
AcDbLine
 10
97.9414866475
 20
26.9258524978
 30
0.0
 11
502.3755771896
 21
26.9296419561
 31
0.0
  0
LINE
  5
192
330
1F
100
AcDbEntity
  8
0
  6
Continuous
 62
     7
420
 16777215
370
    18
100
AcDbLine
 10
522.1694895445
 20
36.723641754
 30
0.0
 11
522.1694895445
 21
46.723641754
 31
0.0
  0
LINE
  5
193
330
1F
100
AcDbEntity
  8
0
  6
Continuous
 62
     7
420
 16777215
370
    18
100
AcDbLine
 10
439.375489889
 20
185.9598776624
 30
0.0
 11
97.9414013235
 21
185.9561250475
 31
0.0
  0
LINE
  5
194
330
1F
100
AcDbEntity
  8
0
  6
Continuous
 62
     7
420
 16777215
370
    18
100
AcDbLine
 10
78.1474870035
 20
176.1621241347
 30
0.0
 11
78.1474870035
 21
36.7197646989
 31
0.0
  0
LINE
  5
195
330
1F
100
AcDbEntity
  8
0
  6
Continuous
 62
     7
420
 16777215
370
    18
100
AcDbLine
 10
522.1694895445
 20
176.1659645997
 30
0.0
 11
522.1694895445
 21
61.723641754
 31
0.0
  0
LINE
  5
196
330
1F
100
AcDbEntity
  8
0
  6
Continuous
 62
     7
420
 16777215
370
    18
100
AcDbLine
 10
115.3791198763
 20
383.3694333313
 30
0.0
 11
115.3791198763
 21
393.3694333313
 31
0.0
  0
LINE
  5
197
330
1F
100
AcDbEntity
  8
0
  6
Continuous
 62
     7
420
 16777215
370
    18
100
AcDbLine
 10
121.3791198763
 20
383.3694333313
 30
0.0
 11
121.3791198763
 21
393.3694333313
 31
0.0
  0
LINE
  5
198
330
1F
100
AcDbEntity
  8
0
  6
Continuous
 62
     7
420
 16777215
370
    18
100
AcDbLine
 10
121.3791198763
 20
393.3694333313
 30
0.0
 11
115.3791198763
 21
393.3694333313
 31
0.0
  0
LINE
  5
199
330
1F
100
AcDbEntity
  8
0
  6
Continuous
 62
     7
420
 16777215
370
    18
100
AcDbLine
 10
268.4093924259
 20
383.3695260319
 30
0.0
 11
268.4093924259
 21
393.3695186553
 31
0.0
  0
LINE
  5
19A
330
1F
100
AcDbEntity
  8
0
  6
Continuous
 62
     7
420
 16777215
370
    18
100
AcDbLine
 10
274.4093924259
 20
383.3695186553
 30
0.0
 11
274.4093924259
 21
393.3695186553
 31
0.0
  0
LINE
  5
19B
330
1F
100
AcDbEntity
  8
0
  6
Continuous
 62
     7
420
 16777215
370
    18
100
AcDbLine
 10
274.4093924259
 20
393.3695186553
 30
0.0
 11
268.4093924259
 21
393.3695186553
 31
0.0
  0
LINE
  5
19C
330
1F
100
AcDbEntity
  8
0
  6
Continuous
 62
     7
420
 16777215
370
    18
100
AcDbLine
 10
125.1731207891
 20
373.5755190113
 30
0.0
 11
264.6154802249
 21
373.5755190113
 31
0.0
  0
LINE
  5
19D
330
1F
100
AcDbEntity
  8
0
  6
Continuous
 62
     7
420
 16777215
370
    18
100
AcDbLine
 10
125.1731207891
 20
379.5755190113
 30
0.0
 11
264.6154192791
 21
379.5755190113
 31
0.0
  0
LINE
  5
19E
330
1F
100
AcDbEntity
  8
0
  6
Continuous
 62
     7
420
 16777215
370
    18
100
AcDbLine
 10
112.4442997671
 20
394.68320179
 30
0.0
 11
112.4442997671
 21
384.68320179
 31
0.0
  0
LINE
  5
19F
330
1F
100
AcDbEntity
  8
0
  6
Continuous
 62
     7
420
 16777215
370
    18
100
AcDbLine
 10
106.4442997671
 20
394.68320179
 30
0.0
 11
106.4442997671
 21
384.68320179
 31
0.0
  0
LINE
  5
1A0
330
1F
100
AcDbEntity
  8
0
  6
Continuous
 62
     7
420
 16777215
370
    18
100
AcDbLine
 10
112.4442997671
 20
384.68320179
 30
0.0
 11
106.4442997671
 21
384.68320179
 31
0.0
  0
LINE
  5
1A1
330
1F
100
AcDbEntity
  8
0
  6
Continuous
 62
     7
420
 16777215
370
    18
100
AcDbLine
 10
259.4745354734
 20
394.6832890907
 30
0.0
 11
259.4745354734
 21
384.6832890907
 31
0.0
  0
LINE
  5
1A2
330
1F
100
AcDbEntity
  8
0
  6
Continuous
 62
     7
420
 16777215
370
    18
100
AcDbLine
 10
265.4745354734
 20
394.6832890907
 30
0.0
 11
265.4745354734
 21
384.6832890907
 31
0.0
  0
LINE
  5
1A3
330
1F
100
AcDbEntity
  8
0
  6
Continuous
 62
     7
420
 16777215
370
    18
100
AcDbLine
 10
265.4745354734
 20
384.6832890907
 30
0.0
 11
259.4745354734
 21
384.6832890907
 31
0.0
  0
LINE
  5
1A4
330
1F
100
AcDbEntity
  8
0
  6
Continuous
 62
     7
420
 16777215
370
    18
100
AcDbLine
 10
255.6805356755
 20
404.4772014455
 30
0.0
 11
116.2382128298
 21
404.4772014455
 31
0.0
  0
LINE
  5
1A5
330
1F
100
AcDbEntity
  8
0
  6
Continuous
 62
     7
420
 16777215
370
    18
100
AcDbLine
 10
255.6805356755
 20
398.4772014455
 30
0.0
 11
116.2382128298
 21
398.4772014455
 31
0.0
  0
LINE
  5
1A6
330
1F
100
AcDbEntity
  8
0
  6
Continuous
 62
     7
420
 16777215
370
    18
100
AcDbLine
 10
103.7256598545
 20
421.8080129468
 30
0.0
 11
103.7256598545
 21
427.8080129468
 31
0.0
  0
LINE
  5
1A7
330
1F
100
AcDbEntity
  8
0
  6
Continuous
 62
     7
420
 16777215
370
    18
100
AcDbLine
 10
508.15974842
 20
421.8117655617
 30
0.0
 11
508.15974842
 21
427.8117655617
 31
0.0
  0
LINE
  5
1A8
330
1F
100
AcDbEntity
  8
0
  6
Continuous
 62
     7
420
 16777215
370
    18
100
AcDbLine
 10
507.3408968431
 20
444.1573355192
 30
0.0
 11
102.9068082776
 21
444.1535829042
 31
0.0
  0
LINE
  5
1A9
330
1F
100
AcDbEntity
  8
0
  6
Continuous
 62
     7
420
 16777215
370
    18
100
AcDbLine
 10
508.15974842
 20
427.8117655617
 30
0.0
 11
463.15974842
 21
427.8117655617
 31
0.0
  0
LINE
  5
1AA
330
1F
100
AcDbEntity
  8
0
  6
Continuous
 62
     7
420
 16777215
370
    18
100
AcDbLine
 10
102.9068082776
 20
450.1535829042
 30
0.0
 11
507.3408968431
 21
450.1573355192
 31
0.0
  0
LINE
  5
1AB
330
1F
100
AcDbEntity
  8
0
  6
Continuous
 62
     7
420
 16777215
370
    18
100
AcDbLine
 10
102.9068082776
 20
444.1535829042
 30
0.0
 11
102.9068082776
 21
450.1535829042
 31
0.0
  0
LINE
  5
1AC
330
1F
100
AcDbEntity
  8
0
  6
Continuous
 62
     7
420
 16777215
370
    18
100
AcDbLine
 10
507.3408968431
 20
444.1573355192
 30
0.0
 11
507.3408968431
 21
450.1573355192
 31
0.0
  0
LINE
  5
1AD
330
1F
100
AcDbEntity
  8
0
  6
Continuous
 62
     7
420
 16777215
370
    18
100
AcDbLine
 10
508.15974842
 20
421.8117655617
 30
0.0
 11
463.15974842
 21
421.8117655617
 31
0.0
  0
LINE
  5
1AE
330
1F
100
AcDbEntity
  8
0
  6
Continuous
 62
     7
420
 16777215
370
    18
100
AcDbLine
 10
102.7957509609
 20
432.9570457439
 30
0.0
 11
507.229841503
 21
432.9608352022
 31
0.0
  0
LINE
  5
1AF
330
1F
100
AcDbEntity
  8
0
  6
Continuous
 62
     7
420
 16777215
370
    18
100
AcDbLine
 10
507.229841503
 20
438.9608352022
 30
0.0
 11
102.7957509609
 21
438.9570457439
 31
0.0
  0
LINE
  5
1B0
330
1F
100
AcDbEntity
  8
0
  6
Continuous
 62
     7
420
 16777215
370
    18
100
AcDbLine
 10
102.7957509609
 20
432.9570457439
 30
0.0
 11
102.7957509609
 21
438.9570457439
 31
0.0
  0
LINE
  5
1B1
330
1F
100
AcDbEntity
  8
0
  6
Continuous
 62
     7
420
 16777215
370
    18
100
AcDbLine
 10
507.229841503
 20
432.9608352022
 30
0.0
 11
507.229841503
 21
438.9608352022
 31
0.0
  0
LINE
  5
1B2
330
1F
100
AcDbEntity
  8
0
  6
Continuous
 62
     7
420
 16777215
370
    18
100
AcDbLine
 10
463.15974842
 20
421.8117655617
 30
0.0
 11
463.15974842
 21
427.8117655617
 31
0.0
  0
LINE
  5
1B3
330
1F
100
AcDbEntity
  8
0
  6
Continuous
 62
     7
420
 16777215
370
    18
100
AcDbLine
 10
445.15974842
 20
427.8117655617
 30
0.0
 11
445.15974842
 21
421.8117655617
 31
0.0
  0
LINE
  5
1B4
330
1F
100
AcDbEntity
  8
0
  6
Continuous
 62
     7
420
 16777215
370
    18
100
AcDbLine
 10
445.15974842
 20
427.8117655617
 30
0.0
 11
103.7256598545
 21
427.8080129468
 31
0.0
  0
LINE
  5
1B5
330
1F
100
AcDbEntity
  8
0
  6
Continuous
 62
     7
420
 16777215
370
    18
100
AcDbLine
 10
103.7256598545
 20
421.8080129468
 30
0.0
 11
445.15974842
 21
421.8117655617
 31
0.0
  0
LINE
  5
1B6
330
1F
100
AcDbEntity
  8
0
  6
Continuous
 62
     7
420
 16777215
370
    18
100
AcDbLine
 10
103.0839786328
 20
410.928933426
 30
0.0
 11
103.0839786328
 21
416.928933426
 31
0.0
  0
LINE
  5
1B7
330
1F
100
AcDbEntity
  8
0
  6
Continuous
 62
     7
420
 16777215
370
    18
100
AcDbLine
 10
507.5180691749
 20
410.9327228843
 30
0.0
 11
507.5180691749
 21
416.9327228843
 31
0.0
  0
LINE
  5
1B8
330
1F
100
AcDbEntity
  8
0
  6
Continuous
 62
     7
420
 16777215
370
    18
100
AcDbLine
 10
507.5180691749
 20
416.9327228843
 30
0.0
 11
103.0839786328
 21
416.928933426
 31
0.0
  0
LINE
  5
1B9
330
1F
100
AcDbEntity
  8
0
  6
Continuous
 62
     7
420
 16777215
370
    18
100
AcDbLine
 10
103.0839786328
 20
410.928933426
 30
0.0
 11
507.5180691749
 21
410.9327228843
 31
0.0
  0
LINE
  5
1BA
330
1F
100
AcDbEntity
  8
0
  6
Continuous
 62
     7
420
 16777215
370
    18
100
AcDbLine
 10
309.1586726696
 20
383.34501741
 30
0.0
 11
309.1586726696
 21
393.34501741
 31
0.0
  0
LINE
  5
1BB
330
1F
100
AcDbEntity
  8
0
  6
Continuous
 62
     7
420
 16777215
370
    18
100
AcDbLine
 10
315.1586726696
 20
383.34501741
 30
0.0
 11
315.1586726696
 21
393.34501741
 31
0.0
  0
LINE
  5
1BC
330
1F
100
AcDbEntity
  8
0
  6
Continuous
 62
     7
420
 16777215
370
    18
100
AcDbLine
 10
315.1586726696
 20
393.34501741
 30
0.0
 11
309.1586726696
 21
393.34501741
 31
0.0
  0
LINE
  5
1BD
330
1F
100
AcDbEntity
  8
0
  6
Continuous
 62
     7
420
 16777215
370
    18
100
AcDbLine
 10
462.1889452192
 20
383.3451101106
 30
0.0
 11
462.1889452192
 21
393.345102734
 31
0.0
  0
LINE
  5
1BE
330
1F
100
AcDbEntity
  8
0
  6
Continuous
 62
     7
420
 16777215
370
    18
100
AcDbLine
 10
468.1889452192
 20
383.345102734
 30
0.0
 11
468.1889452192
 21
393.345102734
 31
0.0
  0
LINE
  5
1BF
330
1F
100
AcDbEntity
  8
0
  6
Continuous
 62
     7
420
 16777215
370
    18
100
AcDbLine
 10
468.1889452192
 20
393.345102734
 30
0.0
 11
462.1889452192
 21
393.345102734
 31
0.0
  0
LINE
  5
1C0
330
1F
100
AcDbEntity
  8
0
  6
Continuous
 62
     7
420
 16777215
370
    18
100
AcDbLine
 10
318.9526735824
 20
373.55110309
 30
0.0
 11
458.3950330182
 21
373.55110309
 31
0.0
  0
LINE
  5
1C1
330
1F
100
AcDbEntity
  8
0
  6
Continuous
 62
     7
420
 16777215
370
    18
100
AcDbLine
 10
318.9526735824
 20
379.55110309
 30
0.0
 11
458.3949720724
 21
379.55110309
 31
0.0
  0
LINE
  5
1C2
330
1F
100
AcDbEntity
  8
0
  6
Continuous
 62
     7
420
 16777215
370
    18
100
AcDbLine
 10
306.2238525604
 20
394.6587858687
 30
0.0
 11
306.2238525604
 21
384.6587858687
 31
0.0
  0
LINE
  5
1C3
330
1F
100
AcDbEntity
  8
0
  6
Continuous
 62
     7
420
 16777215
370
    18
100
AcDbLine
 10
300.2238525604
 20
394.6587858687
 30
0.0
 11
300.2238525604
 21
384.6587858687
 31
0.0
  0
LINE
  5
1C4
330
1F
100
AcDbEntity
  8
0
  6
Continuous
 62
     7
420
 16777215
370
    18
100
AcDbLine
 10
306.2238525604
 20
384.6587858687
 30
0.0
 11
300.2238525604
 21
384.6587858687
 31
0.0
  0
LINE
  5
1C5
330
1F
100
AcDbEntity
  8
0
  6
Continuous
 62
     7
420
 16777215
370
    18
100
AcDbLine
 10
453.2540882667
 20
394.6588731694
 30
0.0
 11
453.2540882667
 21
384.6588731694
 31
0.0
  0
LINE
  5
1C6
330
1F
100
AcDbEntity
  8
0
  6
Continuous
 62
     7
420
 16777215
370
    18
100
AcDbLine
 10
459.2540882667
 20
394.6588731694
 30
0.0
 11
459.2540882667
 21
384.6588731694
 31
0.0
  0
LINE
  5
1C7
330
1F
100
AcDbEntity
  8
0
  6
Continuous
 62
     7
420
 16777215
370
    18
100
AcDbLine
 10
459.2540882667
 20
384.6588731694
 30
0.0
 11
453.2540882667
 21
384.6588731694
 31
0.0
  0
LINE
  5
1C8
330
1F
100
AcDbEntity
  8
0
  6
Continuous
 62
     7
420
 16777215
370
    18
100
AcDbLine
 10
449.4600884688
 20
404.4527855242
 30
0.0
 11
439.4600884688
 21
404.4527855242
 31
0.0
  0
LINE
  5
1C9
330
1F
100
AcDbEntity
  8
0
  6
Continuous
 62
     7
420
 16777215
370
    18
100
AcDbLine
 10
449.4600884688
 20
398.4527855242
 30
0.0
 11
439.4600884688
 21
398.4527855242
 31
0.0
  0
LINE
  5
1CA
330
1F
100
AcDbEntity
  8
0
  6
Continuous
 62
     7
420
 16777215
370
    18
100
AcDbLine
 10
439.4600884688
 20
398.4527855242
 30
0.0
 11
439.4600884688
 21
404.4527855242
 31
0.0
  0
LINE
  5
1CB
330
1F
100
AcDbEntity
  8
0
  6
Continuous
 62
     7
420
 16777215
370
    18
100
AcDbLine
 10
310.017765623
 20
398.4527855242
 30
0.0
 11
424.4600884688
 21
398.4527855242
 31
0.0
  0
LINE
  5
1CC
330
1F
100
AcDbEntity
  8
0
  6
Continuous
 62
     7
420
 16777215
370
    18
100
AcDbLine
 10
310.017765623
 20
404.4527855242
 30
0.0
 11
424.4600884688
 21
404.4527855242
 31
0.0
  0
LINE
  5
1CD
330
1F
100
AcDbEntity
  8
0
  6
Continuous
 62
     7
420
 16777215
370
    18
100
AcDbLine
 10
424.4600884688
 20
398.4527855242
 30
0.0
 11
424.4600884688
 21
404.4527855242
 31
0.0
  0
LINE
  5
1CE
330
1F
100
AcDbEntity
  8
0
  6
Continuous
 62
     7
420
 16777215
370
    18
100
AcDbLine
 10
89.6967329235
 20
171.3711251747
 30
0.0
 11
448.3086334235
 21
171.3711251747
 31
0.0
  0
LINE
  5
1CF
330
1F
100
AcDbEntity
  8
0
  6
Continuous
 62
     7
420
 16777215
370
    18
100
AcDbLine
 10
89.6967329235
 20
171.3711251747
 30
0.0
 11
89.6967329235
 21
42.5948272947
 31
0.0
  0
LINE
  5
1D0
330
1F
100
AcDbEntity
  8
0
  6
Continuous
 62
     7
420
 16777215
370
    18
100
AcDbLine
 10
89.6967329235
 20
42.5948272947
 30
0.0
 11
448.3086334235
 21
42.5948272947
 31
0.0
  0
LINE
  5
1D1
330
1F
100
AcDbEntity
  8
0
  6
Continuous
 62
     7
420
 16777215
370
    18
100
AcDbLine
 10
448.3086334235
 20
171.3711251747
 30
0.0
 11
448.3086334235
 21
42.5948272947
 31
0.0
  0
CIRCLE
  5
1D2
330
1F
100
AcDbEntity
  8
0
  6
Continuous
 62
     7
420
 16777215
370
    18
100
AcDbCircle
 10
-98.2278150462
 20
547.246441919
 30
0.0
 40
4.000000000000241
  0
CIRCLE
  5
1D3
330
1F
100
AcDbEntity
  8
0
  6
Continuous
 62
     7
420
 16777215
370
    18
100
AcDbCircle
 10
10.9311843138
 20
547.246441919
 30
0.0
 40
4.00000000000006
  0
CIRCLE
  5
1D4
330
1F
100
AcDbEntity
  8
0
  6
Continuous
 62
     7
420
 16777215
370
    18
100
AcDbCircle
 10
96.6561843138
 20
547.246441919
 30
0.0
 40
4.000000000000004
  0
CIRCLE
  5
1D5
330
1F
100
AcDbEntity
  8
0
  6
Continuous
 62
     7
420
 16777215
370
    18
100
AcDbCircle
 10
231.7721853538
 20
547.246441919
 30
0.0
 40
4.000000000000023
  0
CIRCLE
  5
1D6
330
1F
100
AcDbEntity
  8
0
  6
Continuous
 62
     7
420
 16777215
370
    18
100
AcDbCircle
 10
656.3961430283
 20
565.1228391102
 30
0.0
 40
3.99999999999999
  0
CIRCLE
  5
1D7
330
1F
100
AcDbEntity
  8
0
  6
Continuous
 62
     7
420
 16777215
370
    18
100
AcDbCircle
 10
521.2801419883
 20
550.4878391702
 30
0.0
 40
3.99999999999999
  0
CIRCLE
  5
1D8
330
1F
100
AcDbEntity
  8
0
  6
Continuous
 62
     7
420
 16777215
370
    18
100
AcDbCircle
 10
435.5551419883
 20
550.4878391702
 30
0.0
 40
3.99999999999999
  0
CIRCLE
  5
1D9
330
1F
100
AcDbEntity
  8
0
  6
Continuous
 62
     7
420
 16777215
370
    18
100
AcDbCircle
 10
326.3961426283
 20
565.1228391102
 30
0.0
 40
3.99999999999999
  0
CIRCLE
  5
1DA
330
1F
100
AcDbEntity
  8
0
  6
Continuous
 62
     7
420
 16777215
370
    18
100
AcDbCircle
 10
716.228353886
 20
491.2595771265
 30
0.0
 40
4.000000000000007
  0
CIRCLE
  5
1DB
330
1F
100
AcDbEntity
  8
0
  6
Continuous
 62
     7
420
 16777215
370
    18
100
AcDbCircle
 10
607.069354526
 20
491.2595771265
 30
0.0
 40
4.000000000000023
  0
CIRCLE
  5
1DC
330
1F
100
AcDbEntity
  8
0
  6
Continuous
 62
     7
420
 16777215
370
    18
100
AcDbCircle
 10
521.344354526
 20
491.2595771265
 30
0.0
 40
4.000000000000099
  0
CIRCLE
  5
1DD
330
1F
100
AcDbEntity
  8
0
  6
Continuous
 62
     7
420
 16777215
370
    18
100
AcDbCircle
 10
386.228353486
 20
491.2595771265
 30
0.0
 40
3.999999999999973
  0
CIRCLE
  5
1DE
330
1F
100
AcDbEntity
  8
0
  6
Continuous
 62
     7
420
 16777215
370
    18
100
AcDbCircle
 10
-38.3956041884
 20
473.3831799353
 30
0.0
 40
3.999999999999997
  0
CIRCLE
  5
1DF
330
1F
100
AcDbEntity
  8
0
  6
Continuous
 62
     7
420
 16777215
370
    18
100
AcDbCircle
 10
96.7203968516
 20
488.0181798753
 30
0.0
 40
3.99999999999999
  0
CIRCLE
  5
1E0
330
1F
100
AcDbEntity
  8
0
  6
Continuous
 62
     7
420
 16777215
370
    18
100
AcDbCircle
 10
182.4453968516
 20
488.0181798753
 30
0.0
 40
3.99999999999999
  0
CIRCLE
  5
1E1
330
1F
100
AcDbEntity
  8
0
  6
Continuous
 62
     7
420
 16777215
370
    18
100
AcDbCircle
 10
291.6043962116
 20
473.3831799353
 30
0.0
 40
3.99999999999999
  0
CIRCLE
  5
1E2
330
1F
100
AcDbEntity
  8
0
  6
Continuous
 62
     7
420
 16777215
370
    18
100
AcDbCircle
 10
40.1337680558
 20
23.669029998
 30
0.0
 40
1.099999999999975
  0
CIRCLE
  5
1E3
330
1F
100
AcDbEntity
  8
0
  6
Continuous
 62
     7
420
 16777215
370
    18
100
AcDbCircle
 10
3.6933121328
 20
211.2326142589
 30
0.0
 40
1.100000000000002
  0
CIRCLE
  5
1E4
330
1F
100
AcDbEntity
  8
0
  6
Continuous
 62
     7
420
 16777215
370
    18
100
AcDbCircle
 10
40.1336827317
 20
176.6993025476
 30
0.0
 40
1.099999999999972
  0
ARC
  5
1E5
330
1F
100
AcDbEntity
  8
0
  6
Continuous
 62
     7
420
 16777215
370
    18
100
AcDbCircle
 10
45.1337701743
 20
169.9053903466
 30
0.0
 40
9.793912201405242
100
AcDbArc
 50
0.0
 51
90.0005115517
  0
ARC
  5
1E6
330
1F
100
AcDbEntity
  8
0
  6
Continuous
 62
     7
420
 16777215
370
    18
100
AcDbCircle
 10
45.1336814626
 20
30.4630309108
 30
0.0
 40
9.794000913196264
100
AcDbArc
 50
270.0005065781
 51
0.0
  0
CIRCLE
  5
1E7
330
1F
100
AcDbEntity
  8
0
  6
Continuous
 62
     7
420
 16777215
370
    18
100
AcDbCircle
 10
51.9276823758
 20
141.2313708311
 30
0.0
 40
1.09999999999997
  0
CIRCLE
  5
1E8
330
1F
100
AcDbEntity
  8
0
  6
Continuous
 62
     7
420
 16777215
370
    18
100
AcDbCircle
 10
51.9276823758
 20
59.4229274986
 30
0.0
 40
1.100000000000118
  0
ARC
  5
1E9
330
1F
100
AcDbEntity
  8
0
  6
Continuous
 62
     7
420
 16777215
370
    18
100
AcDbCircle
 10
45.133681462
 20
30.4630309108
 30
0.0
 40
3.794000913801554
100
AcDbArc
 50
270.0013077121
 51
0.0
  0
ARC
  5
1EA
330
1F
100
AcDbEntity
  8
0
  6
Continuous
 62
     7
420
 16777215
370
    18
100
AcDbCircle
 10
45.1337092288
 20
169.9053294008
 30
0.0
 40
3.793973146998253
100
AcDbArc
 50
0.0
 51
90.0005115517
  0
CIRCLE
  5
1EB
330
1F
100
AcDbEntity
  8
0
  6
Continuous
 62
     7
420
 16777215
370
    18
100
AcDbCircle
 10
38.819999597
 20
14.7342098888
 30
0.0
 40
1.099999999999765
  0
CIRCLE
  5
1EC
330
1F
100
AcDbEntity
  8
0
  6
Continuous
 62
     7
420
 16777215
370
    18
100
AcDbCircle
 10
38.8199122964
 20
167.7644455951
 30
0.0
 40
1.099999999999644
  0
ARC
  5
1ED
330
1F
100
AcDbEntity
  8
0
  6
Continuous
 62
     7
420
 16777215
370
    18
100
AcDbCircle
 10
33.8199130046
 20
21.5281229515
 30
0.0
 40
9.793913063059655
100
AcDbArc
 50
180.0
 51
270.0005065781
  0
ARC
  5
1EE
330
1F
100
AcDbEntity
  8
0
  6
Continuous
 62
     7
420
 16777215
370
    18
100
AcDbCircle
 10
33.8199997398
 20
160.9704457972
 30
0.0
 40
9.793999798237465
100
AcDbArc
 50
90.0005115517
 51
180.0
  0
CIRCLE
  5
1EF
330
1F
100
AcDbEntity
  8
0
  6
Continuous
 62
     7
420
 16777215
370
    18
100
AcDbCircle
 10
27.0259999415
 20
50.4918601137
 30
0.0
 40
1.099999999999657
  0
CIRCLE
  5
1F0
330
1F
100
AcDbEntity
  8
0
  6
Continuous
 62
     7
420
 16777215
370
    18
100
AcDbCircle
 10
27.0259999415
 20
132.3003033369
 30
0.0
 40
1.099999999999656
  0
ARC
  5
1F1
330
1F
100
AcDbEntity
  8
0
  6
Continuous
 62
     7
420
 16777215
370
    18
100
AcDbCircle
 10
33.8199997404
 20
160.9704457972
 30
0.0
 40
3.793999798854811
100
AcDbArc
 50
90.0013205515
 51
180.0
  0
ARC
  5
1F2
330
1F
100
AcDbEntity
  8
0
  6
Continuous
 62
     7
420
 16777215
370
    18
100
AcDbCircle
 10
33.8199130052
 20
21.5281229515
 30
0.0
 40
3.793913063665169
100
AcDbArc
 50
180.0
 51
270.0013077123
  0
CIRCLE
  5
1F3
330
1F
100
AcDbEntity
  8
0
  6
Continuous
 62
     7
420
 16777215
370
    18
100
AcDbCircle
 10
3.6951884403
 20
19.0155699762
 30
0.0
 40
1.100000000000008
  0
CIRCLE
  5
1F4
330
1F
100
AcDbEntity
  8
0
  6
Continuous
 62
     7
420
 16777215
370
    18
100
AcDbCircle
 10
-18.6522578246
 20
210.4137626821
 30
0.0
 40
1.100000000000078
  0
CIRCLE
  5
1F5
330
1F
100
AcDbEntity
  8
0
  6
Continuous
 62
     7
420
 16777215
370
    18
100
AcDbCircle
 10
-18.6503815172
 20
18.1967183993
 30
0.0
 40
1.100000000000077
  0
CIRCLE
  5
1F6
330
1F
100
AcDbEntity
  8
0
  6
Continuous
 62
     7
420
 16777215
370
    18
100
AcDbCircle
 10
-18.6513196709
 20
114.3052405407
 30
0.0
 40
1.100000000000092
  0
CIRCLE
  5
1F7
330
1F
100
AcDbEntity
  8
0
  6
Continuous
 62
     7
420
 16777215
370
    18
100
AcDbCircle
 10
-18.6541341321
 20
402.6308069648
 30
0.0
 40
1.10000000000017
  0
CIRCLE
  5
1F8
330
1F
100
AcDbEntity
  8
0
  6
Continuous
 62
     7
420
 16777215
370
    18
100
AcDbCircle
 10
-18.6531959784
 20
306.5222848234
 30
0.0
 40
1.100000000000106
  0
CIRCLE
  5
1F9
330
1F
100
AcDbEntity
  8
0
  6
Continuous
 62
     7
420
 16777215
370
    18
100
AcDbCircle
 10
-7.455739086
 20
210.3027063537
 30
0.0
 40
1.099999999999969
  0
CIRCLE
  5
1FA
330
1F
100
AcDbEntity
  8
0
  6
Continuous
 62
     7
420
 16777215
370
    18
100
AcDbCircle
 10
3.6942502865
 20
115.1240921175
 30
0.0
 40
1.100000000000002
  0
CIRCLE
  5
1FB
330
1F
100
AcDbEntity
  8
0
  6
Continuous
 62
     7
420
 16777215
370
    18
100
AcDbCircle
 10
-7.4538443568
 20
18.0856610826
 30
0.0
 40
1.099999999999973
  0
CIRCLE
  5
1FC
330
1F
100
AcDbEntity
  8
0
  6
Continuous
 62
     7
420
 16777215
370
    18
100
AcDbCircle
 10
3.6914358253
 20
403.4496585417
 30
0.0
 40
1.099999999999996
  0
CIRCLE
  5
1FD
330
1F
100
AcDbEntity
  8
0
  6
Continuous
 62
     7
420
 16777215
370
    18
100
AcDbCircle
 10
-7.4547917214
 20
114.1941837182
 30
0.0
 40
1.099999999999969
  0
CIRCLE
  5
1FE
330
1F
100
AcDbEntity
  8
0
  6
Continuous
 62
     7
420
 16777215
370
    18
100
AcDbCircle
 10
-7.4576338151
 20
402.5197516247
 30
0.0
 40
1.10000000000017
  0
CIRCLE
  5
1FF
330
1F
100
AcDbEntity
  8
0
  6
Continuous
 62
     7
420
 16777215
370
    18
100
AcDbCircle
 10
-7.4566864505
 20
306.4112289892
 30
0.0
 40
1.100000000000007
  0
CIRCLE
  5
200
330
1F
100
AcDbEntity
  8
0
  6
Continuous
 62
     7
420
 16777215
370
    18
100
AcDbCircle
 10
3.6923739791
 20
307.3411364003
 30
0.0
 40
1.100000000000083
  0
CIRCLE
  5
201
330
1F
100
AcDbEntity
  8
0
  6
Continuous
 62
     7
420
 16777215
370
    18
100
AcDbCircle
 10
14.5723732319
 20
210.5909340255
 30
0.0
 40
1.100000000000002
  0
CIRCLE
  5
202
330
1F
100
AcDbEntity
  8
0
  6
Continuous
 62
     7
420
 16777215
370
    18
100
AcDbCircle
 10
14.5742679611
 20
18.3738887545
 30
0.0
 40
1.100000000000078
  0
CIRCLE
  5
203
330
1F
100
AcDbEntity
  8
0
  6
Continuous
 62
     7
420
 16777215
370
    18
100
AcDbCircle
 10
14.5733205965
 20
114.48241139
 30
0.0
 40
1.100000000000001
  0
CIRCLE
  5
204
330
1F
100
AcDbEntity
  8
0
  6
Continuous
 62
     7
420
 16777215
370
    18
100
AcDbCircle
 10
14.5704785028
 20
402.8079792966
 30
0.0
 40
1.100000000000029
  0
CIRCLE
  5
205
330
1F
100
AcDbEntity
  8
0
  6
Continuous
 62
     7
420
 16777215
370
    18
100
AcDbCircle
 10
14.5714258673
 20
306.699456661
 30
0.0
 40
1.100000000000029
  0
CIRCLE
  5
206
330
1F
100
AcDbEntity
  8
0
  6
Continuous
 62
     7
420
 16777215
370
    18
100
AcDbCircle
 10
40.1581839771
 20
217.4485827913
 30
0.0
 40
1.100000000000012
  0
CIRCLE
  5
207
330
1F
100
AcDbEntity
  8
0
  6
Continuous
 62
     7
420
 16777215
370
    18
100
AcDbCircle
 10
40.158098653
 20
370.4788553409
 30
0.0
 40
1.099999999999972
  0
ARC
  5
208
330
1F
100
AcDbEntity
  8
0
  6
Continuous
 62
     7
420
 16777215
370
    18
100
AcDbCircle
 10
45.1581860957
 20
363.6849431399
 30
0.0
 40
9.793912201405487
100
AcDbArc
 50
0.0
 51
90.0005115517
  0
ARC
  5
209
330
1F
100
AcDbEntity
  8
0
  6
Continuous
 62
     7
420
 16777215
370
    18
100
AcDbCircle
 10
45.1580973839
 20
224.2425837041
 30
0.0
 40
9.794000913196214
100
AcDbArc
 50
270.0005065781
 51
0.0
  0
CIRCLE
  5
20A
330
1F
100
AcDbEntity
  8
0
  6
Continuous
 62
     7
420
 16777215
370
    18
100
AcDbCircle
 10
51.9520982971
 20
335.0109236244
 30
0.0
 40
1.099999999999979
  0
CIRCLE
  5
20B
330
1F
100
AcDbEntity
  8
0
  6
Continuous
 62
     7
420
 16777215
370
    18
100
AcDbCircle
 10
51.9520982971
 20
253.2024802919
 30
0.0
 40
1.10000000000008
  0
ARC
  5
20C
330
1F
100
AcDbEntity
  8
0
  6
Continuous
 62
     7
420
 16777215
370
    18
100
AcDbCircle
 10
45.1580973833
 20
224.2425837041
 30
0.0
 40
3.794000913801554
100
AcDbArc
 50
270.0013077121
 51
0.0
  0
ARC
  5
20D
330
1F
100
AcDbEntity
  8
0
  6
Continuous
 62
     7
420
 16777215
370
    18
100
AcDbCircle
 10
45.1581251501
 20
363.6848821941
 30
0.0
 40
3.793973146998054
100
AcDbArc
 50
0.0
 51
90.0005115517
  0
CIRCLE
  5
20E
330
1F
100
AcDbEntity
  8
0
  6
Continuous
 62
     7
420
 16777215
370
    18
100
AcDbCircle
 10
38.8444155183
 20
208.5137626821
 30
0.0
 40
1.099999999999761
  0
CIRCLE
  5
20F
330
1F
100
AcDbEntity
  8
0
  6
Continuous
 62
     7
420
 16777215
370
    18
100
AcDbCircle
 10
38.8443282177
 20
361.5439983884
 30
0.0
 40
1.099999999999903
  0
ARC
  5
210
330
1F
100
AcDbEntity
  8
0
  6
Continuous
 62
     7
420
 16777215
370
    18
100
AcDbCircle
 10
33.8443289259
 20
215.3076757447
 30
0.0
 40
9.793913063059655
100
AcDbArc
 50
180.0
 51
270.0005065781
  0
ARC
  5
211
330
1F
100
AcDbEntity
  8
0
  6
Continuous
 62
     7
420
 16777215
370
    18
100
AcDbCircle
 10
33.8444156611
 20
354.7499985905
 30
0.0
 40
9.793999798237472
100
AcDbArc
 50
90.0005115517
 51
180.0
  0
CIRCLE
  5
212
330
1F
100
AcDbEntity
  8
0
  6
Continuous
 62
     7
420
 16777215
370
    18
100
AcDbCircle
 10
27.0504158628
 20
244.2714129069
 30
0.0
 40
1.099999999999656
  0
CIRCLE
  5
213
330
1F
100
AcDbEntity
  8
0
  6
Continuous
 62
     7
420
 16777215
370
    18
100
AcDbCircle
 10
27.0504158628
 20
326.0798561301
 30
0.0
 40
1.099999999999709
  0
ARC
  5
214
330
1F
100
AcDbEntity
  8
0
  6
Continuous
 62
     7
420
 16777215
370
    18
100
AcDbCircle
 10
33.8444156617
 20
354.7499985905
 30
0.0
 40
3.793999798854749
100
AcDbArc
 50
90.0013205515
 51
180.0
  0
ARC
  5
215
330
1F
100
AcDbEntity
  8
0
  6
Continuous
 62
     7
420
 16777215
370
    18
100
AcDbCircle
 10
33.8443289265
 20
215.3076757447
 30
0.0
 40
3.793913063665165
100
AcDbArc
 50
180.0
 51
270.0013077123
  0
CIRCLE
  5
216
330
1F
100
AcDbEntity
  8
0
  6
Continuous
 62
     7
420
 16777215
370
    18
100
AcDbCircle
 10
-49.3594638647
 20
25.8681571834
 30
0.0
 40
1.09999999999997
  0
CIRCLE
  5
217
330
1F
100
AcDbEntity
  8
0
  6
Continuous
 62
     7
420
 16777215
370
    18
100
AcDbCircle
 10
-85.7999197877
 20
213.4317414443
 30
0.0
 40
1.100000000000001
  0
CIRCLE
  5
218
330
1F
100
AcDbEntity
  8
0
  6
Continuous
 62
     7
420
 16777215
370
    18
100
AcDbCircle
 10
-49.3595491887
 20
178.898429733
 30
0.0
 40
1.099999999999979
  0
ARC
  5
219
330
1F
100
AcDbEntity
  8
0
  6
Continuous
 62
     7
420
 16777215
370
    18
100
AcDbCircle
 10
-44.3594617461
 20
172.104517532
 30
0.0
 40
9.793912201405242
100
AcDbArc
 50
0.0
 51
90.0005115517
  0
ARC
  5
21A
330
1F
100
AcDbEntity
  8
0
  6
Continuous
 62
     7
420
 16777215
370
    18
100
AcDbCircle
 10
-44.3595504579
 20
32.6621580962
 30
0.0
 40
9.794000913196264
100
AcDbArc
 50
270.0005065781
 51
0.0
  0
CIRCLE
  5
21B
330
1F
100
AcDbEntity
  8
0
  6
Continuous
 62
     7
420
 16777215
370
    18
100
AcDbCircle
 10
-37.5655495447
 20
143.4304980165
 30
0.0
 40
1.099999999999972
  0
CIRCLE
  5
21C
330
1F
100
AcDbEntity
  8
0
  6
Continuous
 62
     7
420
 16777215
370
    18
100
AcDbCircle
 10
-37.5655495447
 20
61.622054684
 30
0.0
 40
1.10000000000011
  0
ARC
  5
21D
330
1F
100
AcDbEntity
  8
0
  6
Continuous
 62
     7
420
 16777215
370
    18
100
AcDbCircle
 10
-44.3595504585
 20
32.6621580962
 30
0.0
 40
3.794000913801554
100
AcDbArc
 50
270.0013077121
 51
0.0
  0
ARC
  5
21E
330
1F
100
AcDbEntity
  8
0
  6
Continuous
 62
     7
420
 16777215
370
    18
100
AcDbCircle
 10
-44.3595226917
 20
172.1044565861
 30
0.0
 40
3.793973146998253
100
AcDbArc
 50
0.0
 51
90.0005115517
  0
CIRCLE
  5
21F
330
1F
100
AcDbEntity
  8
0
  6
Continuous
 62
     7
420
 16777215
370
    18
100
AcDbCircle
 10
-50.6732323235
 20
16.9333370741
 30
0.0
 40
1.099999999999758
  0
CIRCLE
  5
220
330
1F
100
AcDbEntity
  8
0
  6
Continuous
 62
     7
420
 16777215
370
    18
100
AcDbCircle
 10
-50.6733196241
 20
169.9635727804
 30
0.0
 40
1.099999999999659
  0
ARC
  5
221
330
1F
100
AcDbEntity
  8
0
  6
Continuous
 62
     7
420
 16777215
370
    18
100
AcDbCircle
 10
-55.6733189159
 20
23.7272501368
 30
0.0
 40
9.793913063059662
100
AcDbArc
 50
180.0
 51
270.0005065781
  0
ARC
  5
222
330
1F
100
AcDbEntity
  8
0
  6
Continuous
 62
     7
420
 16777215
370
    18
100
AcDbCircle
 10
-55.6732321807
 20
163.1695729826
 30
0.0
 40
9.793999798237465
100
AcDbArc
 50
90.0005115517
 51
180.0
  0
CIRCLE
  5
223
330
1F
100
AcDbEntity
  8
0
  6
Continuous
 62
     7
420
 16777215
370
    18
100
AcDbCircle
 10
-62.467231979
 20
52.690987299
 30
0.0
 40
1.099999999999657
  0
CIRCLE
  5
224
330
1F
100
AcDbEntity
  8
0
  6
Continuous
 62
     7
420
 16777215
370
    18
100
AcDbCircle
 10
-62.467231979
 20
134.4994305222
 30
0.0
 40
1.099999999999651
  0
ARC
  5
225
330
1F
100
AcDbEntity
  8
0
  6
Continuous
 62
     7
420
 16777215
370
    18
100
AcDbCircle
 10
-55.6732321801
 20
163.1695729826
 30
0.0
 40
3.793999798854811
100
AcDbArc
 50
90.0013205515
 51
180.0
  0
ARC
  5
226
330
1F
100
AcDbEntity
  8
0
  6
Continuous
 62
     7
420
 16777215
370
    18
100
AcDbCircle
 10
-55.6733189153
 20
23.7272501368
 30
0.0
 40
3.793913063665165
100
AcDbArc
 50
180.0
 51
270.0013077123
  0
CIRCLE
  5
227
330
1F
100
AcDbEntity
  8
0
  6
Continuous
 62
     7
420
 16777215
370
    18
100
AcDbCircle
 10
-85.7980434802
 20
21.2146971615
 30
0.0
 40
1.100000000000004
  0
CIRCLE
  5
228
330
1F
100
AcDbEntity
  8
0
  6
Continuous
 62
     7
420
 16777215
370
    18
100
AcDbCircle
 10
-108.1454897451
 20
212.6128898674
 30
0.0
 40
1.100000000000076
  0
CIRCLE
  5
229
330
1F
100
AcDbEntity
  8
0
  6
Continuous
 62
     7
420
 16777215
370
    18
100
AcDbCircle
 10
-108.1436134377
 20
20.3958455847
 30
0.0
 40
1.10000000000008
  0
CIRCLE
  5
22A
330
1F
100
AcDbEntity
  8
0
  6
Continuous
 62
     7
420
 16777215
370
    18
100
AcDbCircle
 10
-108.1445515914
 20
116.504367726
 30
0.0
 40
1.10000000000008
  0
CIRCLE
  5
22B
330
1F
100
AcDbEntity
  8
0
  6
Continuous
 62
     7
420
 16777215
370
    18
100
AcDbCircle
 10
-108.1473660526
 20
404.8299341501
 30
0.0
 40
1.100000000000116
  0
CIRCLE
  5
22C
330
1F
100
AcDbEntity
  8
0
  6
Continuous
 62
     7
420
 16777215
370
    18
100
AcDbCircle
 10
-108.1464278989
 20
308.7214120088
 30
0.0
 40
1.100000000000108
  0
CIRCLE
  5
22D
330
1F
100
AcDbEntity
  8
0
  6
Continuous
 62
     7
420
 16777215
370
    18
100
AcDbCircle
 10
-96.9489710065
 20
212.501833539
 30
0.0
 40
1.099999999999968
  0
CIRCLE
  5
22E
330
1F
100
AcDbEntity
  8
0
  6
Continuous
 62
     7
420
 16777215
370
    18
100
AcDbCircle
 10
-85.798981634
 20
117.3232193029
 30
0.0
 40
1.100000000000001
  0
CIRCLE
  5
22F
330
1F
100
AcDbEntity
  8
0
  6
Continuous
 62
     7
420
 16777215
370
    18
100
AcDbCircle
 10
-96.9470762773
 20
20.284788268
 30
0.0
 40
1.099999999999979
  0
CIRCLE
  5
230
330
1F
100
AcDbEntity
  8
0
  6
Continuous
 62
     7
420
 16777215
370
    18
100
AcDbCircle
 10
-85.8017960952
 20
405.648785727
 30
0.0
 40
1.099999999999995
  0
CIRCLE
  5
231
330
1F
100
AcDbEntity
  8
0
  6
Continuous
 62
     7
420
 16777215
370
    18
100
AcDbCircle
 10
-96.9480236419
 20
116.3933109035
 30
0.0
 40
1.099999999999972
  0
CIRCLE
  5
232
330
1F
100
AcDbEntity
  8
0
  6
Continuous
 62
     7
420
 16777215
370
    18
100
AcDbCircle
 10
-96.9508657356
 20
404.7188788101
 30
0.0
 40
1.10000000000017
  0
CIRCLE
  5
233
330
1F
100
AcDbEntity
  8
0
  6
Continuous
 62
     7
420
 16777215
370
    18
100
AcDbCircle
 10
-96.949918371
 20
308.6103561745
 30
0.0
 40
1.100000000000061
  0
CIRCLE
  5
234
330
1F
100
AcDbEntity
  8
0
  6
Continuous
 62
     7
420
 16777215
370
    18
100
AcDbCircle
 10
-85.8008579414
 20
309.5402635856
 30
0.0
 40
1.100000000000141
  0
CIRCLE
  5
235
330
1F
100
AcDbEntity
  8
0
  6
Continuous
 62
     7
420
 16777215
370
    18
100
AcDbCircle
 10
-74.9208586886
 20
212.7900612109
 30
0.0
 40
1.100000000000001
  0
CIRCLE
  5
236
330
1F
100
AcDbEntity
  8
0
  6
Continuous
 62
     7
420
 16777215
370
    18
100
AcDbCircle
 10
-74.9189639594
 20
20.5730159398
 30
0.0
 40
1.100000000000076
  0
CIRCLE
  5
237
330
1F
100
AcDbEntity
  8
0
  6
Continuous
 62
     7
420
 16777215
370
    18
100
AcDbCircle
 10
-74.919911324
 20
116.6815385753
 30
0.0
 40
1.100000000000001
  0
CIRCLE
  5
238
330
1F
100
AcDbEntity
  8
0
  6
Continuous
 62
     7
420
 16777215
370
    18
100
AcDbCircle
 10
-74.9227534177
 20
405.0071064819
 30
0.0
 40
1.099999999999978
  0
CIRCLE
  5
239
330
1F
100
AcDbEntity
  8
0
  6
Continuous
 62
     7
420
 16777215
370
    18
100
AcDbCircle
 10
-74.9218060532
 20
308.8985838464
 30
0.0
 40
1.099999999999974
  0
CIRCLE
  5
23A
330
1F
100
AcDbEntity
  8
0
  6
Continuous
 62
     7
420
 16777215
370
    18
100
AcDbCircle
 10
-49.3350479434
 20
219.6477099766
 30
0.0
 40
1.099999999999997
  0
CIRCLE
  5
23B
330
1F
100
AcDbEntity
  8
0
  6
Continuous
 62
     7
420
 16777215
370
    18
100
AcDbCircle
 10
-49.3351332674
 20
372.6779825263
 30
0.0
 40
1.099999999999962
  0
ARC
  5
23C
330
1F
100
AcDbEntity
  8
0
  6
Continuous
 62
     7
420
 16777215
370
    18
100
AcDbCircle
 10
-44.3350458248
 20
365.8840703252
 30
0.0
 40
9.793912201405432
100
AcDbArc
 50
0.0
 51
90.0005115517
  0
ARC
  5
23D
330
1F
100
AcDbEntity
  8
0
  6
Continuous
 62
     7
420
 16777215
370
    18
100
AcDbCircle
 10
-44.3351345366
 20
226.4417108895
 30
0.0
 40
9.794000913196207
100
AcDbArc
 50
270.0005065781
 51
0.0
  0
CIRCLE
  5
23E
330
1F
100
AcDbEntity
  8
0
  6
Continuous
 62
     7
420
 16777215
370
    18
100
AcDbCircle
 10
-37.5411336234
 20
337.2100508098
 30
0.0
 40
1.099999999999979
  0
CIRCLE
  5
23F
330
1F
100
AcDbEntity
  8
0
  6
Continuous
 62
     7
420
 16777215
370
    18
100
AcDbCircle
 10
-37.5411336234
 20
255.4016074773
 30
0.0
 40
1.10000000000008
  0
ARC
  5
240
330
1F
100
AcDbEntity
  8
0
  6
Continuous
 62
     7
420
 16777215
370
    18
100
AcDbCircle
 10
-44.3351345372
 20
226.4417108895
 30
0.0
 40
3.794000913801554
100
AcDbArc
 50
270.0013077121
 51
0.0
  0
ARC
  5
241
330
1F
100
AcDbEntity
  8
0
  6
Continuous
 62
     7
420
 16777215
370
    18
100
AcDbCircle
 10
-44.3351067704
 20
365.8840093794
 30
0.0
 40
3.793973146998034
100
AcDbArc
 50
0.0
 51
90.0005115517
  0
CIRCLE
  5
242
330
1F
100
AcDbEntity
  8
0
  6
Continuous
 62
     7
420
 16777215
370
    18
100
AcDbCircle
 10
-50.6488164021
 20
210.7128898674
 30
0.0
 40
1.099999999999768
  0
CIRCLE
  5
243
330
1F
100
AcDbEntity
  8
0
  6
Continuous
 62
     7
420
 16777215
370
    18
100
AcDbCircle
 10
-50.6489037028
 20
363.7431255737
 30
0.0
 40
1.099999999999886
  0
ARC
  5
244
330
1F
100
AcDbEntity
  8
0
  6
Continuous
 62
     7
420
 16777215
370
    18
100
AcDbCircle
 10
-55.6489029946
 20
217.5068029301
 30
0.0
 40
9.793913063059662
100
AcDbArc
 50
180.0
 51
270.0005065781
  0
ARC
  5
245
330
1F
100
AcDbEntity
  8
0
  6
Continuous
 62
     7
420
 16777215
370
    18
100
AcDbCircle
 10
-55.6488162594
 20
356.9491257758
 30
0.0
 40
9.793999798237472
100
AcDbArc
 50
90.0005115517
 51
180.0
  0
CIRCLE
  5
246
330
1F
100
AcDbEntity
  8
0
  6
Continuous
 62
     7
420
 16777215
370
    18
100
AcDbCircle
 10
-62.4428160576
 20
246.4705400923
 30
0.0
 40
1.099999999999651
  0
CIRCLE
  5
247
330
1F
100
AcDbEntity
  8
0
  6
Continuous
 62
     7
420
 16777215
370
    18
100
AcDbCircle
 10
-62.4428160576
 20
328.2789833155
 30
0.0
 40
1.099999999999726
  0
ARC
  5
248
330
1F
100
AcDbEntity
  8
0
  6
Continuous
 62
     7
420
 16777215
370
    18
100
AcDbCircle
 10
-55.6488162588
 20
356.9491257758
 30
0.0
 40
3.793999798854756
100
AcDbArc
 50
90.0013205515
 51
180.0
  0
ARC
  5
249
330
1F
100
AcDbEntity
  8
0
  6
Continuous
 62
     7
420
 16777215
370
    18
100
AcDbCircle
 10
-55.648902994
 20
217.5068029301
 30
0.0
 40
3.793913063665165
100
AcDbArc
 50
180.0
 51
270.0013077123
  0
CIRCLE
  5
24A
330
1F
100
AcDbEntity
  8
0
  6
Continuous
 62
     7
420
 16777215
370
    18
100
AcDbCircle
 10
605.9972287403
 20
34.4261346119
 30
0.0
 40
1.099999999999888
  0
CIRCLE
  5
24B
330
1F
100
AcDbEntity
  8
0
  6
Continuous
 62
     7
420
 16777215
370
    18
100
AcDbCircle
 10
569.5567728173
 20
221.9897188728
 30
0.0
 40
1.099999999999988
  0
CIRCLE
  5
24C
330
1F
100
AcDbEntity
  8
0
  6
Continuous
 62
     7
420
 16777215
370
    18
100
AcDbCircle
 10
605.9971434163
 20
187.4564071615
 30
0.0
 40
1.099999999999999
  0
ARC
  5
24D
330
1F
100
AcDbEntity
  8
0
  6
Continuous
 62
     7
420
 16777215
370
    18
100
AcDbCircle
 10
610.9972308589
 20
180.6624949605
 30
0.0
 40
9.793912201405305
100
AcDbArc
 50
0.0
 51
90.0005115517
  0
ARC
  5
24E
330
1F
100
AcDbEntity
  8
0
  6
Continuous
 62
     7
420
 16777215
370
    18
100
AcDbCircle
 10
610.9971421471
 20
41.2201355247
 30
0.0
 40
9.794000913196214
100
AcDbArc
 50
270.0005065781
 51
0.0
  0
CIRCLE
  5
24F
330
1F
100
AcDbEntity
  8
0
  6
Continuous
 62
     7
420
 16777215
370
    18
100
AcDbCircle
 10
617.7911430603
 20
151.988475445
 30
0.0
 40
1.099999999999991
  0
CIRCLE
  5
250
330
1F
100
AcDbEntity
  8
0
  6
Continuous
 62
     7
420
 16777215
370
    18
100
AcDbCircle
 10
617.7911430603
 20
70.1800321125
 30
0.0
 40
1.100000000000028
  0
ARC
  5
251
330
1F
100
AcDbEntity
  8
0
  6
Continuous
 62
     7
420
 16777215
370
    18
100
AcDbCircle
 10
610.9971421465
 20
41.2201355247
 30
0.0
 40
3.794000913801549
100
AcDbArc
 50
270.0013077121
 51
0.0
  0
ARC
  5
252
330
1F
100
AcDbEntity
  8
0
  6
Continuous
 62
     7
420
 16777215
370
    18
100
AcDbCircle
 10
610.9971699133
 20
180.6624340147
 30
0.0
 40
3.793973146998253
100
AcDbArc
 50
0.0
 51
90.0005115517
  0
CIRCLE
  5
253
330
1F
100
AcDbEntity
  8
0
  6
Continuous
 62
     7
420
 16777215
370
    18
100
AcDbCircle
 10
604.6834602816
 20
25.4913145027
 30
0.0
 40
1.099999999999779
  0
CIRCLE
  5
254
330
1F
100
AcDbEntity
  8
0
  6
Continuous
 62
     7
420
 16777215
370
    18
100
AcDbCircle
 10
604.6833729809
 20
178.521550209
 30
0.0
 40
1.099999999999556
  0
ARC
  5
255
330
1F
100
AcDbEntity
  8
0
  6
Continuous
 62
     7
420
 16777215
370
    18
100
AcDbCircle
 10
599.6833736891
 20
32.2852275654
 30
0.0
 40
9.793913063059676
100
AcDbArc
 50
180.0
 51
270.0005065781
  0
ARC
  5
256
330
1F
100
AcDbEntity
  8
0
  6
Continuous
 62
     7
420
 16777215
370
    18
100
AcDbCircle
 10
599.6834604243
 20
171.7275504111
 30
0.0
 40
9.793999798237465
100
AcDbArc
 50
90.0005115517
 51
180.0
  0
CIRCLE
  5
257
330
1F
100
AcDbEntity
  8
0
  6
Continuous
 62
     7
420
 16777215
370
    18
100
AcDbCircle
 10
592.8894606261
 20
61.2489647276
 30
0.0
 40
1.09999999999956
  0
CIRCLE
  5
258
330
1F
100
AcDbEntity
  8
0
  6
Continuous
 62
     7
420
 16777215
370
    18
100
AcDbCircle
 10
592.8894606261
 20
143.0574079508
 30
0.0
 40
1.099999999999673
  0
ARC
  5
259
330
1F
100
AcDbEntity
  8
0
  6
Continuous
 62
     7
420
 16777215
370
    18
100
AcDbCircle
 10
599.6834604249
 20
171.7275504111
 30
0.0
 40
3.793999798854811
100
AcDbArc
 50
90.0013205515
 51
180.0
  0
ARC
  5
25A
330
1F
100
AcDbEntity
  8
0
  6
Continuous
 62
     7
420
 16777215
370
    18
100
AcDbCircle
 10
599.6833736897
 20
32.2852275654
 30
0.0
 40
3.793913063665173
100
AcDbArc
 50
180.0
 51
270.0013077123
  0
CIRCLE
  5
25B
330
1F
100
AcDbEntity
  8
0
  6
Continuous
 62
     7
420
 16777215
370
    18
100
AcDbCircle
 10
569.5586491248
 20
29.7726745901
 30
0.0
 40
1.100000000000025
  0
CIRCLE
  5
25C
330
1F
100
AcDbEntity
  8
0
  6
Continuous
 62
     7
420
 16777215
370
    18
100
AcDbCircle
 10
547.2112028599
 20
221.170867296
 30
0.0
 40
1.100000000000097
  0
CIRCLE
  5
25D
330
1F
100
AcDbEntity
  8
0
  6
Continuous
 62
     7
420
 16777215
370
    18
100
AcDbCircle
 10
547.2130791674
 20
28.9538230132
 30
0.0
 40
1.100000000000097
  0
CIRCLE
  5
25E
330
1F
100
AcDbEntity
  8
0
  6
Continuous
 62
     7
420
 16777215
370
    18
100
AcDbCircle
 10
547.2121410136
 20
125.0623451546
 30
0.0
 40
1.100000000000064
  0
CIRCLE
  5
25F
330
1F
100
AcDbEntity
  8
0
  6
Continuous
 62
     7
420
 16777215
370
    18
100
AcDbCircle
 10
547.2093265524
 20
413.3879115787
 30
0.0
 40
1.100000000000191
  0
CIRCLE
  5
260
330
1F
100
AcDbEntity
  8
0
  6
Continuous
 62
     7
420
 16777215
370
    18
100
AcDbCircle
 10
547.2102647061
 20
317.2793894373
 30
0.0
 40
1.100000000000037
  0
CIRCLE
  5
261
330
1F
100
AcDbEntity
  8
0
  6
Continuous
 62
     7
420
 16777215
370
    18
100
AcDbCircle
 10
558.4077215985
 20
221.0598109676
 30
0.0
 40
1.099999999999982
  0
CIRCLE
  5
262
330
1F
100
AcDbEntity
  8
0
  6
Continuous
 62
     7
420
 16777215
370
    18
100
AcDbCircle
 10
569.557710971
 20
125.8811967314
 30
0.0
 40
1.099999999999988
  0
CIRCLE
  5
263
330
1F
100
AcDbEntity
  8
0
  6
Continuous
 62
     7
420
 16777215
370
    18
100
AcDbCircle
 10
558.4096163277
 20
28.8427656965
 30
0.0
 40
1.099999999999959
  0
CIRCLE
  5
264
330
1F
100
AcDbEntity
  8
0
  6
Continuous
 62
     7
420
 16777215
370
    18
100
AcDbCircle
 10
569.5548965098
 20
414.2067631555
 30
0.0
 40
1.099999999999982
  0
CIRCLE
  5
265
330
1F
100
AcDbEntity
  8
0
  6
Continuous
 62
     7
420
 16777215
370
    18
100
AcDbCircle
 10
558.4086689631
 20
124.9512883321
 30
0.0
 40
1.099999999999955
  0
CIRCLE
  5
266
330
1F
100
AcDbEntity
  8
0
  6
Continuous
 62
     7
420
 16777215
370
    18
100
AcDbCircle
 10
558.4058268694
 20
413.2768562386
 30
0.0
 40
1.100000000000158
  0
CIRCLE
  5
267
330
1F
100
AcDbEntity
  8
0
  6
Continuous
 62
     7
420
 16777215
370
    18
100
AcDbCircle
 10
558.406774234
 20
317.1683336031
 30
0.0
 40
1.100000000000028
  0
CIRCLE
  5
268
330
1F
100
AcDbEntity
  8
0
  6
Continuous
 62
     7
420
 16777215
370
    18
100
AcDbCircle
 10
569.5558346636
 20
318.0982410142
 30
0.0
 40
1.100000000000103
  0
CIRCLE
  5
269
330
1F
100
AcDbEntity
  8
0
  6
Continuous
 62
     7
420
 16777215
370
    18
100
AcDbCircle
 10
580.4358339164
 20
221.3480386394
 30
0.0
 40
1.100000000000016
  0
CIRCLE
  5
26A
330
1F
100
AcDbEntity
  8
0
  6
Continuous
 62
     7
420
 16777215
370
    18
100
AcDbCircle
 10
580.4377286456
 20
29.1309933684
 30
0.0
 40
1.100000000000067
  0
CIRCLE
  5
26B
330
1F
100
AcDbEntity
  8
0
  6
Continuous
 62
     7
420
 16777215
370
    18
100
AcDbCircle
 10
580.436781281
 20
125.2395160039
 30
0.0
 40
1.100000000000002
  0
CIRCLE
  5
26C
330
1F
100
AcDbEntity
  8
0
  6
Continuous
 62
     7
420
 16777215
370
    18
100
AcDbCircle
 10
580.4339391873
 20
413.5650839105
 30
0.0
 40
1.100000000000049
  0
CIRCLE
  5
26D
330
1F
100
AcDbEntity
  8
0
  6
Continuous
 62
     7
420
 16777215
370
    18
100
AcDbCircle
 10
580.4348865519
 20
317.4565612749
 30
0.0
 40
1.100000000000016
  0
CIRCLE
  5
26E
330
1F
100
AcDbEntity
  8
0
  6
Continuous
 62
     7
420
 16777215
370
    18
100
AcDbCircle
 10
606.0216446616
 20
228.2056874052
 30
0.0
 40
1.100000000000032
  0
CIRCLE
  5
26F
330
1F
100
AcDbEntity
  8
0
  6
Continuous
 62
     7
420
 16777215
370
    18
100
AcDbCircle
 10
606.0215593376
 20
381.2359599548
 30
0.0
 40
1.099999999999999
  0
ARC
  5
270
330
1F
100
AcDbEntity
  8
0
  6
Continuous
 62
     7
420
 16777215
370
    18
100
AcDbCircle
 10
611.0216467802
 20
374.4420477538
 30
0.0
 40
9.793912201405487
100
AcDbArc
 50
0.0
 51
90.0005115517
  0
ARC
  5
271
330
1F
100
AcDbEntity
  8
0
  6
Continuous
 62
     7
420
 16777215
370
    18
100
AcDbCircle
 10
611.0215580684
 20
234.999688318
 30
0.0
 40
9.794000913196214
100
AcDbArc
 50
270.0005065781
 51
0.0
  0
CIRCLE
  5
272
330
1F
100
AcDbEntity
  8
0
  6
Continuous
 62
     7
420
 16777215
370
    18
100
AcDbCircle
 10
617.8155589816
 20
345.7680282383
 30
0.0
 40
1.099999999999999
  0
CIRCLE
  5
273
330
1F
100
AcDbEntity
  8
0
  6
Continuous
 62
     7
420
 16777215
370
    18
100
AcDbCircle
 10
617.8155589816
 20
263.9595849058
 30
0.0
 40
1.100000000000108
  0
ARC
  5
274
330
1F
100
AcDbEntity
  8
0
  6
Continuous
 62
     7
420
 16777215
370
    18
100
AcDbCircle
 10
611.0215580678
 20
234.999688318
 30
0.0
 40
3.794000913801549
100
AcDbArc
 50
270.0013077121
 51
0.0
  0
ARC
  5
275
330
1F
100
AcDbEntity
  8
0
  6
Continuous
 62
     7
420
 16777215
370
    18
100
AcDbCircle
 10
611.0215858346
 20
374.441986808
 30
0.0
 40
3.793973146998054
100
AcDbArc
 50
0.0
 51
90.0005115517
  0
CIRCLE
  5
276
330
1F
100
AcDbEntity
  8
0
  6
Continuous
 62
     7
420
 16777215
370
    18
100
AcDbCircle
 10
604.7078762029
 20
219.270867296
 30
0.0
 40
1.099999999999781
  0
CIRCLE
  5
277
330
1F
100
AcDbEntity
  8
0
  6
Continuous
 62
     7
420
 16777215
370
    18
100
AcDbCircle
 10
604.7077889022
 20
372.3011030022
 30
0.0
 40
1.099999999999923
  0
ARC
  5
278
330
1F
100
AcDbEntity
  8
0
  6
Continuous
 62
     7
420
 16777215
370
    18
100
AcDbCircle
 10
599.7077896104
 20
226.0647803586
 30
0.0
 40
9.793913063059563
100
AcDbArc
 50
180.0
 51
270.0005065781
  0
ARC
  5
279
330
1F
100
AcDbEntity
  8
0
  6
Continuous
 62
     7
420
 16777215
370
    18
100
AcDbCircle
 10
599.7078763456
 20
365.5071032044
 30
0.0
 40
9.79399979823745
100
AcDbArc
 50
90.0005115517
 51
180.0
  0
CIRCLE
  5
27A
330
1F
100
AcDbEntity
  8
0
  6
Continuous
 62
     7
420
 16777215
370
    18
100
AcDbCircle
 10
592.9138765474
 20
255.0285175208
 30
0.0
 40
1.099999999999673
  0
CIRCLE
  5
27B
330
1F
100
AcDbEntity
  8
0
  6
Continuous
 62
     7
420
 16777215
370
    18
100
AcDbCircle
 10
592.9138765474
 20
336.836960744
 30
0.0
 40
1.099999999999739
  0
ARC
  5
27C
330
1F
100
AcDbEntity
  8
0
  6
Continuous
 62
     7
420
 16777215
370
    18
100
AcDbCircle
 10
599.7078763462
 20
365.5071032044
 30
0.0
 40
3.79399979885477
100
AcDbArc
 50
90.0013205515
 51
180.0
  0
ARC
  5
27D
330
1F
100
AcDbEntity
  8
0
  6
Continuous
 62
     7
420
 16777215
370
    18
100
AcDbCircle
 10
599.707789611
 20
226.0647803586
 30
0.0
 40
3.793913063665173
100
AcDbArc
 50
180.0
 51
270.0013077123
  0
CIRCLE
  5
27E
330
1F
100
AcDbEntity
  8
0
  6
Continuous
 62
     7
420
 16777215
370
    18
100
AcDbCircle
 10
706.322686338
 20
33.3356405076
 30
0.0
 40
1.099999999999997
  0
CIRCLE
  5
27F
330
1F
100
AcDbEntity
  8
0
  6
Continuous
 62
     7
420
 16777215
370
    18
100
AcDbCircle
 10
669.882230415
 20
220.8992247685
 30
0.0
 40
1.099999999999988
  0
CIRCLE
  5
280
330
1F
100
AcDbEntity
  8
0
  6
Continuous
 62
     7
420
 16777215
370
    18
100
AcDbCircle
 10
706.322601014
 20
186.3659130572
 30
0.0
 40
1.099999999999991
  0
ARC
  5
281
330
1F
100
AcDbEntity
  8
0
  6
Continuous
 62
     7
420
 16777215
370
    18
100
AcDbCircle
 10
711.3226884566
 20
179.5720008562
 30
0.0
 40
9.793912201405305
100
AcDbArc
 50
0.0
 51
90.0005115517
  0
ARC
  5
282
330
1F
100
AcDbEntity
  8
0
  6
Continuous
 62
     7
420
 16777215
370
    18
100
AcDbCircle
 10
711.3225997448
 20
40.1296414204
 30
0.0
 40
9.794000913196328
100
AcDbArc
 50
270.0005065781
 51
0.0
  0
CIRCLE
  5
283
330
1F
100
AcDbEntity
  8
0
  6
Continuous
 62
     7
420
 16777215
370
    18
100
AcDbCircle
 10
718.116600658
 20
150.8979813407
 30
0.0
 40
1.099999999999999
  0
CIRCLE
  5
284
330
1F
100
AcDbEntity
  8
0
  6
Continuous
 62
     7
420
 16777215
370
    18
100
AcDbCircle
 10
718.116600658
 20
69.0895380082
 30
0.0
 40
1.100000000000137
  0
ARC
  5
285
330
1F
100
AcDbEntity
  8
0
  6
Continuous
 62
     7
420
 16777215
370
    18
100
AcDbCircle
 10
711.3225997442
 20
40.1296414204
 30
0.0
 40
3.794000913801549
100
AcDbArc
 50
270.0013077121
 51
0.0
  0
ARC
  5
286
330
1F
100
AcDbEntity
  8
0
  6
Continuous
 62
     7
420
 16777215
370
    18
100
AcDbCircle
 10
711.322627511
 20
179.5719399104
 30
0.0
 40
3.793973146998253
100
AcDbArc
 50
0.0
 51
90.0005115517
  0
CIRCLE
  5
287
330
1F
100
AcDbEntity
  8
0
  6
Continuous
 62
     7
420
 16777215
370
    18
100
AcDbCircle
 10
705.0089178793
 20
24.4008203984
 30
0.0
 40
1.099999999999778
  0
CIRCLE
  5
288
330
1F
100
AcDbEntity
  8
0
  6
Continuous
 62
     7
420
 16777215
370
    18
100
AcDbCircle
 10
705.0088305786
 20
177.4310561046
 30
0.0
 40
1.099999999999673
  0
ARC
  5
289
330
1F
100
AcDbEntity
  8
0
  6
Continuous
 62
     7
420
 16777215
370
    18
100
AcDbCircle
 10
700.0088312868
 20
31.194733461
 30
0.0
 40
9.793913063059563
100
AcDbArc
 50
180.0
 51
270.0005065781
  0
ARC
  5
28A
330
1F
100
AcDbEntity
  8
0
  6
Continuous
 62
     7
420
 16777215
370
    18
100
AcDbCircle
 10
700.008918022
 20
170.6370563068
 30
0.0
 40
9.793999798237493
100
AcDbArc
 50
90.0005115517
 51
180.0
  0
CIRCLE
  5
28B
330
1F
100
AcDbEntity
  8
0
  6
Continuous
 62
     7
420
 16777215
370
    18
100
AcDbCircle
 10
693.2149182238
 20
60.1584706232
 30
0.0
 40
1.099999999999669
  0
CIRCLE
  5
28C
330
1F
100
AcDbEntity
  8
0
  6
Continuous
 62
     7
420
 16777215
370
    18
100
AcDbCircle
 10
693.2149182238
 20
141.9669138464
 30
0.0
 40
1.099999999999673
  0
ARC
  5
28D
330
1F
100
AcDbEntity
  8
0
  6
Continuous
 62
     7
420
 16777215
370
    18
100
AcDbCircle
 10
700.0089180226
 20
170.6370563068
 30
0.0
 40
3.793999798854839
100
AcDbArc
 50
90.0013205515
 51
180.0
  0
ARC
  5
28E
330
1F
100
AcDbEntity
  8
0
  6
Continuous
 62
     7
420
 16777215
370
    18
100
AcDbCircle
 10
700.0088312875
 20
31.194733461
 30
0.0
 40
3.793913063665173
100
AcDbArc
 50
180.0
 51
270.0013077123
  0
CIRCLE
  5
28F
330
1F
100
AcDbEntity
  8
0
  6
Continuous
 62
     7
420
 16777215
370
    18
100
AcDbCircle
 10
669.8841067225
 20
28.6821804858
 30
0.0
 40
1.099999999999992
  0
CIRCLE
  5
290
330
1F
100
AcDbEntity
  8
0
  6
Continuous
 62
     7
420
 16777215
370
    18
100
AcDbCircle
 10
647.5366604576
 20
220.0803731916
 30
0.0
 40
1.100000000000097
  0
CIRCLE
  5
291
330
1F
100
AcDbEntity
  8
0
  6
Continuous
 62
     7
420
 16777215
370
    18
100
AcDbCircle
 10
647.5385367651
 20
27.8633289089
 30
0.0
 40
1.1000000000001
  0
CIRCLE
  5
292
330
1F
100
AcDbEntity
  8
0
  6
Continuous
 62
     7
420
 16777215
370
    18
100
AcDbCircle
 10
647.5375986113
 20
123.9718510503
 30
0.0
 40
1.100000000000064
  0
CIRCLE
  5
293
330
1F
100
AcDbEntity
  8
0
  6
Continuous
 62
     7
420
 16777215
370
    18
100
AcDbCircle
 10
647.5347841501
 20
412.2974174744
 30
0.0
 40
1.100000000000158
  0
CIRCLE
  5
294
330
1F
100
AcDbEntity
  8
0
  6
Continuous
 62
     7
420
 16777215
370
    18
100
AcDbCircle
 10
647.5357223039
 20
316.188895333
 30
0.0
 40
1.100000000000091
  0
CIRCLE
  5
295
330
1F
100
AcDbEntity
  8
0
  6
Continuous
 62
     7
420
 16777215
370
    18
100
AcDbCircle
 10
658.7331791963
 20
219.9693168632
 30
0.0
 40
1.099999999999955
  0
CIRCLE
  5
296
330
1F
100
AcDbEntity
  8
0
  6
Continuous
 62
     7
420
 16777215
370
    18
100
AcDbCircle
 10
669.8831685688
 20
124.7907026271
 30
0.0
 40
1.100000000000035
  0
CIRCLE
  5
297
330
1F
100
AcDbEntity
  8
0
  6
Continuous
 62
     7
420
 16777215
370
    18
100
AcDbCircle
 10
658.7350739254
 20
27.7522715922
 30
0.0
 40
1.099999999999959
  0
CIRCLE
  5
298
330
1F
100
AcDbEntity
  8
0
  6
Continuous
 62
     7
420
 16777215
370
    18
100
AcDbCircle
 10
669.8803541076
 20
413.1162690512
 30
0.0
 40
1.099999999999982
  0
CIRCLE
  5
299
330
1F
100
AcDbEntity
  8
0
  6
Continuous
 62
     7
420
 16777215
370
    18
100
AcDbCircle
 10
658.7341265608
 20
123.8607942277
 30
0.0
 40
1.099999999999969
  0
CIRCLE
  5
29A
330
1F
100
AcDbEntity
  8
0
  6
Continuous
 62
     7
420
 16777215
370
    18
100
AcDbCircle
 10
658.7312844671
 20
412.1863621343
 30
0.0
 40
1.100000000000191
  0
CIRCLE
  5
29B
330
1F
100
AcDbEntity
  8
0
  6
Continuous
 62
     7
420
 16777215
370
    18
100
AcDbCircle
 10
658.7322318317
 20
316.0778394988
 30
0.0
 40
1.100000000000082
  0
CIRCLE
  5
29C
330
1F
100
AcDbEntity
  8
0
  6
Continuous
 62
     7
420
 16777215
370
    18
100
AcDbCircle
 10
669.8812922613
 20
317.0077469099
 30
0.0
 40
1.100000000000158
  0
CIRCLE
  5
29D
330
1F
100
AcDbEntity
  8
0
  6
Continuous
 62
     7
420
 16777215
370
    18
100
AcDbCircle
 10
680.7612915142
 20
220.2575445351
 30
0.0
 40
1.099999999999988
  0
CIRCLE
  5
29E
330
1F
100
AcDbEntity
  8
0
  6
Continuous
 62
     7
420
 16777215
370
    18
100
AcDbCircle
 10
680.7631862433
 20
28.0404992641
 30
0.0
 40
1.100000000000067
  0
CIRCLE
  5
29F
330
1F
100
AcDbEntity
  8
0
  6
Continuous
 62
     7
420
 16777215
370
    18
100
AcDbCircle
 10
680.7622388787
 20
124.1490218996
 30
0.0
 40
1.100000000000002
  0
CIRCLE
  5
2A0
330
1F
100
AcDbEntity
  8
0
  6
Continuous
 62
     7
420
 16777215
370
    18
100
AcDbCircle
 10
680.759396785
 20
412.4745898061
 30
0.0
 40
1.099999999999961
  0
CIRCLE
  5
2A1
330
1F
100
AcDbEntity
  8
0
  6
Continuous
 62
     7
420
 16777215
370
    18
100
AcDbCircle
 10
680.7603441496
 20
316.3660671706
 30
0.0
 40
1.099999999999961
  0
CIRCLE
  5
2A2
330
1F
100
AcDbEntity
  8
0
  6
Continuous
 62
     7
420
 16777215
370
    18
100
AcDbCircle
 10
706.3471022593
 20
227.1151933009
 30
0.0
 40
1.100000000000032
  0
CIRCLE
  5
2A3
330
1F
100
AcDbEntity
  8
0
  6
Continuous
 62
     7
420
 16777215
370
    18
100
AcDbCircle
 10
92.9414013235
 20
182.9561250475
 30
0.0
 40
1.100000000000002
  0
CIRCLE
  5
2A4
330
1F
100
AcDbEntity
  8
0
  6
Continuous
 62
     7
420
 16777215
370
    18
100
AcDbCircle
 10
706.3470169353
 20
380.1454658505
 30
0.0
 40
1.099999999999999
  0
CIRCLE
  5
2A5
330
1F
100
AcDbEntity
  8
0
  6
Continuous
 62
     7
420
 16777215
370
    18
100
AcDbCircle
 10
92.9414866475
 20
29.9258524978
 30
0.0
 40
1.099999999999999
  0
ARC
  5
2A6
330
1F
100
AcDbEntity
  8
0
  6
Continuous
 62
     7
420
 16777215
370
    18
100
AcDbCircle
 10
711.3471043779
 20
373.3515536495
 30
0.0
 40
9.793912201405432
100
AcDbArc
 50
0.0
 51
90.0005115517
  0
ARC
  5
2A7
330
1F
100
AcDbEntity
  8
0
  6
Continuous
 62
     7
420
 16777215
370
    18
100
AcDbCircle
 10
711.3470156661
 20
233.9091942137
 30
0.0
 40
9.794000913196214
100
AcDbArc
 50
270.0005065781
 51
0.0
  0
CIRCLE
  5
2A8
330
1F
100
AcDbEntity
  8
0
  6
Continuous
 62
     7
420
 16777215
370
    18
100
AcDbCircle
 10
718.1410165793
 20
344.677534134
 30
0.0
 40
1.099999999999999
  0
CIRCLE
  5
2A9
330
1F
100
AcDbEntity
  8
0
  6
Continuous
 62
     7
420
 16777215
370
    18
100
AcDbCircle
 10
718.1410165793
 20
262.8690908015
 30
0.0
 40
1.100000000000108
  0
ARC
  5
2AA
330
1F
100
AcDbEntity
  8
0
  6
Continuous
 62
     7
420
 16777215
370
    18
100
AcDbCircle
 10
711.3470156655
 20
233.9091942137
 30
0.0
 40
3.794000913801597
100
AcDbArc
 50
270.0013077121
 51
0.0
  0
ARC
  5
2AB
330
1F
100
AcDbEntity
  8
0
  6
Continuous
 62
     7
420
 16777215
370
    18
100
AcDbCircle
 10
711.3470434323
 20
373.3514927037
 30
0.0
 40
3.793973146998042
100
AcDbArc
 50
0.0
 51
90.0005115517
  0
CIRCLE
  5
2AC
330
1F
100
AcDbEntity
  8
0
  6
Continuous
 62
     7
420
 16777215
370
    18
100
AcDbCircle
 10
705.0333338006
 20
218.1803731916
 30
0.0
 40
1.099999999999781
  0
CIRCLE
  5
2AD
330
1F
100
AcDbEntity
  8
0
  6
Continuous
 62
     7
420
 16777215
370
    18
100
AcDbCircle
 10
705.0332464999
 20
371.2106088979
 30
0.0
 40
1.099999999999923
  0
ARC
  5
2AE
330
1F
100
AcDbEntity
  8
0
  6
Continuous
 62
     7
420
 16777215
370
    18
100
AcDbCircle
 10
700.0332472082
 20
224.9742862543
 30
0.0
 40
9.793913063059563
100
AcDbArc
 50
180.0
 51
270.0005065781
  0
ARC
  5
2AF
330
1F
100
AcDbEntity
  8
0
  6
Continuous
 62
     7
420
 16777215
370
    18
100
AcDbCircle
 10
700.0333339433
 20
364.4166091001
 30
0.0
 40
9.79399979823745
100
AcDbArc
 50
90.0005115517
 51
180.0
  0
CIRCLE
  5
2B0
330
1F
100
AcDbEntity
  8
0
  6
Continuous
 62
     7
420
 16777215
370
    18
100
AcDbCircle
 10
693.2393341451
 20
253.9380234165
 30
0.0
 40
1.099999999999673
  0
CIRCLE
  5
2B1
330
1F
100
AcDbEntity
  8
0
  6
Continuous
 62
     7
420
 16777215
370
    18
100
AcDbCircle
 10
693.2393341451
 20
335.7464666397
 30
0.0
 40
1.099999999999723
  0
ARC
  5
2B2
330
1F
100
AcDbEntity
  8
0
  6
Continuous
 62
     7
420
 16777215
370
    18
100
AcDbCircle
 10
700.0333339439
 20
364.4166091001
 30
0.0
 40
3.79399979885477
100
AcDbArc
 50
90.0013205515
 51
180.0
  0
ARC
  5
2B3
330
1F
100
AcDbEntity
  8
0
  6
Continuous
 62
     7
420
 16777215
370
    18
100
AcDbCircle
 10
700.0332472088
 20
224.9742862543
 30
0.0
 40
3.793913063665173
100
AcDbArc
 50
180.0
 51
270.0013077123
  0
CIRCLE
  5
2B4
330
1F
100
AcDbEntity
  8
0
  6
Continuous
 62
     7
420
 16777215
370
    18
100
AcDbCircle
 10
507.375489889
 20
182.9598776624
 30
0.0
 40
1.100000000000016
  0
CIRCLE
  5
2B5
330
1F
100
AcDbEntity
  8
0
  6
Continuous
 62
     7
420
 16777215
370
    18
100
AcDbCircle
 10
507.3755771896
 20
29.9296419561
 30
0.0
 40
1.100000000000122
  0
CIRCLE
  5
2B6
330
1F
100
AcDbEntity
  8
0
  6
Continuous
 62
     7
420
 16777215
370
    18
100
AcDbCircle
 10
300.1585319186
 20
29.927747227
 30
0.0
 40
1.099999999999958
  0
CIRCLE
  5
2B7
330
1F
100
AcDbEntity
  8
0
  6
Continuous
 62
     7
420
 16777215
370
    18
100
AcDbCircle
 10
300.1584456062
 20
182.9580013549
 30
0.0
 40
1.100000000000016
  0
CIRCLE
  5
2B8
330
1F
100
AcDbEntity
  8
0
  6
Continuous
 62
     7
420
 16777215
370
    18
100
AcDbCircle
 10
107.9414013235
 20
182.9561250475
 30
0.0
 40
1.100000000000002
  0
CIRCLE
  5
2B9
330
1F
100
AcDbEntity
  8
0
  6
Continuous
 62
     7
420
 16777215
370
    18
100
AcDbCircle
 10
204.0499234649
 20
182.9570632012
 30
0.0
 40
1.099999999999988
  0
CIRCLE
  5
2BA
330
1F
100
AcDbEntity
  8
0
  6
Continuous
 62
     7
420
 16777215
370
    18
100
AcDbCircle
 10
107.9414866475
 20
29.9258524978
 30
0.0
 40
1.100000000000012
  0
CIRCLE
  5
2BB
330
1F
100
AcDbEntity
  8
0
  6
Continuous
 62
     7
420
 16777215
370
    18
100
AcDbCircle
 10
204.050009283
 20
29.9267998624
 30
0.0
 40
1.100000000000012
  0
CIRCLE
  5
2BC
330
1F
100
AcDbEntity
  8
0
  6
Continuous
 62
     7
420
 16777215
370
    18
100
AcDbCircle
 10
492.375489889
 20
182.9598776624
 30
0.0
 40
1.100000000000016
  0
CIRCLE
  5
2BD
330
1F
100
AcDbEntity
  8
0
  6
Continuous
 62
     7
420
 16777215
370
    18
100
AcDbCircle
 10
396.2669677476
 20
182.9589395087
 30
0.0
 40
1.099999999999961
  0
CIRCLE
  5
2BE
330
1F
100
AcDbEntity
  8
0
  6
Continuous
 62
     7
420
 16777215
370
    18
100
AcDbCircle
 10
492.3755771896
 20
29.9296419561
 30
0.0
 40
1.100000000000012
  0
CIRCLE
  5
2BF
330
1F
100
AcDbEntity
  8
0
  6
Continuous
 62
     7
420
 16777215
370
    18
100
AcDbCircle
 10
396.2670545541
 20
29.9286945916
 30
0.0
 40
1.100000000000012
  0
CIRCLE
  5
2C0
330
1F
100
AcDbEntity
  8
0
  6
Continuous
 62
     7
420
 16777215
370
    18
100
AcDbCircle
 10
105.1474927235
 20
37.9258905747
 30
0.0
 40
2.069487860000052
  0
CIRCLE
  5
2C1
330
1F
100
AcDbEntity
  8
0
  6
Continuous
 62
     7
420
 16777215
370
    18
100
AcDbCircle
 10
214.3064920835
 20
37.9258905747
 30
0.0
 40
2.069487859999924
  0
CIRCLE
  5
2C2
330
1F
100
AcDbEntity
  8
0
  6
Continuous
 62
     7
420
 16777215
370
    18
100
AcDbCircle
 10
300.0314920835
 20
37.9258905747
 30
0.0
 40
2.069487860000152
  0
CIRCLE
  5
2C3
330
1F
100
AcDbEntity
  8
0
  6
Continuous
 62
     7
420
 16777215
370
    18
100
AcDbCircle
 10
435.1474931235
 20
37.9258905747
 30
0.0
 40
2.069487859999924
  0
CIRCLE
  5
2C4
330
1F
100
AcDbEntity
  8
0
  6
Continuous
 62
     7
420
 16777215
370
    18
100
AcDbCircle
 10
435.1474931235
 20
174.9258908947
 30
0.0
 40
2.069487859999924
  0
CIRCLE
  5
2C5
330
1F
100
AcDbEntity
  8
0
  6
Continuous
 62
     7
420
 16777215
370
    18
100
AcDbCircle
 10
105.14827848
 20
174.9258908947
 30
0.0
 40
1.999999999999995
  0
ARC
  5
2C6
330
1F
100
AcDbEntity
  8
0
  6
Continuous
 62
     7
420
 16777215
370
    18
100
AcDbCircle
 10
512.3755764814
 20
176.1659645997
 30
0.0
 40
9.793913063059563
100
AcDbArc
 50
0.0
 51
90.0005065781
  0
ARC
  5
2C7
330
1F
100
AcDbEntity
  8
0
  6
Continuous
 62
     7
420
 16777215
370
    18
100
AcDbCircle
 10
512.3754897462
 20
36.723641754
 30
0.0
 40
9.793999798237365
100
AcDbArc
 50
270.0005115517
 51
0.0
  0
ARC
  5
2C8
330
1F
100
AcDbEntity
  8
0
  6
Continuous
 62
     7
420
 16777215
370
    18
100
AcDbCircle
 10
87.9413992049
 20
36.7197646989
 30
0.0
 40
9.793912201405334
100
AcDbArc
 50
180.0
 51
270.0005115517
  0
ARC
  5
2C9
330
1F
100
AcDbEntity
  8
0
  6
Continuous
 62
     7
420
 16777215
370
    18
100
AcDbCircle
 10
87.9414879167
 20
176.1621241347
 30
0.0
 40
9.79400091319615
100
AcDbArc
 50
90.0005065781
 51
180.0
  0
CIRCLE
  5
2CA
330
1F
100
AcDbEntity
  8
0
  6
Continuous
 62
     7
420
 16777215
370
    18
100
AcDbCircle
 10
81.1474870035
 20
65.3937842143
 30
0.0
 40
1.100000000000011
  0
CIRCLE
  5
2CB
330
1F
100
AcDbEntity
  8
0
  6
Continuous
 62
     7
420
 16777215
370
    18
100
AcDbCircle
 10
81.1474870035
 20
147.2022275468
 30
0.0
 40
1.100000000000016
  0
CIRCLE
  5
2CC
330
1F
100
AcDbEntity
  8
0
  6
Continuous
 62
     7
420
 16777215
370
    18
100
AcDbCircle
 10
519.1694895445
 20
147.2022274375
 30
0.0
 40
1.099999999999798
  0
CIRCLE
  5
2CD
330
1F
100
AcDbEntity
  8
0
  6
Continuous
 62
     7
420
 16777215
370
    18
100
AcDbCircle
 10
519.1694895445
 20
65.3937842143
 30
0.0
 40
1.099999999999794
  0
CIRCLE
  5
2CE
330
1F
100
AcDbEntity
  8
0
  6
Continuous
 62
     7
420
 16777215
370
    18
100
AcDbCircle
 10
92.1162663051
 20
350.9779820402
 30
0.0
 40
1.100000000000016
  0
CIRCLE
  5
2CF
330
1F
100
AcDbEntity
  8
0
  6
Continuous
 62
     7
420
 16777215
370
    18
100
AcDbCircle
 10
92.1163516291
 20
197.9477094906
 30
0.0
 40
1.100000000000002
  0
CIRCLE
  5
2D0
330
1F
100
AcDbEntity
  8
0
  6
Continuous
 62
     7
420
 16777215
370
    18
100
AcDbCircle
 10
506.5503548705
 20
350.9817346551
 30
0.0
 40
1.100000000000124
  0
CIRCLE
  5
2D1
330
1F
100
AcDbEntity
  8
0
  6
Continuous
 62
     7
420
 16777215
370
    18
100
AcDbCircle
 10
506.5504421712
 20
197.9514989489
 30
0.0
 40
1.100000000000016
  0
CIRCLE
  5
2D2
330
1F
100
AcDbEntity
  8
0
  6
Continuous
 62
     7
420
 16777215
370
    18
100
AcDbCircle
 10
299.3333969001
 20
197.9496042197
 30
0.0
 40
1.099999999999953
  0
CIRCLE
  5
2D3
330
1F
100
AcDbEntity
  8
0
  6
Continuous
 62
     7
420
 16777215
370
    18
100
AcDbCircle
 10
299.3333105878
 20
350.9798583477
 30
0.0
 40
1.100000000000016
  0
CIRCLE
  5
2D4
330
1F
100
AcDbEntity
  8
0
  6
Continuous
 62
     7
420
 16777215
370
    18
100
AcDbCircle
 10
107.1162663051
 20
350.9779820402
 30
0.0
 40
1.100000000000002
  0
CIRCLE
  5
2D5
330
1F
100
AcDbEntity
  8
0
  6
Continuous
 62
     7
420
 16777215
370
    18
100
AcDbCircle
 10
203.2247884464
 20
350.9789201939
 30
0.0
 40
1.099999999999988
  0
CIRCLE
  5
2D6
330
1F
100
AcDbEntity
  8
0
  6
Continuous
 62
     7
420
 16777215
370
    18
100
AcDbCircle
 10
107.1163516291
 20
197.9477094906
 30
0.0
 40
1.100000000000002
  0
CIRCLE
  5
2D7
330
1F
100
AcDbEntity
  8
0
  6
Continuous
 62
     7
420
 16777215
370
    18
100
AcDbCircle
 10
203.2248742646
 20
197.9486568551
 30
0.0
 40
1.09999999999998
  0
CIRCLE
  5
2D8
330
1F
100
AcDbEntity
  8
0
  6
Continuous
 62
     7
420
 16777215
370
    18
100
AcDbCircle
 10
491.5503548705
 20
350.9817346551
 30
0.0
 40
1.099999999999961
  0
CIRCLE
  5
2D9
330
1F
100
AcDbEntity
  8
0
  6
Continuous
 62
     7
420
 16777215
370
    18
100
AcDbCircle
 10
395.4418327292
 20
350.9807965014
 30
0.0
 40
1.099999999999961
  0
CIRCLE
  5
2DA
330
1F
100
AcDbEntity
  8
0
  6
Continuous
 62
     7
420
 16777215
370
    18
100
AcDbCircle
 10
491.5504421712
 20
197.9514989489
 30
0.0
 40
1.100000000000016
  0
CIRCLE
  5
2DB
330
1F
100
AcDbEntity
  8
0
  6
Continuous
 62
     7
420
 16777215
370
    18
100
AcDbCircle
 10
395.4419195357
 20
197.9505515843
 30
0.0
 40
1.099999999999961
  0
CIRCLE
  5
2DC
330
1F
100
AcDbEntity
  8
0
  6
Continuous
 62
     7
420
 16777215
370
    18
100
AcDbCircle
 10
104.3223577051
 20
205.9477475674
 30
0.0
 40
2.069487860000052
  0
CIRCLE
  5
2DD
330
1F
100
AcDbEntity
  8
0
  6
Continuous
 62
     7
420
 16777215
370
    18
100
AcDbCircle
 10
213.4813570651
 20
205.9477475674
 30
0.0
 40
2.069487859999924
  0
CIRCLE
  5
2DE
330
1F
100
AcDbEntity
  8
0
  6
Continuous
 62
     7
420
 16777215
370
    18
100
AcDbCircle
 10
299.2063570651
 20
205.9477475674
 30
0.0
 40
2.069487860000152
  0
CIRCLE
  5
2DF
330
1F
100
AcDbEntity
  8
0
  6
Continuous
 62
     7
420
 16777215
370
    18
100
AcDbCircle
 10
434.3223581051
 20
205.9477475674
 30
0.0
 40
2.069487859999924
  0
CIRCLE
  5
2E0
330
1F
100
AcDbEntity
  8
0
  6
Continuous
 62
     7
420
 16777215
370
    18
100
AcDbCircle
 10
434.3223581051
 20
342.9477478874
 30
0.0
 40
2.069487859999924
  0
CIRCLE
  5
2E1
330
1F
100
AcDbEntity
  8
0
  6
Continuous
 62
     7
420
 16777215
370
    18
100
AcDbCircle
 10
299.2063570651
 20
328.3127479474
 30
0.0
 40
2.069487860000152
  0
CIRCLE
  5
2E2
330
1F
100
AcDbEntity
  8
0
  6
Continuous
 62
     7
420
 16777215
370
    18
100
AcDbCircle
 10
213.4813570651
 20
328.3127479474
 30
0.0
 40
2.069487859999924
  0
CIRCLE
  5
2E3
330
1F
100
AcDbEntity
  8
0
  6
Continuous
 62
     7
420
 16777215
370
    18
100
AcDbCircle
 10
104.3223577051
 20
342.9477478874
 30
0.0
 40
2.069487860000052
  0
ARC
  5
2E4
330
1F
100
AcDbEntity
  8
0
  6
Continuous
 62
     7
420
 16777215
370
    18
100
AcDbCircle
 10
511.550441463
 20
344.1878215925
 30
0.0
 40
9.79391306305962
100
AcDbArc
 50
0.0
 51
90.0005065781
  0
ARC
  5
2E5
330
1F
100
AcDbEntity
  8
0
  6
Continuous
 62
     7
420
 16777215
370
    18
100
AcDbCircle
 10
511.5503547278
 20
204.7454987467
 30
0.0
 40
9.793999798237394
100
AcDbArc
 50
270.0005115517
 51
0.0
  0
ARC
  5
2E6
330
1F
100
AcDbEntity
  8
0
  6
Continuous
 62
     7
420
 16777215
370
    18
100
AcDbCircle
 10
87.1162641865
 20
204.7416216916
 30
0.0
 40
9.79391220140532
100
AcDbArc
 50
180.0
 51
270.0005115517
  0
ARC
  5
2E7
330
1F
100
AcDbEntity
  8
0
  6
Continuous
 62
     7
420
 16777215
370
    18
100
AcDbCircle
 10
87.1163528983
 20
344.1839811274
 30
0.0
 40
9.794000913196179
100
AcDbArc
 50
90.0005065781
 51
180.0
  0
CIRCLE
  5
2E8
330
1F
100
AcDbEntity
  8
0
  6
Continuous
 62
     7
420
 16777215
370
    18
100
AcDbCircle
 10
80.3223519851
 20
233.4156412071
 30
0.0
 40
1.100000000000002
  0
CIRCLE
  5
2E9
330
1F
100
AcDbEntity
  8
0
  6
Continuous
 62
     7
420
 16777215
370
    18
100
AcDbCircle
 10
80.3223519851
 20
315.2240845396
 30
0.0
 40
1.100000000000002
  0
CIRCLE
  5
2EA
330
1F
100
AcDbEntity
  8
0
  6
Continuous
 62
     7
420
 16777215
370
    18
100
AcDbCircle
 10
518.344354526
 20
315.2240844303
 30
0.0
 40
1.100000000000016
  0
CIRCLE
  5
2EB
330
1F
100
AcDbEntity
  8
0
  6
Continuous
 62
     7
420
 16777215
370
    18
100
AcDbCircle
 10
518.344354526
 20
233.4156412071
 30
0.0
 40
1.100000000000016
  0
CIRCLE
  5
2EC
330
1F
100
AcDbEntity
  8
0
  6
Continuous
 62
     7
420
 16777215
370
    18
100
AcDbCircle
 10
118.3791198763
 20
388.3694333313
 30
0.0
 40
1.100000000000011
  0
CIRCLE
  5
2ED
330
1F
100
AcDbEntity
  8
0
  6
Continuous
 62
     7
420
 16777215
370
    18
100
AcDbCircle
 10
305.9427041372
 20
424.8098892543
 30
0.0
 40
1.099999999999978
  0
CIRCLE
  5
2EE
330
1F
100
AcDbEntity
  8
0
  6
Continuous
 62
     7
420
 16777215
370
    18
100
AcDbCircle
 10
271.4093924259
 20
388.3695186553
 30
0.0
 40
1.099999999999945
  0
ARC
  5
2EF
330
1F
100
AcDbEntity
  8
0
  6
Continuous
 62
     7
420
 16777215
370
    18
100
AcDbCircle
 10
264.6154802249
 20
383.3694312127
 30
0.0
 40
9.793912201405305
100
AcDbArc
 50
270.0
 51
0.0005115517
  0
ARC
  5
2F0
330
1F
100
AcDbEntity
  8
0
  6
Continuous
 62
     7
420
 16777215
370
    18
100
AcDbCircle
 10
125.1731207891
 20
383.3695199245
 30
0.0
 40
9.794000913196214
100
AcDbArc
 50
180.0005065781
 51
270.0
  0
CIRCLE
  5
2F1
330
1F
100
AcDbEntity
  8
0
  6
Continuous
 62
     7
420
 16777215
370
    18
100
AcDbCircle
 10
235.9414607094
 20
376.5755190113
 30
0.0
 40
1.099999999999999
  0
CIRCLE
  5
2F2
330
1F
100
AcDbEntity
  8
0
  6
Continuous
 62
     7
420
 16777215
370
    18
100
AcDbCircle
 10
154.1330173769
 20
376.5755190113
 30
0.0
 40
1.100000000000132
  0
ARC
  5
2F3
330
1F
100
AcDbEntity
  8
0
  6
Continuous
 62
     7
420
 16777215
370
    18
100
AcDbCircle
 10
125.1731207891
 20
383.3695199251
 30
0.0
 40
3.794000913801549
100
AcDbArc
 50
180.0013077121
 51
270.0
  0
ARC
  5
2F4
330
1F
100
AcDbEntity
  8
0
  6
Continuous
 62
     7
420
 16777215
370
    18
100
AcDbCircle
 10
264.6154192791
 20
383.3694921583
 30
0.0
 40
3.793973146998281
100
AcDbArc
 50
270.0
 51
0.0005115517
  0
CIRCLE
  5
2F5
330
1F
100
AcDbEntity
  8
0
  6
Continuous
 62
     7
420
 16777215
370
    18
100
AcDbCircle
 10
109.4442997671
 20
389.68320179
 30
0.0
 40
1.099999999999781
  0
CIRCLE
  5
2F6
330
1F
100
AcDbEntity
  8
0
  6
Continuous
 62
     7
420
 16777215
370
    18
100
AcDbCircle
 10
262.4745354734
 20
389.6832890907
 30
0.0
 40
1.099999999999673
  0
ARC
  5
2F7
330
1F
100
AcDbEntity
  8
0
  6
Continuous
 62
     7
420
 16777215
370
    18
100
AcDbCircle
 10
116.2382128298
 20
394.6832883825
 30
0.0
 40
9.793913063059676
100
AcDbArc
 50
90.0
 51
180.0005065781
  0
ARC
  5
2F8
330
1F
100
AcDbEntity
  8
0
  6
Continuous
 62
     7
420
 16777215
370
    18
100
AcDbCircle
 10
255.6805356755
 20
394.6832016473
 30
0.0
 40
9.793999798237493
100
AcDbArc
 50
0.0005115517
 51
90.0
  0
CIRCLE
  5
2F9
330
1F
100
AcDbEntity
  8
0
  6
Continuous
 62
     7
420
 16777215
370
    18
100
AcDbCircle
 10
145.201949992
 20
401.4772014455
 30
0.0
 40
1.099999999999665
  0
CIRCLE
  5
2FA
330
1F
100
AcDbEntity
  8
0
  6
Continuous
 62
     7
420
 16777215
370
    18
100
AcDbCircle
 10
227.0103932152
 20
401.4772014455
 30
0.0
 40
1.09999999999961
  0
ARC
  5
2FB
330
1F
100
AcDbEntity
  8
0
  6
Continuous
 62
     7
420
 16777215
370
    18
100
AcDbCircle
 10
255.6805356755
 20
394.6832016467
 30
0.0
 40
3.793999798854839
100
AcDbArc
 50
0.0013205515
 51
90.0
  0
ARC
  5
2FC
330
1F
100
AcDbEntity
  8
0
  6
Continuous
 62
     7
420
 16777215
370
    18
100
AcDbCircle
 10
116.2382128298
 20
394.6832883819
 30
0.0
 40
3.793913063665173
100
AcDbArc
 50
90.0
 51
180.0013077123
  0
CIRCLE
  5
2FD
330
1F
100
AcDbEntity
  8
0
  6
Continuous
 62
     7
420
 16777215
370
    18
100
AcDbCircle
 10
113.7256598545
 20
424.8080129468
 30
0.0
 40
1.100000000000019
  0
CIRCLE
  5
2FE
330
1F
100
AcDbEntity
  8
0
  6
Continuous
 62
     7
420
 16777215
370
    18
100
AcDbCircle
 10
305.1238525604
 20
447.1554592117
 30
0.0
 40
1.100000000000053
  0
CIRCLE
  5
2FF
330
1F
100
AcDbEntity
  8
0
  6
Continuous
 62
     7
420
 16777215
370
    18
100
AcDbCircle
 10
112.9068082776
 20
447.1535829042
 30
0.0
 40
1.100000000000026
  0
CIRCLE
  5
300
330
1F
100
AcDbEntity
  8
0
  6
Continuous
 62
     7
420
 16777215
370
    18
100
AcDbCircle
 10
209.015330419
 20
447.154521058
 30
0.0
 40
1.10000000000008
  0
CIRCLE
  5
301
330
1F
100
AcDbEntity
  8
0
  6
Continuous
 62
     7
420
 16777215
370
    18
100
AcDbCircle
 10
497.3408968431
 20
447.1573355192
 30
0.0
 40
1.100000000000174
  0
CIRCLE
  5
302
330
1F
100
AcDbEntity
  8
0
  6
Continuous
 62
     7
420
 16777215
370
    18
100
AcDbCircle
 10
401.2323747017
 20
447.1563973654
 30
0.0
 40
1.100000000000108
  0
CIRCLE
  5
303
330
1F
100
AcDbEntity
  8
0
  6
Continuous
 62
     7
420
 16777215
370
    18
100
AcDbCircle
 10
305.012796232
 20
435.958940473
 30
0.0
 40
1.099999999999999
  0
CIRCLE
  5
304
330
1F
100
AcDbEntity
  8
0
  6
Continuous
 62
     7
420
 16777215
370
    18
100
AcDbCircle
 10
209.8341819959
 20
424.8089511005
 30
0.0
 40
1.100000000000005
  0
CIRCLE
  5
305
330
1F
100
AcDbEntity
  8
0
  6
Continuous
 62
     7
420
 16777215
370
    18
100
AcDbCircle
 10
112.7957509609
 20
435.9570457439
 30
0.0
 40
1.099999999999985
  0
CIRCLE
  5
306
330
1F
100
AcDbEntity
  8
0
  6
Continuous
 62
     7
420
 16777215
370
    18
100
AcDbCircle
 10
498.15974842
 20
424.8117655617
 30
0.0
 40
1.099999999999999
  0
CIRCLE
  5
307
330
1F
100
AcDbEntity
  8
0
  6
Continuous
 62
     7
420
 16777215
370
    18
100
AcDbCircle
 10
208.9042735965
 20
435.9579931085
 30
0.0
 40
1.099999999999972
  0
CIRCLE
  5
308
330
1F
100
AcDbEntity
  8
0
  6
Continuous
 62
     7
420
 16777215
370
    18
100
AcDbCircle
 10
497.229841503
 20
435.9608352022
 30
0.0
 40
1.100000000000174
  0
CIRCLE
  5
309
330
1F
100
AcDbEntity
  8
0
  6
Continuous
 62
     7
420
 16777215
370
    18
100
AcDbCircle
 10
401.1213188675
 20
435.9598878376
 30
0.0
 40
1.100000000000065
  0
CIRCLE
  5
30A
330
1F
100
AcDbEntity
  8
0
  6
Continuous
 62
     7
420
 16777215
370
    18
100
AcDbCircle
 10
402.0512262786
 20
424.810827408
 30
0.0
 40
1.100000000000141
  0
CIRCLE
  5
30B
330
1F
100
AcDbEntity
  8
0
  6
Continuous
 62
     7
420
 16777215
370
    18
100
AcDbCircle
 10
305.3010239038
 20
413.9308281551
 30
0.0
 40
1.100000000000016
  0
CIRCLE
  5
30C
330
1F
100
AcDbEntity
  8
0
  6
Continuous
 62
     7
420
 16777215
370
    18
100
AcDbCircle
 10
113.0839786328
 20
413.928933426
 30
0.0
 40
1.099999999999985
  0
CIRCLE
  5
30D
330
1F
100
AcDbEntity
  8
0
  6
Continuous
 62
     7
420
 16777215
370
    18
100
AcDbCircle
 10
209.1925012683
 20
413.9298807906
 30
0.0
 40
1.100000000000005
  0
CIRCLE
  5
30E
330
1F
100
AcDbEntity
  8
0
  6
Continuous
 62
     7
420
 16777215
370
    18
100
AcDbCircle
 10
497.5180691749
 20
413.9327228843
 30
0.0
 40
1.099999999999978
  0
CIRCLE
  5
30F
330
1F
100
AcDbEntity
  8
0
  6
Continuous
 62
     7
420
 16777215
370
    18
100
AcDbCircle
 10
401.4095465394
 20
413.9317755197
 30
0.0
 40
1.099999999999978
  0
CIRCLE
  5
310
330
1F
100
AcDbEntity
  8
0
  6
Continuous
 62
     7
420
 16777215
370
    18
100
AcDbCircle
 10
312.1586726696
 20
388.34501741
 30
0.0
 40
1.100000000000032
  0
CIRCLE
  5
311
330
1F
100
AcDbEntity
  8
0
  6
Continuous
 62
     7
420
 16777215
370
    18
100
AcDbCircle
 10
465.1889452192
 20
388.345102734
 30
0.0
 40
1.099999999999928
  0
ARC
  5
312
330
1F
100
AcDbEntity
  8
0
  6
Continuous
 62
     7
420
 16777215
370
    18
100
AcDbCircle
 10
458.3950330182
 20
383.3450152914
 30
0.0
 40
9.793912201405432
100
AcDbArc
 50
270.0
 51
0.0005115517
  0
ARC
  5
313
330
1F
100
AcDbEntity
  8
0
  6
Continuous
 62
     7
420
 16777215
370
    18
100
AcDbCircle
 10
318.9526735824
 20
383.3451040032
 30
0.0
 40
9.794000913196214
100
AcDbArc
 50
180.0005065781
 51
270.0
  0
CIRCLE
  5
314
330
1F
100
AcDbEntity
  8
0
  6
Continuous
 62
     7
420
 16777215
370
    18
100
AcDbCircle
 10
429.7210135027
 20
376.55110309
 30
0.0
 40
1.099999999999999
  0
CIRCLE
  5
315
330
1F
100
AcDbEntity
  8
0
  6
Continuous
 62
     7
420
 16777215
370
    18
100
AcDbCircle
 10
347.9125701702
 20
376.55110309
 30
0.0
 40
1.100000000000108
  0
ARC
  5
316
330
1F
100
AcDbEntity
  8
0
  6
Continuous
 62
     7
420
 16777215
370
    18
100
AcDbCircle
 10
318.9526735824
 20
383.3451040038
 30
0.0
 40
3.79400091380154
100
AcDbArc
 50
180.0013077121
 51
270.0
  0
ARC
  5
317
330
1F
100
AcDbEntity
  8
0
  6
Continuous
 62
     7
420
 16777215
370
    18
100
AcDbCircle
 10
458.3949720724
 20
383.345076237
 30
0.0
 40
3.793973146998098
100
AcDbArc
 50
270.0
 51
0.0005115517
  0
CIRCLE
  5
318
330
1F
100
AcDbEntity
  8
0
  6
Continuous
 62
     7
420
 16777215
370
    18
100
AcDbCircle
 10
303.2238525604
 20
389.6587858687
 30
0.0
 40
1.099999999999781
  0
CIRCLE
  5
319
330
1F
100
AcDbEntity
  8
0
  6
Continuous
 62
     7
420
 16777215
370
    18
100
AcDbCircle
 10
456.2540882667
 20
389.6588731694
 30
0.0
 40
1.099999999999907
  0
ARC
  5
31A
330
1F
100
AcDbEntity
  8
0
  6
Continuous
 62
     7
420
 16777215
370
    18
100
AcDbCircle
 10
310.017765623
 20
394.6588724612
 30
0.0
 40
9.793913063059676
100
AcDbArc
 50
90.0
 51
180.0005065781
  0
ARC
  5
31B
330
1F
100
AcDbEntity
  8
0
  6
Continuous
 62
     7
420
 16777215
370
    18
100
AcDbCircle
 10
449.4600884688
 20
394.658785726
 30
0.0
 40
9.79399979823745
100
AcDbArc
 50
0.0005115517
 51
90.0
  0
CIRCLE
  5
31C
330
1F
100
AcDbEntity
  8
0
  6
Continuous
 62
     7
420
 16777215
370
    18
100
AcDbCircle
 10
338.9815027852
 20
401.4527855242
 30
0.0
 40
1.099999999999673
  0
CIRCLE
  5
31D
330
1F
100
AcDbEntity
  8
0
  6
Continuous
 62
     7
420
 16777215
370
    18
100
AcDbCircle
 10
420.7899460085
 20
401.4527855242
 30
0.0
 40
1.099999999999739
  0
ARC
  5
31E
330
1F
100
AcDbEntity
  8
0
  6
Continuous
 62
     7
420
 16777215
370
    18
100
AcDbCircle
 10
449.4600884688
 20
394.6587857254
 30
0.0
 40
3.79399979885477
100
AcDbArc
 50
0.0013205515
 51
90.0
  0
ARC
  5
31F
330
1F
100
AcDbEntity
  8
0
  6
Continuous
 62
     7
420
 16777215
370
    18
100
AcDbCircle
 10
310.017765623
 20
394.6588724605
 30
0.0
 40
3.793913063665173
100
AcDbArc
 50
90.0
 51
180.0013077123
  0
POINT
  5
320
330
1F
100
AcDbEntity
  8
0
  6
Continuous
 62
     7
420
 16777215
370
    18
100
AcDbPoint
 10
496.5054933435
 20
58.3428906347
 30
0.0
  0
POINT
  5
321
330
1F
100
AcDbEntity
  8
0
  6
Continuous
 62
     7
420
 16777215
370
    18
100
AcDbPoint
 10
458.0114936235
 20
157.0288908747
 30
0.0
  0
POINT
  5
322
330
1F
100
AcDbEntity
  8
0
  6
Continuous
 62
     7
420
 16777215
370
    18
100
AcDbPoint
 10
515.1694946736
 20
40.2188908147
 30
0.0
  0
POINT
  5
323
330
1F
100
AcDbEntity
  8
0
  6
Continuous
 62
     7
420
 16777215
370
    18
100
AcDbPoint
 10
508.4414918736
 20
94.5788913147
 30
0.0
  0
POINT
  5
324
330
1F
100
AcDbEntity
  8
0
  6
Continuous
 62
     7
420
 16777215
370
    18
100
AcDbPoint
 10
468.5014916935
 20
178.9588914647
 30
0.0
  0
POINT
  5
325
330
1F
100
AcDbEntity
  8
0
  6
Continuous
 62
     7
420
 16777215
370
    18
100
AcDbPoint
 10
482.5014916335
 20
172.2288922247
 30
0.0
  0
POINT
  5
326
330
1F
100
AcDbEntity
  8
0
  6
Continuous
 62
     7
420
 16777215
370
    18
100
AcDbPoint
 10
89.6967329235
 20
171.3711251747
 30
0.0
  0
POINT
  5
327
330
1F
100
AcDbEntity
  8
0
  6
Continuous
 62
     7
420
 16777215
370
    18
100
AcDbPoint
 10
448.3086334235
 20
42.5948272947
 30
0.0
  0
ENDSEC
  0
SECTION
  2
OBJECTS
  0
DICTIONARY
  5
C
330
0
100
AcDbDictionary
281
     1
  3
ACAD_DETAILVIEWSTYLE
350
330
  3
ACAD_GROUP
350
D
  3
ACAD_LAYOUT
350
1A
  3
ACAD_MATERIAL
350
43
  3
ACAD_MLEADERSTYLE
350
6B
  3
ACAD_MLINESTYLE
350
17
  3
ACAD_PLOTSETTINGS
350
19
  3
ACAD_PLOTSTYLENAME
350
E
  3
ACAD_SCALELIST
350
47
  3
ACAD_SECTIONVIEWSTYLE
350
331
  3
ACAD_TABLESTYLE
350
69
  3
ACAD_VISUALSTYLE
350
2A
  3
ACDB_RECOMPOSE_DATA
350
32D
  3
AcDbVariableDictionary
350
328
  0
SUN
  5
6D
330
29
100
AcDbSun
 90
        1
290
     0
 63
     7
421
 16777215
 40
1.0
291
     1
 91
  2455826
 92
 54000000
292
     0
 70
     2
 71
   256
280
     1
  0
DICTIONARY
  5
330
102
{ACAD_REACTORS
330
C
102
}
330
C
100
AcDbDictionary
281
     1
  0
DICTIONARY
  5
D
102
{ACAD_REACTORS
330
C
102
}
330
C
100
AcDbDictionary
281
     1
  0
DICTIONARY
  5
1A
102
{ACAD_REACTORS
330
C
102
}
330
C
100
AcDbDictionary
281
     1
  3
Layout1
350
1E
  3
Layout2
350
26
  3
Model
350
22
  0
DICTIONARY
  5
43
102
{ACAD_REACTORS
330
C
102
}
330
C
100
AcDbDictionary
281
     1
  3
ByBlock
350
45
  3
ByLayer
350
44
  3
Global
350
46
  0
DICTIONARY
  5
6B
102
{ACAD_REACTORS
330
C
102
}
330
C
100
AcDbDictionary
281
     1
  3
Standard
350
6C
  0
DICTIONARY
  5
17
102
{ACAD_REACTORS
330
C
102
}
330
C
100
AcDbDictionary
281
     1
  3
Standard
350
18
  0
DICTIONARY
  5
19
102
{ACAD_REACTORS
330
C
102
}
330
C
100
AcDbDictionary
281
     1
  0
ACDBDICTIONARYWDFLT
  5
E
102
{ACAD_REACTORS
330
C
102
}
330
C
100
AcDbDictionary
281
     1
  3
Normal
350
F
100
AcDbDictionaryWithDefault
340
F
  0
DICTIONARY
  5
47
102
{ACAD_REACTORS
330
C
102
}
330
C
100
AcDbDictionary
281
     1
  3
A0
350
48
  3
A1
350
49
  3
A2
350
4A
  3
A3
350
4B
  3
A4
350
4C
  3
A5
350
4D
  3
A6
350
4E
  3
A7
350
4F
  3
A8
350
50
  3
A9
350
51
  3
B0
350
52
  3
B1
350
53
  3
B2
350
54
  3
B3
350
55
  3
B4
350
56
  3
B5
350
57
  3
B6
350
58
  3
B7
350
59
  3
B8
350
5A
  3
B9
350
5B
  3
C0
350
5C
  3
C1
350
5D
  3
C2
350
5E
  3
C3
350
5F
  3
C4
350
60
  3
C5
350
61
  3
C6
350
62
  3
C7
350
63
  3
C8
350
64
  3
C9
350
65
  3
D0
350
66
  3
D1
350
67
  3
D2
350
68
  0
DICTIONARY
  5
331
102
{ACAD_REACTORS
330
C
102
}
330
C
100
AcDbDictionary
281
     1
  0
DICTIONARY
  5
69
102
{ACAD_REACTORS
330
C
102
}
330
C
100
AcDbDictionary
281
     1
  3
Standard
350
6A
  0
DICTIONARY
  5
2A
102
{ACAD_REACTORS
330
C
102
}
330
C
100
AcDbDictionary
281
     1
  3
2dWireframe
350
2F
  3
Basic
350
32
  3
Brighten
350
36
  3
ColorChange
350
3A
  3
Conceptual
350
34
  3
Dim
350
35
  3
EdgeColorOff
350
3D
  3
Facepattern
350
39
  3
Flat
350
2B
  3
FlatWithEdges
350
2C
  3
Gouraud
350
2D
  3
GouraudWithEdges
350
2E
  3
Hidden
350
31
  3
JitterOff
350
3B
  3
Linepattern
350
38
  3
OverhangOff
350
3C
  3
Realistic
350
33
  3
Shaded
350
42
  3
Shaded with edges
350
41
  3
Shades of Gray
350
3E
  3
Sketchy
350
3F
  3
Thicken
350
37
  3
Wireframe
350
30
  3
X-Ray
350
40
  0
XRECORD
  5
32D
102
{ACAD_REACTORS
330
C
102
}
330
C
100
AcDbXrecord
280
     1
 90
        1
330
6A
  0
DICTIONARY
  5
328
102
{ACAD_REACTORS
330
C
102
}
330
C
100
AcDbDictionary
281
     1
  3
CANNOSCALE
350
329
  3
CENTEREXE
350
332
  3
CENTERLTYPEFILE
350
333
  3
CMLEADERSTYLE
350
32F
  3
CTABLESTYLE
350
32E
  0
LAYOUT
  5
1E
102
{ACAD_REACTORS
330
1A
102
}
330
1A
100
AcDbPlotSettings
  1

  2
none_device
  4

  6

 40
0.0
 41
0.0
 42
0.0
 43
0.0
 44
0.0
 45
0.0
 46
0.0
 47
0.0
 48
0.0
 49
0.0
140
0.0
141
0.0
142
1.0
143
1.0
 70
   688
 72
     1
 73
     0
 74
     5
  7

 75
    16
 76
     0
 77
     2
 78
   300
147
1.0
148
0.0
149
0.0
100
AcDbLayout
  1
Layout1
 70
     1
 71
     1
 10
0.0
 20
0.0
 11
420.0
 21
297.0
 12
0.0
 22
0.0
 32
0.0
 14
1.0000000000E+20
 24
1.0000000000E+20
 34
1.0000000000E+20
 15
-1.0000000000E+20
 25
-1.0000000000E+20
 35
-1.0000000000E+20
146
0.0
 13
0.0
 23
0.0
 33
0.0
 16
1.0
 26
0.0
 36
0.0
 17
0.0
 27
1.0
 37
0.0
 76
     0
330
1B
  0
LAYOUT
  5
26
102
{ACAD_REACTORS
330
1A
102
}
330
1A
100
AcDbPlotSettings
  1

  2
none_device
  4

  6

 40
0.0
 41
0.0
 42
0.0
 43
0.0
 44
0.0
 45
0.0
 46
0.0
 47
0.0
 48
0.0
 49
0.0
140
0.0
141
0.0
142
1.0
143
1.0
 70
   688
 72
     1
 73
     0
 74
     5
  7

 75
    16
 76
     0
 77
     2
 78
   300
147
1.0
148
0.0
149
0.0
100
AcDbLayout
  1
Layout2
 70
     1
 71
     2
 10
0.0
 20
0.0
 11
0.0
 21
0.0
 12
0.0
 22
0.0
 32
0.0
 14
0.0
 24
0.0
 34
0.0
 15
0.0
 25
0.0
 35
0.0
146
0.0
 13
0.0
 23
0.0
 33
0.0
 16
1.0
 26
0.0
 36
0.0
 17
0.0
 27
1.0
 37
0.0
 76
     0
330
23
  0
LAYOUT
  5
22
102
{ACAD_REACTORS
330
1A
102
}
330
1A
100
AcDbPlotSettings
  1

  2
none_device
  4
Letter_(8.50_x_11.00_Inches)
  6

 40
6.35
 41
6.35
 42
6.35000508
 43
6.35000508
 44
215.9
 45
279.4
 46
0.0
 47
0.0
 48
0.0
 49
0.0
140
0.0
141
0.0
142
1.0
143
1.0
 70
  1712
 72
     1
 73
     0
 74
     0
  7

 75
     0
 76
     0
 77
     2
 78
   300
147
1.0
148
0.0
149
0.0
100
AcDbLayout
  1
Model
 70
     1
 71
     0
 10
0.0
 20
0.0
 11
594.0
 21
420.0
 12
0.0
 22
0.0
 32
0.0
 14
0.0
 24
0.0
 34
0.0
 15
594.0
 25
420.0
 35
0.0
146
0.0
 13
0.0
 23
0.0
 33
0.0
 16
1.0
 26
0.0
 36
0.0
 17
0.0
 27
1.0
 37
0.0
 76
     0
330
1F
331
29
  0
MATERIAL
  5
45
102
{ACAD_REACTORS
330
43
102
}
330
43
100
AcDbMaterial
  1
ByBlock
 72
     1
 94
      127
  0
MATERIAL
  5
44
102
{ACAD_REACTORS
330
43
102
}
330
43
100
AcDbMaterial
  1
ByLayer
 72
     1
 94
      127
  0
MATERIAL
  5
46
102
{ACAD_REACTORS
330
43
102
}
330
43
100
AcDbMaterial
  1
Global
 72
     1
 94
      127
  0
MLEADERSTYLE
  5
6C
102
{ACAD_REACTORS
330
6B
102
}
330
6B
100
AcDbMLeaderStyle
170
     2
171
     1
172
     0
 90
        2
 40
0.0
 41
0.0
173
     1
 91
-1056964608
340
14
 92
       -2
290
     1
 42
2.0
291
     1
 43
8.0
  3
Standard
341
0
 44
4.0
300

342
11
174
     1
178
     6
175
     1
176
     0
 93
-1056964608
 45
4.0
292
     0
297
     0
 46
4.0
343
0
 94
-1056964608
 47
1.0
 49
1.0
140
1.0
293
     1
141
0.0
294
     1
177
     0
142
1.0
295
     0
296
     0
143
3.75
1001
ACAD_MLEADERVER
1070
     2
  0
MLINESTYLE
  5
18
102
{ACAD_REACTORS
330
17
102
}
330
17
100
AcDbMlineStyle
  2
Standard
 70
     0
  3

 62
   256
 51
90.0
 52
90.0
 71
     2
 49
0.5
 62
   256
  6
BYLAYER
 49
-0.5
 62
   256
  6
BYLAYER
  0
ACDBPLACEHOLDER
  5
F
102
{ACAD_REACTORS
330
E
102
}
330
E
  0
SCALE
  5
48
102
{ACAD_REACTORS
330
47
102
}
330
47
100
AcDbScale
 70
     0
300
1:1
140
1.0
141
1.0
290
     1
  0
SCALE
  5
49
102
{ACAD_REACTORS
330
47
102
}
330
47
100
AcDbScale
 70
     0
300
1:2
140
1.0
141
2.0
290
     0
  0
SCALE
  5
4A
102
{ACAD_REACTORS
330
47
102
}
330
47
100
AcDbScale
 70
     0
300
1:4
140
1.0
141
4.0
290
     0
  0
SCALE
  5
4B
102
{ACAD_REACTORS
330
47
102
}
330
47
100
AcDbScale
 70
     0
300
1:5
140
1.0
141
5.0
290
     0
  0
SCALE
  5
4C
102
{ACAD_REACTORS
330
47
102
}
330
47
100
AcDbScale
 70
     0
300
1:8
140
1.0
141
8.0
290
     0
  0
SCALE
  5
4D
102
{ACAD_REACTORS
330
47
102
}
330
47
100
AcDbScale
 70
     0
300
1:10
140
1.0
141
10.0
290
     0
  0
SCALE
  5
4E
102
{ACAD_REACTORS
330
47
102
}
330
47
100
AcDbScale
 70
     0
300
1:16
140
1.0
141
16.0
290
     0
  0
SCALE
  5
4F
102
{ACAD_REACTORS
330
47
102
}
330
47
100
AcDbScale
 70
     0
300
1:20
140
1.0
141
20.0
290
     0
  0
SCALE
  5
50
102
{ACAD_REACTORS
330
47
102
}
330
47
100
AcDbScale
 70
     0
300
1:30
140
1.0
141
30.0
290
     0
  0
SCALE
  5
51
102
{ACAD_REACTORS
330
47
102
}
330
47
100
AcDbScale
 70
     0
300
1:40
140
1.0
141
40.0
290
     0
  0
SCALE
  5
52
102
{ACAD_REACTORS
330
47
102
}
330
47
100
AcDbScale
 70
     0
300
1:50
140
1.0
141
50.0
290
     0
  0
SCALE
  5
53
102
{ACAD_REACTORS
330
47
102
}
330
47
100
AcDbScale
 70
     0
300
1:100
140
1.0
141
100.0
290
     0
  0
SCALE
  5
54
102
{ACAD_REACTORS
330
47
102
}
330
47
100
AcDbScale
 70
     0
300
2:1
140
2.0
141
1.0
290
     0
  0
SCALE
  5
55
102
{ACAD_REACTORS
330
47
102
}
330
47
100
AcDbScale
 70
     0
300
4:1
140
4.0
141
1.0
290
     0
  0
SCALE
  5
56
102
{ACAD_REACTORS
330
47
102
}
330
47
100
AcDbScale
 70
     0
300
8:1
140
8.0
141
1.0
290
     0
  0
SCALE
  5
57
102
{ACAD_REACTORS
330
47
102
}
330
47
100
AcDbScale
 70
     0
300
10:1
140
10.0
141
1.0
290
     0
  0
SCALE
  5
58
102
{ACAD_REACTORS
330
47
102
}
330
47
100
AcDbScale
 70
     0
300
100:1
140
100.0
141
1.0
290
     0
  0
SCALE
  5
59
102
{ACAD_REACTORS
330
47
102
}
330
47
100
AcDbScale
 70
     0
300
1/128" = 1'-0"
140
0.0078125
141
12.0
290
     0
  0
SCALE
  5
5A
102
{ACAD_REACTORS
330
47
102
}
330
47
100
AcDbScale
 70
     0
300
1/64" = 1'-0"
140
0.015625
141
12.0
290
     0
  0
SCALE
  5
5B
102
{ACAD_REACTORS
330
47
102
}
330
47
100
AcDbScale
 70
     0
300
1/32" = 1'-0"
140
0.03125
141
12.0
290
     0
  0
SCALE
  5
5C
102
{ACAD_REACTORS
330
47
102
}
330
47
100
AcDbScale
 70
     0
300
1/16" = 1'-0"
140
0.0625
141
12.0
290
     0
  0
SCALE
  5
5D
102
{ACAD_REACTORS
330
47
102
}
330
47
100
AcDbScale
 70
     0
300
3/32" = 1'-0"
140
0.09375
141
12.0
290
     0
  0
SCALE
  5
5E
102
{ACAD_REACTORS
330
47
102
}
330
47
100
AcDbScale
 70
     0
300
1/8" = 1'-0"
140
0.125
141
12.0
290
     0
  0
SCALE
  5
5F
102
{ACAD_REACTORS
330
47
102
}
330
47
100
AcDbScale
 70
     0
300
3/16" = 1'-0"
140
0.1875
141
12.0
290
     0
  0
SCALE
  5
60
102
{ACAD_REACTORS
330
47
102
}
330
47
100
AcDbScale
 70
     0
300
1/4" = 1'-0"
140
0.25
141
12.0
290
     0
  0
SCALE
  5
61
102
{ACAD_REACTORS
330
47
102
}
330
47
100
AcDbScale
 70
     0
300
3/8" = 1'-0"
140
0.375
141
12.0
290
     0
  0
SCALE
  5
62
102
{ACAD_REACTORS
330
47
102
}
330
47
100
AcDbScale
 70
     0
300
1/2" = 1'-0"
140
0.5
141
12.0
290
     0
  0
SCALE
  5
63
102
{ACAD_REACTORS
330
47
102
}
330
47
100
AcDbScale
 70
     0
300
3/4" = 1'-0"
140
0.75
141
12.0
290
     0
  0
SCALE
  5
64
102
{ACAD_REACTORS
330
47
102
}
330
47
100
AcDbScale
 70
     0
300
1" = 1'-0"
140
1.0
141
12.0
290
     0
  0
SCALE
  5
65
102
{ACAD_REACTORS
330
47
102
}
330
47
100
AcDbScale
 70
     0
300
1-1/2" = 1'-0"
140
1.5
141
12.0
290
     0
  0
SCALE
  5
66
102
{ACAD_REACTORS
330
47
102
}
330
47
100
AcDbScale
 70
     0
300
3" = 1'-0"
140
3.0
141
12.0
290
     0
  0
SCALE
  5
67
102
{ACAD_REACTORS
330
47
102
}
330
47
100
AcDbScale
 70
     0
300
6" = 1'-0"
140
6.0
141
12.0
290
     0
  0
SCALE
  5
68
102
{ACAD_REACTORS
330
47
102
}
330
47
100
AcDbScale
 70
     0
300
1'-0" = 1'-0"
140
12.0
141
12.0
290
     0
  0
TABLESTYLE
  5
6A
102
{ACAD_REACTORS
330
69
102
}
102
{ACAD_XDICTIONARY
360
32A
102
}
330
69
100
AcDbTableStyle
  3
Standard
 70
     0
 71
     0
 40
0.06
 41
0.06
280
     0
281
     0
  7
Standard
140
4.5
170
     2
 62
     0
 63
   257
283
     0
 90
        4
 91
        0
  1

274
    -2
284
     1
 64
     0
275
    -2
285
     1
 65
     0
276
    -2
286
     1
 66
     0
277
    -2
287
     1
 67
     0
278
    -2
288
     1
 68
     0
279
    -2
289
     1
 69
     0
  7
Standard
140
6.0
170
     5
 62
     0
 63
   257
283
     0
 90
        4
 91
        0
  1

274
    -2
284
     1
 64
     0
275
    -2
285
     1
 65
     0
276
    -2
286
     1
 66
     0
277
    -2
287
     1
 67
     0
278
    -2
288
     1
 68
     0
279
    -2
289
     1
 69
     0
  7
Standard
140
4.5
170
     5
 62
     0
 63
   257
283
     0
 90
        4
 91
        0
  1

274
    -2
284
     1
 64
     0
275
    -2
285
     1
 65
     0
276
    -2
286
     1
 66
     0
277
    -2
287
     1
 67
     0
278
    -2
288
     1
 68
     0
279
    -2
289
     1
 69
     0
  0
VISUALSTYLE
  5
2F
102
{ACAD_REACTORS
330
2A
102
}
330
2A
100
AcDbVisualStyle
  2
2dWireframe
 70
     4
 71
     0
 72
     2
 73
     0
 90
        0
 40
0.6
 41
30.0
 62
     5
 63
     7
421
 16777215
 74
     1
 91
        4
 64
     7
 65
   257
 75
     1
175
     1
 42
1.0
 92
        0
 66
   257
 43
1.0
 76
     1
 77
     6
 78
     2
 67
     7
 79
     5
170
     0
171
     0
290
     0
174
     0
 93
        1
 44
0.0
173
     0
291
     0
 45
0.0
  0
VISUALSTYLE
  5
32
102
{ACAD_REACTORS
330
2A
102
}
330
2A
100
AcDbVisualStyle
  2
Basic
 70
     7
 71
     1
 72
     0
 73
     1
 90
        0
 40
0.6
 41
30.0
 62
     5
 63
     7
421
 16777215
 74
     0
 91
        4
 64
     7
 65
   257
 75
     1
175
     1
 42
1.0
 92
        8
 66
     7
 43
1.0
 76
     1
 77
     6
 78
     2
 67
     7
 79
     5
170
     0
171
     0
290
     0
174
     0
 93
        1
 44
0.0
173
     0
291
     1
 45
0.0
  0
VISUALSTYLE
  5
36
102
{ACAD_REACTORS
330
2A
102
}
330
2A
100
AcDbVisualStyle
  2
Brighten
 70
    12
 71
     2
 72
     2
 73
     0
 90
        0
 40
0.6
 41
30.0
 62
     5
 63
     7
421
 16777215
 74
     1
 91
        4
 64
     7
 65
   257
 75
     1
175
     1
 42
1.0
 92
        8
 66
     7
 43
1.0
 76
     1
 77
     6
 78
     2
 67
     7
 79
     5
170
     0
171
     0
290
     0
174
     0
 93
        1
 44
50.0
173
     0
291
     1
 45
0.0
  0
VISUALSTYLE
  5
3A
102
{ACAD_REACTORS
330
2A
102
}
330
2A
100
AcDbVisualStyle
  2
ColorChange
 70
    16
 71
     2
 72
     2
 73
     3
 90
        0
 40
0.6
 41
30.0
 62
     5
 63
     8
421
  8421504
 74
     1
 91
        4
 64
     7
 65
   257
 75
     1
175
     1
 42
1.0
 92
        8
 66
     8
424
  8421504
 43
1.0
 76
     1
 77
     6
 78
     2
 67
     7
 79
     5
170
     0
171
     0
290
     0
174
     0
 93
        1
 44
0.0
173
     0
291
     1
 45
0.0
  0
VISUALSTYLE
  5
34
102
{ACAD_REACTORS
330
2A
102
}
330
2A
100
AcDbVisualStyle
  2
Conceptual
 70
     9
 71
     3
 72
     2
 73
     0
 90
        0
 40
0.6
 41
30.0
 62
     5
 63
     7
421
 16777215
 74
     2
 91
        2
 64
     7
 65
   257
 75
     1
175
     1
 42
179.0
 92
        8
 66
     7
 43
1.0
 76
     1
 77
     6
 78
     2
 67
     7
 79
     3
170
     0
171
     0
290
     0
174
     0
 93
        1
 44
0.0
173
     0
291
     0
 45
0.0
  0
VISUALSTYLE
  5
35
102
{ACAD_REACTORS
330
2A
102
}
330
2A
100
AcDbVisualStyle
  2
Dim
 70
    11
 71
     2
 72
     2
 73
     0
 90
        0
 40
0.6
 41
30.0
 62
     5
 63
     7
421
 16777215
 74
     1
 91
        4
 64
     7
 65
   257
 75
     1
175
     1
 42
1.0
 92
        8
 66
     7
 43
1.0
 76
     1
 77
     6
 78
     2
 67
     7
 79
     5
170
     0
171
     0
290
     0
174
     0
 93
        1
 44
-50.0
173
     0
291
     1
 45
0.0
  0
VISUALSTYLE
  5
3D
102
{ACAD_REACTORS
330
2A
102
}
330
2A
100
AcDbVisualStyle
  2
EdgeColorOff
 70
    22
 71
     2
 72
     2
 73
     0
 90
        0
 40
0.6
 41
30.0
 62
     5
 63
     7
421
 16777215
 74
     1
 91
        4
 64
     7
 65
   257
 75
     1
175
     1
 42
1.0
 92
        8
 66
     7
 43
1.0
 76
     1
 77
     6
 78
     2
 67
     7
 79
     5
170
     0
171
     0
290
     0
174
     0
 93
        1
 44
0.0
173
     0
291
     1
 45
0.0
  0
VISUALSTYLE
  5
39
102
{ACAD_REACTORS
330
2A
102
}
330
2A
100
AcDbVisualStyle
  2
Facepattern
 70
    15
 71
     2
 72
     2
 73
     0
 90
        0
 40
0.6
 41
30.0
 62
     5
 63
     7
421
 16777215
 74
     1
 91
        4
 64
     7
 65
   257
 75
     1
175
     1
 42
1.0
 92
        8
 66
     7
 43
1.0
 76
     1
 77
     6
 78
     2
 67
     7
 79
     5
170
     0
171
     0
290
     0
174
     0
 93
        1
 44
0.0
173
     0
291
     1
 45
0.0
  0
VISUALSTYLE
  5
2B
102
{ACAD_REACTORS
330
2A
102
}
330
2A
100
AcDbVisualStyle
  2
Flat
 70
     0
 71
     2
 72
     1
 73
     1
 90
        2
 40
0.6
 41
30.0
 62
     5
 63
     7
421
 16777215
 74
     0
 91
        0
 64
     7
 65
   257
 75
     1
175
     1
 42
1.0
 92
        8
 66
     7
 43
1.0
 76
     1
 77
     6
 78
     2
 67
     7
 79
     5
170
     0
171
     0
290
     0
174
     0
 93
       13
 44
0.0
173
     0
291
     1
 45
0.0
  0
VISUALSTYLE
  5
2C
102
{ACAD_REACTORS
330
2A
102
}
330
2A
100
AcDbVisualStyle
  2
FlatWithEdges
 70
     1
 71
     2
 72
     1
 73
     1
 90
        2
 40
0.6
 41
30.0
 62
     5
 63
     7
421
 16777215
 74
     1
 91
        0
 64
     7
 65
   257
 75
     1
175
     1
 42
1.0
 92
        0
 66
   257
 43
1.0
 76
     1
 77
     6
 78
     2
 67
     7
 79
     5
170
     0
171
     0
290
     0
174
     0
 93
       13
 44
0.0
173
     0
291
     1
 45
0.0
  0
VISUALSTYLE
  5
2D
102
{ACAD_REACTORS
330
2A
102
}
330
2A
100
AcDbVisualStyle
  2
Gouraud
 70
     2
 71
     2
 72
     2
 73
     1
 90
        2
 40
0.6
 41
30.0
 62
     5
 63
     7
421
 16777215
 74
     0
 91
        0
 64
     7
 65
   257
 75
     1
175
     1
 42
1.0
 92
        0
 66
     7
 43
1.0
 76
     1
 77
     6
 78
     2
 67
     7
 79
     5
170
     0
171
     0
290
     0
174
     0
 93
       13
 44
0.0
173
     0
291
     1
 45
0.0
  0
VISUALSTYLE
  5
2E
102
{ACAD_REACTORS
330
2A
102
}
330
2A
100
AcDbVisualStyle
  2
GouraudWithEdges
 70
     3
 71
     2
 72
     2
 73
     1
 90
        2
 40
0.6
 41
30.0
 62
     5
 63
     7
421
 16777215
 74
     1
 91
        0
 64
     7
 65
   257
 75
     1
175
     1
 42
1.0
 92
        0
 66
   257
 43
1.0
 76
     1
 77
     6
 78
     2
 67
     7
 79
     5
170
     0
171
     0
290
     0
174
     0
 93
       13
 44
0.0
173
     0
291
     1
 45
0.0
  0
VISUALSTYLE
  5
31
102
{ACAD_REACTORS
330
2A
102
}
330
2A
100
AcDbVisualStyle
  2
Hidden
 70
     6
 71
     1
 72
     2
 73
     2
 90
        0
 40
0.6
 41
30.0
 62
     5
 63
     7
421
 16777215
 74
     2
 91
        2
 64
     7
 65
   257
 75
     2
175
     1
 42
40.0
 92
        0
 66
   257
 43
1.0
 76
     1
 77
     6
 78
     2
 67
     7
 79
     3
170
     0
171
     0
290
     0
174
     0
 93
        1
 44
0.0
173
     0
291
     0
 45
0.0
  0
VISUALSTYLE
  5
3B
102
{ACAD_REACTORS
330
2A
102
}
330
2A
100
AcDbVisualStyle
  2
JitterOff
 70
    20
 71
     2
 72
     2
 73
     0
 90
        0
 40
0.6
 41
30.0
 62
     5
 63
     7
421
 16777215
 74
     1
 91
        4
 64
     7
 65
   257
 75
     1
175
     1
 42
1.0
 92
       10
 66
     7
 43
1.0
 76
     1
 77
     6
 78
     2
 67
     7
 79
     5
170
     0
171
     0
290
     0
174
     0
 93
        1
 44
0.0
173
     0
291
     1
 45
0.0
  0
VISUALSTYLE
  5
38
102
{ACAD_REACTORS
330
2A
102
}
330
2A
100
AcDbVisualStyle
  2
Linepattern
 70
    14
 71
     2
 72
     2
 73
     0
 90
        0
 40
0.6
 41
30.0
 62
     5
 63
     7
421
 16777215
 74
     1
 91
        4
 64
     7
 65
   257
 75
     7
175
     7
 42
1.0
 92
        8
 66
     7
 43
1.0
 76
     1
 77
     6
 78
     2
 67
     7
 79
     5
170
     0
171
     0
290
     0
174
     0
 93
        1
 44
0.0
173
     0
291
     1
 45
0.0
  0
VISUALSTYLE
  5
3C
102
{ACAD_REACTORS
330
2A
102
}
330
2A
100
AcDbVisualStyle
  2
OverhangOff
 70
    21
 71
     2
 72
     2
 73
     0
 90
        0
 40
0.6
 41
30.0
 62
     5
 63
     7
421
 16777215
 74
     1
 91
        4
 64
     7
 65
   257
 75
     1
175
     1
 42
1.0
 92
        9
 66
     7
 43
1.0
 76
     1
 77
     6
 78
     2
 67
     7
 79
     5
170
     0
171
     0
290
     0
174
     0
 93
        1
 44
0.0
173
     0
291
     1
 45
0.0
  0
VISUALSTYLE
  5
33
102
{ACAD_REACTORS
330
2A
102
}
330
2A
100
AcDbVisualStyle
  2
Realistic
 70
     8
 71
     2
 72
     3
 73
     0
 90
        2
 40
0.6
 41
30.0
 62
     5
 63
     7
421
 16777215
 74
     0
 91
        0
 64
     7
 65
   257
 75
     1
175
     1
 42
1.0
 92
        8
 66
   257
 43
1.0
 76
     1
 77
     6
 78
     2
 67
     7
 79
     3
170
     0
171
     0
290
     0
174
     0
 93
       13
 44
0.0
173
     0
291
     0
 45
0.0
  0
VISUALSTYLE
  5
42
102
{ACAD_REACTORS
330
2A
102
}
330
2A
100
AcDbVisualStyle
  2
Shaded
 70
    27
 71
     2
 72
     2
 73
     1
 90
        2
 40
0.6
 41
30.0
 62
     5
 63
     7
421
 16777215
 74
     0
 91
        4
 64
     7
 65
   257
 75
     1
175
     1
 42
1.0
 92
        8
 66
   257
 43
1.0
 76
     1
 77
     6
 78
     2
 67
     8
425
  7895160
 79
     3
170
     0
171
     0
290
     0
174
     0
 93
        5
 44
0.0
173
     0
291
     0
 45
0.0
  0
VISUALSTYLE
  5
41
102
{ACAD_REACTORS
330
2A
102
}
330
2A
100
AcDbVisualStyle
  2
Shaded with edges
 70
    26
 71
     2
 72
     2
 73
     1
 90
        2
 40
0.6
 41
30.0
 62
     5
 63
     7
421
 16777215
 74
     1
 91
       10
 64
     7
 65
   257
 75
     2
175
     1
 42
1.0
 92
        8
 66
   257
 43
1.0
 76
     1
 77
     6
 78
     2
 67
     7
 79
     3
170
     0
171
     0
290
     0
174
     0
 93
        5
 44
0.0
173
     0
291
     0
 45
0.0
  0
VISUALSTYLE
  5
3E
102
{ACAD_REACTORS
330
2A
102
}
330
2A
100
AcDbVisualStyle
  2
Shades of Gray
 70
    23
 71
     2
 72
     2
 73
     3
 90
        0
 40
0.6
 41
30.0
 62
     5
 63
     7
421
 16777215
 74
     2
 91
        2
 64
     7
 65
     7
 75
     1
175
     1
 42
40.0
 92
        8
 66
     7
 43
1.0
 76
     1
 77
     6
 78
     2
 67
     7
 79
     3
170
     0
171
     0
290
     0
174
     0
 93
        1
 44
0.0
173
     0
291
     0
 45
0.0
  0
VISUALSTYLE
  5
3F
102
{ACAD_REACTORS
330
2A
102
}
330
2A
100
AcDbVisualStyle
  2
Sketchy
 70
    24
 71
     1
 72
     2
 73
     2
 90
        0
 40
0.6
 41
30.0
 62
     5
 63
     7
421
 16777215
 74
     2
 91
        2
 64
     7
 65
     7
 75
     1
175
     1
 42
40.0
 92
       11
 66
     7
 43
1.0
 76
     1
 77
     6
 78
     2
 67
     7
 79
     6
170
     0
171
     0
290
     0
174
     0
 93
        1
 44
0.0
173
     0
291
     0
 45
0.0
  0
VISUALSTYLE
  5
37
102
{ACAD_REACTORS
330
2A
102
}
330
2A
100
AcDbVisualStyle
  2
Thicken
 70
    13
 71
     2
 72
     2
 73
     0
 90
        0
 40
0.6
 41
30.0
 62
     5
 63
     7
421
 16777215
 74
     1
 91
        4
 64
     7
 65
   257
 75
     1
175
     1
 42
1.0
 92
       12
 66
     7
 43
1.0
 76
     1
 77
     6
 78
     2
 67
     7
 79
     5
170
     0
171
     0
290
     0
174
     0
 93
        1
 44
0.0
173
     0
291
     1
 45
0.0
  0
VISUALSTYLE
  5
30
102
{ACAD_REACTORS
330
2A
102
}
330
2A
100
AcDbVisualStyle
  2
Wireframe
 70
     5
 71
     0
 72
     2
 73
     0
 90
        0
 40
0.6
 41
30.0
 62
     5
 63
     7
421
 16777215
 74
     1
 91
        4
 64
     7
 65
   257
 75
     1
175
     1
 42
1.0
 92
        0
 66
   257
 43
1.0
 76
     1
 77
     6
 78
     2
 67
     7
 79
     3
170
     0
171
     0
290
     0
174
     0
 93
        1
 44
0.0
173
     0
291
     0
 45
0.0
  0
VISUALSTYLE
  5
40
102
{ACAD_REACTORS
330
2A
102
}
330
2A
100
AcDbVisualStyle
  2
X-Ray
 70
    25
 71
     2
 72
     2
 73
     1
 90
        1
 40
0.5
 41
30.0
 62
     5
 63
     7
421
 16777215
 74
     1
 91
        0
 64
     7
 65
   257
 75
     1
175
     1
 42
1.0
 92
        8
 66
     7
 43
1.0
 76
     1
 77
     6
 78
     2
 67
     7
 79
     3
170
     0
171
     0
290
     0
174
     0
 93
       13
 44
0.0
173
     0
291
     0
 45
0.0
  0
DICTIONARYVAR
  5
329
102
{ACAD_REACTORS
330
328
102
}
330
328
100
DictionaryVariables
280
     0
  1
1:1
  0
DICTIONARYVAR
  5
332
102
{ACAD_REACTORS
330
328
102
}
330
328
100
DictionaryVariables
280
     0
  1
3.500000
  0
DICTIONARYVAR
  5
333
102
{ACAD_REACTORS
330
328
102
}
330
328
100
DictionaryVariables
280
     0
  1
acadiso.lin
  0
DICTIONARYVAR
  5
32F
102
{ACAD_REACTORS
330
328
102
}
330
328
100
DictionaryVariables
280
     0
  1
Standard
  0
DICTIONARYVAR
  5
32E
102
{ACAD_REACTORS
330
328
102
}
330
328
100
DictionaryVariables
280
     0
  1
Standard
  0
DICTIONARY
  5
32A
330
6A
100
AcDbDictionary
280
     1
281
     1
  3
ACAD_ROUNDTRIP_2008_TABLESTYLE_CELLSTYLEMAP
360
32B
  0
CELLSTYLEMAP
  5
32B
102
{ACAD_REACTORS
330
32A
102
}
330
32A
100
AcDbCellStyleMap
 90
        3
300
CELLSTYLE
  1
TABLEFORMAT_BEGIN
 90
        5
170
     1
 91
        0
 92
    32768
 62
   257
 93
        1
300
CONTENTFORMAT
  1
CONTENTFORMAT_BEGIN
 90
        0
 91
        0
 92
        4
 93
        0
300

 40
0.0
140
1.0
 94
        5
 62
     0
340
11
144
6.0
309
CONTENTFORMAT_END
171
     1
301
MARGIN
  1
CELLMARGIN_BEGIN
 40
1.5
 40
1.5
 40
1.5
 40
1.5
 40
1.5
 40
1.5
309
CELLMARGIN_END
 94
        6
 95
        1
302
GRIDFORMAT
  1
GRIDFORMAT_BEGIN
 90
        0
 91
        1
 62
     0
 92
       -2
340
14
 93
        0
 40
0.045
309
GRIDFORMAT_END
 95
        2
302
GRIDFORMAT
  1
GRIDFORMAT_BEGIN
 90
        0
 91
        1
 62
     0
 92
       -2
340
14
 93
        0
 40
0.045
309
GRIDFORMAT_END
 95
        4
302
GRIDFORMAT
  1
GRIDFORMAT_BEGIN
 90
        0
 91
        1
 62
     0
 92
       -2
340
14
 93
        0
 40
0.045
309
GRIDFORMAT_END
 95
        8
302
GRIDFORMAT
  1
GRIDFORMAT_BEGIN
 90
        0
 91
        1
 62
     0
 92
       -2
340
14
 93
        0
 40
0.045
309
GRIDFORMAT_END
 95
       16
302
GRIDFORMAT
  1
GRIDFORMAT_BEGIN
 90
        0
 91
        1
 62
     0
 92
       -2
340
14
 93
        0
 40
0.045
309
GRIDFORMAT_END
 95
       32
302
GRIDFORMAT
  1
GRIDFORMAT_BEGIN
 90
        0
 91
        1
 62
     0
 92
       -2
340
14
 93
        0
 40
0.045
309
GRIDFORMAT_END
309
TABLEFORMAT_END
  1
CELLSTYLE_BEGIN
 90
        1
 91
        1
300
_TITLE
309
CELLSTYLE_END
300
CELLSTYLE
  1
TABLEFORMAT_BEGIN
 90
        5
170
     1
 91
        0
 92
        0
 62
   257
 93
        1
300
CONTENTFORMAT
  1
CONTENTFORMAT_BEGIN
 90
        0
 91
        0
 92
        4
 93
        0
300

 40
0.0
140
1.0
 94
        5
 62
     0
340
11
144
4.5
309
CONTENTFORMAT_END
171
     1
301
MARGIN
  1
CELLMARGIN_BEGIN
 40
1.5
 40
1.5
 40
1.5
 40
1.5
 40
1.5
 40
1.5
309
CELLMARGIN_END
 94
        6
 95
        1
302
GRIDFORMAT
  1
GRIDFORMAT_BEGIN
 90
        0
 91
        1
 62
     0
 92
       -2
340
14
 93
        0
 40
0.045
309
GRIDFORMAT_END
 95
        2
302
GRIDFORMAT
  1
GRIDFORMAT_BEGIN
 90
        0
 91
        1
 62
     0
 92
       -2
340
14
 93
        0
 40
0.045
309
GRIDFORMAT_END
 95
        4
302
GRIDFORMAT
  1
GRIDFORMAT_BEGIN
 90
        0
 91
        1
 62
     0
 92
       -2
340
14
 93
        0
 40
0.045
309
GRIDFORMAT_END
 95
        8
302
GRIDFORMAT
  1
GRIDFORMAT_BEGIN
 90
        0
 91
        1
 62
     0
 92
       -2
340
14
 93
        0
 40
0.045
309
GRIDFORMAT_END
 95
       16
302
GRIDFORMAT
  1
GRIDFORMAT_BEGIN
 90
        0
 91
        1
 62
     0
 92
       -2
340
14
 93
        0
 40
0.045
309
GRIDFORMAT_END
 95
       32
302
GRIDFORMAT
  1
GRIDFORMAT_BEGIN
 90
        0
 91
        1
 62
     0
 92
       -2
340
14
 93
        0
 40
0.045
309
GRIDFORMAT_END
309
TABLEFORMAT_END
  1
CELLSTYLE_BEGIN
 90
        2
 91
        1
300
_HEADER
309
CELLSTYLE_END
300
CELLSTYLE
  1
TABLEFORMAT_BEGIN
 90
        5
170
     1
 91
        0
 92
        0
 62
   257
 93
        1
300
CONTENTFORMAT
  1
CONTENTFORMAT_BEGIN
 90
        0
 91
        0
 92
        4
 93
        0
300

 40
0.0
140
1.0
 94
        2
 62
     0
340
11
144
4.5
309
CONTENTFORMAT_END
171
     1
301
MARGIN
  1
CELLMARGIN_BEGIN
 40
1.5
 40
1.5
 40
1.5
 40
1.5
 40
1.5
 40
1.5
309
CELLMARGIN_END
 94
        6
 95
        1
302
GRIDFORMAT
  1
GRIDFORMAT_BEGIN
 90
        0
 91
        1
 62
     0
 92
       -2
340
14
 93
        0
 40
0.045
309
GRIDFORMAT_END
 95
        2
302
GRIDFORMAT
  1
GRIDFORMAT_BEGIN
 90
        0
 91
        1
 62
     0
 92
       -2
340
14
 93
        0
 40
0.045
309
GRIDFORMAT_END
 95
        4
302
GRIDFORMAT
  1
GRIDFORMAT_BEGIN
 90
        0
 91
        1
 62
     0
 92
       -2
340
14
 93
        0
 40
0.045
309
GRIDFORMAT_END
 95
        8
302
GRIDFORMAT
  1
GRIDFORMAT_BEGIN
 90
        0
 91
        1
 62
     0
 92
       -2
340
14
 93
        0
 40
0.045
309
GRIDFORMAT_END
 95
       16
302
GRIDFORMAT
  1
GRIDFORMAT_BEGIN
 90
        0
 91
        1
 62
     0
 92
       -2
340
14
 93
        0
 40
0.045
309
GRIDFORMAT_END
 95
       32
302
GRIDFORMAT
  1
GRIDFORMAT_BEGIN
 90
        0
 91
        1
 62
     0
 92
       -2
340
14
 93
        0
 40
0.045
309
GRIDFORMAT_END
309
TABLEFORMAT_END
  1
CELLSTYLE_BEGIN
 90
        3
 91
        2
300
_DATA
309
CELLSTYLE_END
  0
ENDSEC
  0
EOF
