M48
;Layer_Color=9474304
;FILE_FORMAT=2:5
INCH,LZ
;TYPE=PLATED
T9F00S00C0.12598
;TYPE=NON_PLATED
%
G90
G05
T09
G00X0087043Y010143
M15
G01X0085469
M16
G00X0180793Y010143
M15
G01X0179218
M16
G00X0124627Y0176375
M15
G01X0123053
M16
G00X0246502Y0176375
M15
G01X0244927
M16
G00X0321502Y0176375
M15
G01X0319927
M16
G00X0396504Y0176375
M15
G01X0394929
M16
G00X0274543Y010143
M15
G01X0272968
M16
G00X0471504Y0176375
M15
G01X0469929
M16
G00X0546504Y0176375
M15
G01X0544929
M16
G00X0555878Y0101376
M15
G01X0554303
M16
G00X0621504Y0176375
M15
G01X0619929
M16
G00X0696504Y0176375
M15
G01X0694929
M16
G00X0771504Y0176375
M15
G01X0769929
M16
G00X0846504Y0176375
M15
G01X0844929
M16
G00X0837042Y010143
M15
G01X0835467
M16
G00X0930794Y010143
M15
G01X0929219
M16
G00X0921504Y0176375
M15
G01X0919929
M16
G00X1024542Y010143
M15
G01X1022967
M16
G00X1118294Y010143
M15
G01X1116719
M16
G00X1062126Y0176375
M15
G01X1060551
M16
G00X1221504Y0101376
M15
G01X1219929
M16
G00X1296504Y0101376
M15
G01X1294929
M16
G00X1296504Y0176375
M15
G01X1294929
M16
G00X1371504Y0101376
M15
G01X1369929
M16
G00X1371504Y0326376
M15
G01X1369929
M16
G00X1296504Y0326376
M15
G01X1294929
M16
G00X1221504Y0326376
M15
G01X1219929
M16
G00X1109004Y0326376
M15
G01X1107429
M16
G00X1080878Y0251376
M15
G01X1079303
M16
G00X0959004Y0251376
M15
G01X0957429
M16
G00X0940252Y0326376
M15
G01X0938677
M16
G00X1015252Y0326376
M15
G01X1013677
M16
G00X0865252Y0326376
M15
G01X0863677
M16
G00X0790252Y0326376
M15
G01X0788677
M16
G00X0809004Y0251376
M15
G01X0807429
M16
G00X0884004Y0251376
M15
G01X0882429
M16
G00X0734004Y0251376
M15
G01X0732429
M16
G00X0659004Y0251376
M15
G01X0657429
M16
G00X0640252Y0326376
M15
G01X0638677
M16
G00X0715252Y0326376
M15
G01X0713677
M16
G00X0565252Y0326376
M15
G01X0563677
M16
G00X0490252Y0326376
M15
G01X0488677
M16
G00X0509004Y0251376
M15
G01X0507429
M16
G00X0434004Y0251376
M15
G01X0432429
M16
G00X0584004Y0251376
M15
G01X0582429
M16
G00X0359002Y0251376
M15
G01X0357427
M16
G00X0284002Y0251376
M15
G01X0282427
M16
G00X0340252Y0326376
M15
G01X0338677
M16
G00X0415252Y0326376
M15
G01X0413677
M16
G00X0265252Y0326376
M15
G01X0263677
M16
G00X0190252Y0326376
M15
G01X0188677
M16
G00X0209002Y0251376
M15
G01X0207427
M16
G00X0105823Y0251381
M15
G01X0104248
M16
G00X0096502Y0326376
M15
G01X0094927
M16
G00X0077752Y0401375
M15
G01X0076177
M16
G00X0152752Y0401375
M15
G01X0151177
M16
G00X0227752Y0401375
M15
G01X0226177
M16
G00X0302752Y0401375
M15
G01X0301177
M16
G00X0377752Y0401375
M15
G01X0376177
M16
G00X0452752Y0401375
M15
G01X0451177
M16
G00X0527752Y0401375
M15
G01X0526177
M16
G00X0602752Y0401375
M15
G01X0601177
M16
G00X0677752Y0401375
M15
G01X0676177
M16
G00X0752752Y0401375
M15
G01X0751177
M16
G00X0827752Y0401375
M15
G01X0826177
M16
G00X0902752Y0401375
M15
G01X0901177
M16
G00X0977752Y0401375
M15
G01X0976177
M16
G00X1090252Y0401375
M15
G01X1088677
M16
G00X1221504Y0401375
M15
G01X1219929
M16
G00X1296504Y0401375
M15
G01X1294929
M16
G00X1371504Y0401375
M15
G01X1369929
M16
G00X1371504Y0513877
M15
G01X1369929
M16
G00X1296504Y0513877
M15
G01X1294929
M16
G00X1221504Y0513877
M15
G01X1219929
M16
G00X1127752Y0513877
M15
G01X1126177
M16
G00X1052752Y0513877
M15
G01X1051177
M16
G00X0977752Y0513877
M15
G01X0976177
M16
G00X0902752Y0513877
M15
G01X0901177
M16
G00X0790252Y0513877
M15
G01X0788677
M16
G00X0715252Y0513877
M15
G01X0713677
M16
G00X0640252Y0513877
M15
G01X0638677
M16
G00X0565252Y0513877
M15
G01X0563677
M16
G00X0452752Y0513877
M15
G01X0451177
M16
G00X0377752Y0513877
M15
G01X0376177
M16
G00X0302752Y0513877
M15
G01X0301177
M16
G00X0227752Y0513877
M15
G01X0226177
M16
G00X0077752Y0513877
M15
G01X0076177
M16
M30
