G04*
G04 #@! TF.GenerationSoftware,Altium Limited,Altium Designer,20.0.2 (26)*
G04*
G04 Layer_Color=32768*
%FSLAX25Y25*%
%MOIN*%
G70*
G01*
G75*
%ADD18C,0.00394*%
%ADD19C,0.00100*%
%ADD165C,0.00197*%
%ADD166C,0.00300*%
D18*
X1643512Y532000D02*
G03*
X1643512Y532000I-4000J0D01*
G01*
X1639512Y526000D02*
Y538000D01*
X1633512Y532000D02*
X1645512D01*
D19*
X1612176Y490000D02*
G03*
X1612176Y490000I-500J0D01*
G01*
X1605926D02*
G03*
X1605926Y490000I-500J0D01*
G01*
X1571000Y186000D02*
G03*
X1571000Y186000I-500J0D01*
G01*
X1589500Y206500D02*
G03*
X1589500Y206500I-500J0D01*
G01*
X1502000Y170500D02*
G03*
X1502000Y170500I-500J0D01*
G01*
X1618426Y490000D02*
G03*
X1618426Y490000I-500J0D01*
G01*
X1444547Y77249D02*
G03*
X1444547Y77249I-500J0D01*
G01*
X1468047Y79748D02*
G03*
X1468047Y79748I-500J0D01*
G01*
X1444547Y62248D02*
G03*
X1444547Y62248I-500J0D01*
G01*
X1468047Y64749D02*
G03*
X1468047Y64749I-500J0D01*
G01*
X1436630Y533130D02*
G03*
X1436630Y533130I-500J0D01*
G01*
X1430630D02*
G03*
X1430630Y533130I-500J0D01*
G01*
X1444547Y46749D02*
G03*
X1444547Y46749I-500J0D01*
G01*
X1468047Y49248D02*
G03*
X1468047Y49248I-500J0D01*
G01*
X1567165Y198781D02*
G03*
X1567165Y198781I-500J0D01*
G01*
X1560166Y146395D02*
G03*
X1560166Y146395I-500J0D01*
G01*
X1561166Y215667D02*
G03*
X1561166Y215667I-500J0D01*
G01*
X1537665Y218167D02*
G03*
X1537665Y218167I-500J0D01*
G01*
X1526106Y209780D02*
G03*
X1526106Y209780I-500J0D01*
G01*
X1504280Y156490D02*
G03*
X1504280Y156490I-500J0D01*
G01*
X1508165Y199281D02*
G03*
X1508165Y199281I-500J0D01*
G01*
X1537665Y212167D02*
G03*
X1537665Y212167I-500J0D01*
G01*
X1461227Y529459D02*
G03*
X1461227Y529459I-500J0D01*
G01*
X1470977Y529400D02*
G03*
X1470977Y529400I-500J0D01*
G01*
X1480727D02*
G03*
X1480727Y529400I-500J0D01*
G01*
X1659787Y83500D02*
G03*
X1659787Y83500I-500J0D01*
G01*
Y89500D02*
G03*
X1659787Y89500I-500J0D01*
G01*
X1610888Y490000D02*
X1612463D01*
X1611676Y489212D02*
Y490787D01*
X1604638Y490000D02*
X1606213D01*
X1605426Y489212D02*
Y490787D01*
X1570500Y185213D02*
Y186787D01*
X1569713Y186000D02*
X1571287D01*
X1588213Y206500D02*
X1589787D01*
X1589000Y205713D02*
Y207287D01*
X1501500Y169713D02*
Y171287D01*
X1500713Y170500D02*
X1502287D01*
X1617138Y490000D02*
X1618713D01*
X1617926Y489212D02*
Y490787D01*
X1443259Y77249D02*
X1444834D01*
X1444047Y76461D02*
Y78036D01*
X1466759Y79748D02*
X1468334D01*
X1467547Y78961D02*
Y80536D01*
X1443259Y62248D02*
X1444834D01*
X1444047Y61461D02*
Y63036D01*
X1466759Y64749D02*
X1468334D01*
X1467547Y63961D02*
Y65536D01*
X1435343Y533130D02*
X1436917D01*
X1436130Y532342D02*
Y533917D01*
X1429342Y533130D02*
X1430917D01*
X1430130Y532342D02*
Y533917D01*
X1443259Y46749D02*
X1444834D01*
X1444047Y45961D02*
Y47536D01*
X1466759Y49248D02*
X1468334D01*
X1467547Y48461D02*
Y50036D01*
X1566665Y197993D02*
Y199568D01*
X1565878Y198781D02*
X1567453D01*
X1559665Y147182D02*
X1559665Y145607D01*
X1558878Y146395D02*
X1560453D01*
X1559878Y215667D02*
X1561453D01*
X1560666Y214879D02*
Y216454D01*
X1537166Y218954D02*
X1537166Y217379D01*
X1536378Y218167D02*
X1537953Y218167D01*
X1525606Y208993D02*
Y210568D01*
X1524819Y209780D02*
X1526394D01*
X1502992Y156490D02*
X1504567Y156490D01*
X1503780Y155702D02*
X1503780Y157277D01*
X1507666Y198493D02*
Y200068D01*
X1506878Y199281D02*
X1508453D01*
X1537166Y211379D02*
Y212954D01*
X1536378Y212167D02*
X1537953D01*
X1459939Y529459D02*
X1461514D01*
X1460727Y528671D02*
Y530246D01*
X1469689Y529400D02*
X1471264D01*
X1470477Y528613D02*
X1470477Y530187D01*
X1479439Y529400D02*
X1481014D01*
X1480226Y530187D02*
X1480227Y528613D01*
X1659287Y82713D02*
Y84287D01*
X1658500Y83500D02*
X1660075D01*
X1659287Y88713D02*
Y90287D01*
X1658500Y89500D02*
X1660075D01*
D165*
X1593878Y489000D02*
G03*
X1593878Y489000I-1378J0D01*
G01*
X1537878Y561500D02*
G03*
X1537878Y561500I-1378J0D01*
G01*
X1649378Y199500D02*
G03*
X1649378Y199500I-1378J0D01*
G01*
D02*
G03*
X1649378Y199500I-1378J0D01*
G01*
X1672756Y449500D02*
G03*
X1672756Y449500I-1378J0D01*
G01*
D02*
G03*
X1672756Y449500I-1378J0D01*
G01*
X1681256D02*
G03*
X1681256Y449500I-1378J0D01*
G01*
D02*
G03*
X1681256Y449500I-1378J0D01*
G01*
X1618256Y440000D02*
G03*
X1618256Y440000I-1378J0D01*
G01*
D02*
G03*
X1618256Y440000I-1378J0D01*
G01*
X1626756D02*
G03*
X1626756Y440000I-1378J0D01*
G01*
D02*
G03*
X1626756Y440000I-1378J0D01*
G01*
X1461164Y544500D02*
G03*
X1461164Y544500I-1378J0D01*
G01*
X1470913D02*
G03*
X1470913Y544500I-1378J0D01*
G01*
X1480663D02*
G03*
X1480663Y544500I-1378J0D01*
G01*
X1685008Y91630D02*
G03*
X1685008Y91630I-1378J0D01*
G01*
X1592500Y487032D02*
Y490969D01*
X1590532Y489000D02*
X1594468D01*
X1536500Y559531D02*
Y563469D01*
X1534531Y561500D02*
X1538468D01*
X1648000Y197531D02*
Y201468D01*
X1646032Y199500D02*
X1649969D01*
X1646032D02*
X1649969D01*
X1648000Y197531D02*
Y201468D01*
X1669409Y449500D02*
X1673346D01*
X1671378Y447532D02*
Y451469D01*
Y447532D02*
Y451469D01*
X1669409Y449500D02*
X1673346D01*
X1677909D02*
X1681846D01*
X1679878Y447532D02*
Y451469D01*
Y447532D02*
Y451469D01*
X1677909Y449500D02*
X1681846D01*
X1614910Y440000D02*
X1618847Y440000D01*
X1616878Y438031D02*
X1616878Y441968D01*
X1616878Y438031D02*
X1616878Y441968D01*
X1614910Y440000D02*
X1618847Y440000D01*
X1623409D02*
X1627346D01*
X1625378Y438031D02*
Y441968D01*
Y438031D02*
Y441968D01*
X1623409Y440000D02*
X1627346D01*
X1457817Y544500D02*
X1461754D01*
X1459785Y542531D02*
Y546468D01*
X1467567Y544500D02*
X1471504D01*
X1469535Y542531D02*
Y546468D01*
X1479285Y542531D02*
Y546468D01*
X1477317Y544500D02*
X1481254D01*
X1683630Y89661D02*
Y93598D01*
X1681661Y91630D02*
X1685598D01*
D166*
X1445000Y527000D02*
X1447000D01*
X1446000Y526000D02*
Y528000D01*
M02*
