M48
;Layer_Color=9474304
;FILE_FORMAT=2:5
INCH,LZ
;TYPE=PLATED
T1F00S00C0.01200
T3F00S00C0.04724
T4F00S00C0.05906
T5F00S00C0.06700
T6F00S00C0.07480
T7F00S00C0.12000
T8F00S00C0.12500
T10F00S00C0.15700
T11F00S00C0.16000
;TYPE=NON_PLATED
T12F00S00C0.02559
T13F00S00C0.12598
%
T01
X1676853Y0016156
X1661853
X1646853
X1631853
X1616853
X1601853
X1586853
X1571853
X1556853
X1541853
X1526853
X1511853
X1496853
X1481853
X1466853
X1451853
X1436853
X1421853
X1406853
X1391853
X1361853
X1346853
X1331853
X1316853
X1301853
X1286853
X1271853
X1256853
X1241853
X1226853
X1211853
X1196853
X1181853
X1166853
X1151853
X1136853
X1121853
X1106853
X1091853
X1076853
X1061853
X1046853
X1031853
X1016853
X1001853
X0986853
X0971853
X0956853
X0941853
X0926853
X0911853
X0896853
X0881853
X0866853
X0851853
X0836853
X0821853
X0806853
X0791853
X0776853
X0761853
X0746853
X0731853
X0716853
X0701853
X0686853
X0671853
X0656853
X0641853
X0626853
X0611853
X0596853
X0581853
X0566853
X0551853
X0536853
X0521853
X0506853
X0491853
X0476853
X0461853
X0446853
X0431853
X0416853
X0401853
X0386853
X0371853
X0356853
X0341853
X0326853
X0311853
X0296853
X0281853
X0266853
X0251853
X0236853
X0221853
X0206853
X0191853
X0176853
X0161853
X0146853
X0131853
X0116853
X0101853
X0056853
X0041853
X0026853
X0011853
X0019353Y0031156
X0034353
X0049353
X0064353
Y0061156
X0071853Y0076156
X0056853
X0064353Y0091156
X0068892Y0098477
X0068695Y0104383
X0056853Y0106156
X0064353Y0121156
X0049353
X0056853Y0136156
X0071853
X0086853
X0101853
X0109353Y0151156
X0094353
X0079353
X0064353
X0049353
X0056853Y0166156
X0071853
X0086853
X0101853
X010628Y0179328
X0094353Y0181156
X0064353
X0049353
X0034353
X0019353
X0026853Y0166156
X00365Y01645
X0011853Y0166156
X0019353Y0151156
X0026853Y0136156
X0011853
X0019353Y0121156
X0026853Y0106156
X0011853
X0019353Y0091156
X0026853Y0076156
X0011853
X0019353Y0061156
X0034353
X0041853Y0046156
X0026853
X0011853
X0086853
X0101853
X0109353Y0091156
X010362Y0098477
Y0104383
X01095Y01115
X01145
X0094353Y0091156
X0079353
X0049353
X0124353
X0139353
X0154353
X0169353
X0162642Y0098477
X0162445Y0104383
X0154353Y0121156
X0139353
X0124353
X0131853Y0106156
X0146853Y0076156
X0161853
X0154353Y0061156
X0139353
X0146853Y0046156
X0161853
X0176853
X0191853
X0206853
X0221853
X0236853
X0251853
X0266853
X0244353Y0061156
X0229353
X0214353
X0199353
X0184353
Y0091156
X0199353
X0197369Y0098477
Y0104383
X020325Y01115
X020825
X0214353Y0121156
X0202Y01215
X0184353Y0121156
X0191853Y0136156
X0206853
X0221853
X0229353Y0151156
X0214353
X0199353
X0184353
X0169353
X0154353
X0146853Y0166156
X0141203Y0173423
Y0179328
X0131853Y0166156
X0116853
X0176853
X0191853
X0206853
X0221853
X0228351Y0173423
X0228154Y0179328
X0214353Y0181156
X0199353
X0184353
X0236853Y0166156
X0251853
X0266853
X0263078Y0173423
Y0179328
X0251853Y0136156
Y0106156
X0256195Y0104383
X0256392Y0098477
X0259353Y0091156
X0244353
X0251853Y0076156
X0236853
Y0106156
X0229353Y0121156
X0214353Y0091156
X0206853Y0076156
X0116853
Y0046156
X0131853
X0281853
X0296853
X0311853
X0326853
X0341853
X0349353Y0061156
X0364353
X0379353
X0394353
X0409353
X0424353
X0416853Y0076156
X0401853
X0386853
X0371853
X0356853
X0341853
X0349353Y0091156
X0364353
X0379353
X0394353
X0409353
X0424353
X0416853Y0106156
X0401853
X0386853
X0371853
Y0136156
X0356853
X0364353Y0151156
X0379353
X0386853Y0166156
X0401853
X0416853
X041308Y0173423
Y0179328
X0378156
X0378353Y0173423
X0371853Y0166156
X0364353Y0181156
X0338078Y0179328
Y0173423
X0341853Y0166156
X0326853
X0311853
X0296853
X0303351Y0173423
X0303154Y0179328
X0289353Y0181156
Y0151156
X0304353
X0296853Y0136156
X0281853
X0283Y01205
X0289353Y0121156
X0274353
Y0151156
X0297Y01115
X0302
X0291119Y0104383
Y0098477
X0289353Y0091156
X0304353
X0319353
X0334353
X0341853Y0106156
X0349353Y0151156
X0401853Y0136156
X0424353Y0151156
X0416853Y0046156
X0401853
X0386853
X0371853
X0334353Y0061156
X0319353
X0304353
X0289353
X0274353
X0296853Y0076156
X0311853
X0431853
X0446853
X0461853
X0469353Y0091156
X0484353
X0499353
X0514353
X0529353
X0544353
X0537727Y0098423
X053753Y0104329
X0521853Y0106156
X0506853
X0491853
X0476853
X0461853
X0454353Y0091156
X0439353
X0431853Y0106156
Y0136156
X0446853
X0454353Y0151156
X0439353
X0446853Y0166156
X0453353Y0173423
X0453156Y0179328
X0439353Y0181156
X0461853Y0166156
X0476853
X0491853
X048808Y0173423
Y0179328
X0514353Y0181156
X0528156Y0179328
X0528353Y0173423
X0521853Y0166156
X0536853
X0551853
X0566853
X056308Y0173423
Y0179328
X0574353Y0151156
X0581853Y0136156
X0583334Y0111446
X0578334
X0572454Y0104329
Y0098423
X0574353Y0091156
X0559353
X0581853Y0076156
Y0046156
X0566853
X0551853
X0536853
X0521853
X0506853
X0491853
X0476853
X0461853
X0446853
X0431853
X0439353Y0061156
X0454353
X0469353
X0484353
X0499353
X0514353
X0529353
X0536853Y0076156
X0521853
X0506853
X0491853
X0506853Y0136156
X0521853
X0529353Y0151156
X0514353
X0499353
X0506853Y0166156
X0596853
X0603353Y0173423
X0603156Y0179328
X0589353Y0181156
Y0151156
X0604353
X0611853Y0166156
X0626853
X0641853
X063808Y0173423
Y0179328
X0664353Y0181156
X0678156Y0179328
X0678353Y0173423
X0671853Y0166156
X0686853
X0701853
X0716853
X071308Y0173423
Y0179328
X0739353Y0181156
Y0151156
X0724353
X0731853Y0136156
Y0106156
Y0076156
X0716853
X0701853
X0686853
X0671853
X0656853
X0664353Y0061156
X0679353
X0694353
X0709353
X0724353
X0739353
X0731853Y0046156
X0716853
X0701853
X0686853
X0671853
X0656853
X0641853
X0626853
X0611853
X0596853
X0604353Y0061156
X0619353
X0634353
X0649353
X0626853Y0076156
X0611853
X0596853
X0604353Y0091156
X0619353
X0589353
Y0061156
X0596853Y0136156
X0656853
X0671853
X0679353Y0151156
X0664353
X0649353
X0754353
X0761853Y0166156
X0776853
X0791853
X078808Y0173423
Y0179328
X0814353Y0181156
X0828156Y0179328
X0828353Y0173423
X0821853Y0166156
X0836853
X0851853
X0866853
X086308Y0173423
Y0179328
X0889353Y0181156
Y0151156
X0874353
X0881853Y0136156
X0851853
X0821853
X0829353Y0151156
X0814353
X0799353
X0802Y0128
X0806853Y0106156
X0818694Y0104383
X0818891Y0098477
X0821853Y0076156
X0806853
X0791853
X0776853
X0761853
X0746853
X0754353Y0061156
X0769353
X0784353
X0799353
X0814353
X0821853Y0046156
X0836853
X0851853
X0866853
X0881853
X0889353Y0061156
X0874353
X0881853Y0076156
X0866853
X0853618Y0098477
Y0104383
X0859498Y01115
X0864498
X0889353Y0091156
X0791853Y0106156
X0776853
X0761853
X0746853Y0136156
Y0166156
X0753353Y0173423
X0753156Y0179328
X0761853Y0046156
X0776853
X0791853
X0806853
X0896853
X0911853
X0926853
X0941853
X0956853
X0971853
X0986853
X1001853
X1016853
X1031853
X1046853
X104201Y0058528
X1046853Y0076156
X1041118Y0098477
Y0104383
X1046853Y0106156
X1052885Y0105052
X1024353Y0121156
Y0151156
X1039353
X1046853Y0166156
X1043975Y0173423
X1043778Y0179328
X1039353Y0181156
X1024353
X1031853Y0166156
X1016853
X1001853
X1009353Y0151156
X0994353
X0979353
X0986853Y0136156
X0971853
X0979353Y0121156
X0994353
X1001853Y0106156
X1006194Y0104383
X1006391Y0098477
X1001853Y0076156
X0986853
X0971853
X0956853
X0964353Y0061156
X0979353
X0994353
X0986853Y0106156
X095825Y01115
X095325
X094737Y0104383
Y0098477
X0912643
X0912446Y0104383
X0904353Y0091156
X0911853Y0076156
X0896853
X0904353Y0061156
X0896853Y0136156
X0904353Y0151156
X0911853Y0166156
X0926853
X0941853
X093808Y0173423
Y0179328
X0956853Y0166156
X0971853
X0949353Y0151156
X0896853Y0166156
X0903353Y0173423
X0903156Y0179328
X1078702
X10845Y01725
X10905
X1091853Y0166156
X1106853
X1121853
X1136853
X1151853
X1148Y01615
X1144353Y0151156
X1159353
X1151853Y0136156
X11515Y01195
X1144353Y0121156
X114575Y01115
X114075
X113487Y0104383
Y0098477
X1129353Y0091156
X1144353
X1159353
X1166853Y0076156
X1181853
X1196853
X1204353Y0091156
X1203353Y0098423
X1203156Y0104329
X1181Y0112
Y0117
X1159353Y0121156
X11255Y0129
X1121853Y0136156
X1106853
X1114353Y0151156
X1129353
X1144353Y0181156
X1159353
X1204353
X1196853Y0166156
X1204353Y0151156
X1196853Y0136156
X1189353Y0061156
X1159353
X1159Y0045
X11425Y00465
X1136853Y0046156
X1121853
X1106853
X1091853
X1076853
X1061853
X1069353Y0061156
X1084353
X1099353
X1106853Y0076156
X1091853
X1076853
X1061853
X1054353Y0061156
X1058Y0105
X1076853Y0106156
X1091853
X1099946Y0104383
X1100143Y0098477
X1099353Y0091156
X1114353
X1084353
Y0151156
X1076853Y0166156
X1099353Y0181156
X1061853Y0136156
X1175181Y0042978
X1219353Y0061156
X1211853Y0076156
X1256853
X1265Y00795
X1271853Y0076156
X1286853
X1294353Y0061156
X1264353
X125Y00415
X123808Y0098423
Y0104329
X1244252Y0112999
Y0117999
X1241853Y0136156
X1256853
X1271853
X1249353Y0151156
X1256853Y0166156
X1241853
X1226853
X1211853
X1219353Y0181156
X1249353
X1278353Y0173423
X131308
X1324353Y0181156
X1339353
X1354353
X1361853Y0166156
X1346853
X1354353Y0151156
X1361853Y0136156
X1346853
X1324353Y0151156
X1319252Y0117999
Y0112999
X131308Y0104329
Y0098423
X134Y0094
X1354353Y0091156
X1353353Y0098423
X1353156Y0104329
X1346853Y0076156
X1361853
X1339353Y0061156
X1278353Y0098423
X1278857Y0104
X1211853Y0136156
X1219353Y0151156
X1369353
X1384353
X1399353
X1406853Y0166156
X1391853
X1376853
X1384353Y0181156
X1399353
X1369353
X1376853Y0136156
X1391853
X1406853
X1418563Y0122063
X14235Y01235
X14275Y01225
X1444353Y0121156
X14595Y01205
X1474353Y0121156
X1481853Y0106156
X1466853
X1451853
X1436853
X1444353Y0091156
X1459353
X1474353
X1472872Y008248
X1472712Y0067288
X14715Y0052
X1496853Y0046156
X1511853
X1519353Y0061156
X1504353
X1511853Y0076156
X1518Y01215
Y01255
X1504353Y0121156
X149893Y015393
X1515Y0158
X1494Y0171
X1474353Y0181156
X1459353
X1444353
X1451853Y0166156
X1436853
X1444353Y0151156
X1459353
X1474353
X1444047Y0074689
Y0059689
X1444046Y0043599
X1429353Y0031156
X1414353
X1399353
X1388Y00525
X1369353Y0061156
X1384353Y0091156
X138808Y0098423
Y0104329
X1394252Y0112999
Y0117999
X1406853Y0106156
X1399353Y0091156
X1534353
X1549353
X1564353
X1571853Y0106156
X1586853
X1601853
X1616853
X1631853
X1646853
X1654353Y0121156
X1661853Y0136156
X166615Y013465
X1675315Y0129721
X1646853Y0136156
Y0166156
X1661853
X1666Y018
X1675315Y0174886
X1631853Y0166156
X1616853
X1601853
X1587Y0147
X1568Y01475
Y0152
X1564353Y0151156
X1562Y01415
X1546Y0145
X15465Y0164
X154275Y016375
X1538Y0163
X1537126Y0167
X15335Y01655
X153Y0164
X15235Y01785
X15385Y0179
X15415Y01815
X15515Y0165
X1573Y01605
X15775Y0177
X1568
X1594353Y0121156
Y0091156
X1609353
X1624353
X1631853Y0076156
X1646853
X1661853
X1661846Y00955
X1654353Y0061156
X1639353
X1624353
X1631853Y0046156
X1646853
X1661853
X1666Y0044614
X1675315Y0039658
X1669353Y0031156
X1654353
X1639353
X1624353
X1609353
X1594353
X1601853Y0046156
X1616853
Y0076156
X1601853
X1586853
X1571853
X1556853
X1541853
X1526853
X1534353Y0061156
X1549353
X1564353
X1571853Y0046156
X1541853
X1526853
X1533Y011175
Y01155
X153675
Y011925
X1533
Y0123
X1679658Y0129721
X1684
Y0174886
X1679658
Y00395
X1684
X1683Y02405
X1654353Y0241156
X1641Y0236
X1631853Y0226156
X1616853
X1601853
X1586853
X15775Y0218
Y0214
X1573
Y021825
X15815Y02035
X15855
X1603748Y0200819
X1610741Y0207742
X1609353Y0211156
X1624353
X164Y0216
X1631853Y0196156
X1616853
X1610741Y0190026
X15765Y01915
X1568
X155125Y0194
X15395Y0190339
X15365Y01875
X1533
X1530211Y019
X1527Y018625
X15235Y0186
X15345Y02085
X1539724Y0212166
X1546882Y0210611
X1557Y0204
X1556853Y0226156
X1541853
X1539Y02285
X1546Y02345
X1549353Y0241156
X15385Y02415
X1532Y0235
X15245Y0243
X15305Y02495
X1541853Y0256156
X1549353Y0271156
X1524Y02745
X1549353Y0301156
Y0331156
X1594353
X1609353
X1624353
X1639353
X1654353
X1661853Y0316156
X1646853
X1631853
X1616853
X1601853
X1586853
X1594353Y0301156
X1586853Y0286156
X1594353Y0271156
X1601853Y0256156
X1616853
X1631853
X1646853
X1661853
X1654353Y0271156
X1639353
X1624353
X1631853Y0286156
X1646853
X1661853
X1654353Y0301156
X1639353
X1624353
X1616853Y0286156
X1624353Y0241156
X1609353
X1594353
X1586853Y0256156
X1661853Y0196156
X16585Y0185
X1667
X1510225Y0199281
X1509Y0211
X1489353Y0211156
X14865Y02125
X1481853Y0226156
X1492Y02275
X1466853Y0226156
X1474353Y0241156
X1459353
X1451853Y0256156
X1459353Y0271156
X1474353
X1481853Y0286156
X1496853
X15095Y02835
X152
X15185Y02745
X1519353Y0271156
X1512Y02745
X1507
X15095Y02965
X152
X1519353Y0301156
X152Y03095
X15095
Y03225
X152
X1519353Y0331156
X152Y03355
X15095
X1489353Y0331156
X1474353
X1459353
X1444353
X1429353
X1421853Y0316156
X1429353Y0301156
X1444353
X1459353
X1474353
X1481853Y0316156
X1496853
X1451853
Y0286156
X1444353Y0271156
X1429353
X1421853Y0286156
X1399353Y0271156
X1391853Y0256156
X1394Y0244
X1399353Y0241156
X1414353
X1421853Y0226156
X1406853
X1414353Y0211156
X1429353
X1444353
X1451853Y0196156
X1436853
X1391853
X1376853
X1369353Y0211156
X1384353Y0241156
X1376853Y0256156
X1369353Y0271156
X1391853Y0316156
X1399Y03135
X138808Y0323423
Y0329328
X1394252Y0337998
X1481853Y0256156
X1496853
X1519353Y0241156
X14935Y01975
X148475Y01925
X1361853Y0196156
X1346853
X1331853
X1316853
X1301853
X1286853
X1271853
X1279353Y0211156
X1294353
X1309353
X1324353
X1339353
X1354353
X1361853Y0226156
X1346853
X1331853
X1316853
X1301853
X1286853
X1271853
X1279353Y0241156
X1294353
X1309353
X1324353
X1339353
X1331853Y0256156
X1316853
X1301853
X1286853
X1271853
X1267Y026
X12595
X1266Y0267
X1279353Y0271156
X1294353
X1309353
X1324353
X1331853Y0286156
X1346853
X1354353Y0301156
X1339353
X1324353
X131308Y0323423
Y0329328
X1319252Y0337998
X1353156Y0329328
X1353353Y0323423
X1354353Y0271156
X1361853Y0256156
X1264353Y0241156
X1249353
X1241853Y0226156
X1226853
X1211853
X1219353Y0241156
Y0271156
X1249353
X1256853Y0286156
X1271853
X1279353Y0301156
X1264353
X1249353
X123808Y0323423
Y0329328
X1244252Y0337998
X1264353Y0331156
X1278156Y0329328
X1278353Y0323423
X1264353Y0211156
X1249353
X1241853Y0196156
X1226853
X1211853
X1219353Y0211156
X1204353
X1196853Y0226156
X1204353Y0241156
Y0271156
X1196853Y0286156
X1204353Y0301156
X1196853Y0316156
X1203353Y0323423
X1203156Y0329328
X11735Y03375
X11685
X1159353Y0331156
X1144353
X1134252Y0335
X1130252
X112558Y0329328
Y0323423
X1121853Y0316156
X1136853
X1144353Y0301156
X1159353
X1151853Y0286156
X1136853Y0256156
X1144353Y0241156
X1129353
X11075Y02485
X1103
X1097454Y0248423
Y0254328
X1099353Y0241156
X1084353
X1069353
X1062727Y0248423
X106253Y0254328
X1054353Y0241156
X1061853Y0226156
Y0196156
X1076853
X1091853
X1084353Y0211156
X1114353
X1129353
X1144353
X1159353
X1151853Y0226156
Y0196156
X1136853
X1196853
X1106853Y0226156
Y0286156
X1099353Y0301156
X1084353
X1069353
X1076853Y0316156
X1091853
X1090853Y0323423
X1090656Y0329328
X1084353Y0331156
X1076853Y0286156
X1061853
X1031853
X1016853
Y0256156
X1024353Y0241156
X1039353
X1046853Y0256156
Y0226156
X1031853
X1016853
X1009353Y0241156
X0994353
X0979353
X097558Y0248423
Y0254328
X0980502Y0265
X0984002
X0986853Y0286156
Y0316156
X1001853
X0997101Y0323423
X0996904Y0329328
X0994353Y0331156
X0971853Y0316156
X0956853
X0956828Y0323423
Y0329328
X096175Y034
X096525
X0964353Y0301156
X0956853Y0286156
X0941853
X0949353Y0271156
X0964353
Y0241156
X0949353
X0934353
X0940853Y0248423
X0940656Y0254328
X0926853Y0256156
X0934353Y0271156
X0904353
X0905502Y0265
X0909002
X090058Y0254328
Y0248423
X0904353Y0241156
X0911853Y0226156
X0926853
X0941853
X0934353Y0211156
X0919353
X0926853Y0196156
X0941853
X0943002Y019
X0946502
X0956853Y0196156
X0971853
X0986853
X1001853
X1016853
X1046853
X0994353Y0211156
X0986853Y0226156
X0964353Y0211156
X0911853Y0196156
X0896853
X0911853Y0286156
Y0316156
X0926853
X0922101Y0323423
X0921904Y0329328
X0919353Y0331156
X0896853Y0316156
X1031853
X1031828Y0323423
Y0329328
X10365Y0335
X10405
X1046853Y0316156
X1039353Y0301156
X0889353
X0881853Y0316156
X0881828Y0323423
Y0329328
X088675Y034
X089025
X0846904Y0329328
X0844353Y0331156
X0847101Y0323423
X0851853Y0316156
X0836853
X0821853
X0806853
X0806828Y0323423
Y0329328
X081175Y034
X081525
X0814353Y0301156
X0806853Y0286156
X0791853
X0799353Y0271156
X0814353
X0829353
X0830502Y0265
X0834002
X082558Y0254328
Y0248423
X0829353Y0241156
X0814353
X0799353
X0784353
X0790853Y0248423
X0790656Y0254328
X0776853Y0256156
X0784353Y0271156
X0754353
X0755502Y0265
X0759002
X075058Y0254328
Y0248423
X0754353Y0241156
X0761853Y0226156
X0776853
X0791853
X0784353Y0211156
X0769353
X0776853Y0196156
X0791853
X0793002Y019
X0796502
X0806853Y0196156
X0821853
X0836853
X0851853
X0866853
X0868002Y019
X0871502
X0881853Y0196156
X0859353Y0211156
X0844353
X0851853Y0226156
X0866853
X0874353Y0241156
X0889353
Y0271156
X0874353
X0859353
X0866853Y0286156
X0881853
X0836853
X0851853Y0256156
X0865656Y0254328
X0865853Y0248423
X0859353Y0241156
X0836853Y0226156
X0761853Y0196156
X0746853
X0761853Y0286156
Y0316156
X0776853
X0772101Y0323423
X0771904Y0329328
X0769353Y0331156
X0746853Y0316156
X0731853
X0731828Y0323423
Y0329328
X073675Y034
X074025
X0739353Y0301156
X0731853Y0286156
X0716853
X0724353Y0271156
X0739353
Y0241156
X0724353
X0709353
X0715853Y0248423
X0715656Y0254328
X0709353Y0271156
X0679353
X0680502Y0265
X0684002
X067558Y0254328
Y0248423
X0679353Y0241156
X0664353
X0649353
X0634353
X0640853Y0248423
X0640656Y0254328
X0634353Y0271156
X0649353
X0664353
X0656853Y0286156
X0641853
X0611853
X0604353Y0271156
X0605502Y0265
X0609002
X060058Y0254328
Y0248423
X0604353Y0241156
X0589353
Y0271156
Y0301156
X0596853Y0316156
X0611853
X0626853
X0622101Y0323423
X0621904Y0329328
X0619353Y0331156
X059025Y034
X058675
X066175
X066525
X0656828Y0329328
Y0323423
X0656853Y0316156
X0671853
X0686853
X0701853
X0697101Y0323423
X0696904Y0329328
X0694353Y0331156
X0686853Y0286156
X0664353Y0301156
X0686853Y0226156
X0701853
X0716853
X0709353Y0211156
X0694353
X0701853Y0196156
X0716853
X0718002Y019
X0721502
X0731853Y0196156
X0686853
X0671853
X0656853
X0641853
X0643002Y019
X0646502
X0626853Y0196156
X0611853
X0596853
X0619353Y0211156
X0634353
X0641853Y0226156
X0626853
X0611853
X0566853
X0551853
X0536853
X0544353Y0211156
X0559353
X0566853Y0196156
X0568002Y019
X0571502
X0581853Y0196156
X0551853
X0536853
X0521853
X0506853
X0491853
X0493002Y019
X0496502
X0476853Y0196156
X0461853
X0446853
X0431853
X0469353Y0211156
X0484353
X0491853Y0226156
X0476853
X0461853
X0454353Y0241156
X045058Y0248423
Y0254328
X0455502Y0265
X0459002
X0454353Y0271156
X0439353
X0431853Y0286156
X0439353Y0301156
X0446853Y0316156
X0461853
X0476853
X0472101Y0323423
X0471904Y0329328
X0469353Y0331156
X044025Y034
X043675
X0431828Y0329328
Y0323423
X0431853Y0316156
X0461853Y0286156
X0491853
X0506853
X0514353Y0301156
X0521853Y0316156
X0536853
X0551853
X0547101Y0323423
X0546904Y0329328
X0544353Y0331156
X051525Y034
X051175
X0506828Y0329328
Y0323423
X0506853Y0316156
X0514353Y0271156
X0529353
X0530502Y0265
X0534002
X052558Y0254328
Y0248423
X0529353Y0241156
X0514353
X0499353
X0484353
X0490853Y0248423
X0490656Y0254328
X0476853Y0256156
X0484353Y0271156
X0499353
X0536853Y0286156
X0566853
X0581853
X0574353Y0271156
X0559353
X0551853Y0256156
X0565656Y0254328
X0565853Y0248423
X0559353Y0241156
X0574353
X0581853Y0316156
X0581828Y0323423
Y0329328
X0514353Y0211156
X0439353Y0241156
X0424353
X0409353
X0415853Y0248423
X0415656Y0254328
X0401853Y0256156
X0409353Y0271156
X0424353
X0416853Y0286156
X0386853
X0379353Y0271156
X03805Y0265
X0384
X0375578Y0254328
Y0248423
X0379353Y0241156
X0364353
X0349353
X0334353
X0340851Y0248423
X0340654Y0254328
X0326853Y0256156
X0334353Y0271156
X0349353
X0364353
X0356853Y0286156
X0341853
X0311853
X0304353Y0271156
X03055Y0265
X0309
X0300578Y0254328
Y0248423
X0304353Y0241156
X0289353
X0274353
Y0271156
X0289353
X0281853Y0286156
X0289353Y0301156
X0296853Y0316156
X0311853
X0326853
X0322101Y0323423
X0321904Y0329328
X0319353Y0331156
X029025Y034
X028675
X0281828Y0329328
Y0323423
X0281853Y0316156
X0356853
X0356828Y0323423
Y0329328
X036175Y034
X036525
X0371853Y0316156
X0386853
X0401853
X0397101Y0323423
X0396904Y0329328
X0394353Y0331156
X0364353Y0301156
X0386853Y0226156
X0401853
X0416853
X0409353Y0211156
X0394353
X0401853Y0196156
X0416853
X0418Y019
X04215
X0386853Y0196156
X0371853
X0356853
X0341853
X0343Y019
X03465
X0326853Y0196156
X0311853
X0296853
X0281853
X0319353Y0211156
X0334353
X0341853Y0226156
X0326853
X0311853
X0266853
X0251853
X0236853
X0244353Y0211156
X0259353
X0268Y019
X02715
X0259353Y0241156
X0265851Y0248423
X0265654Y0254328
X0259353Y0271156
X0266853Y0286156
X0236853
X0229353Y0271156
X02305Y0265
X0234
X0225578Y0254328
Y0248423
X0229353Y0241156
X0214353
X0199353
X0184353
X0190851Y0248423
X0190654Y0254328
X0176853Y0256156
X0184353Y0271156
X0199353
X0214353
X0206853Y0286156
X0191853
X0161853
X0146853
X0131853
X0130791Y0265112
X0127291
X0124353Y0271156
X012237Y025444
Y0248535
X0124353Y0241156
X0131853Y0226156
X0146853
X0161853
X0176853
X0191853
X0184353Y0211156
X0169353
X0154353
X0139353
X0124353
X0131853Y0196156
X0116853
X0146125Y019
X0149625
X0154353Y0241156
X0169353
Y0271156
X0154353
Y0301156
X0161853Y0316156
X0176853
X0172101Y0323423
X0171904Y0329328
X0169353Y0331156
X0154353
X0146853Y0316156
X0131853
X0116853
X0124353Y0301156
X01215Y034
X0118
X021175
X021525
X0206828Y0329328
Y0323423
X0206853Y0316156
X0221853
X0236853
X0251853
X0247101Y0323423
X0246904Y0329328
X0244353Y0331156
X0214353Y0301156
X0113078Y0323423
Y0329328
X0101853Y0316156
X0086853
X0071853
X0056853
X004Y03195
X0026853Y0316156
X0011853
X0019353Y0331156
X0034353
X0049353
X0064353
X0078154Y0329328
X0079353Y0301156
X0064353
X0049353
X0034353
X0019353
X0026853Y0286156
X0011853
X0019353Y0271156
X0034353
X0049353
X0064353
X0071853Y0286156
X0056853
Y0256156
X0071853
X0087476Y0254334
X0087642Y0248535
X0094353Y0241156
X0109353
Y0271156
X0094353
X0079353Y0241156
X0064353
X0049353
X0034353
X0019353
X0026853Y0256156
X0011853
Y0226156
X0026853
X0034353Y0211156
X0049353
X0064353
X0079353
X0086853Y0226156
X0071853
X0056853
Y0196156
X0071853
X0086853
X0101853
X0109353Y0211156
X0019353
X0026853Y0196156
X0011853
Y0346156
X0026853
X0034353Y0361156
X0049353
X0056853Y0346156
X0071853
X0086853
X0101853
X0094353Y0361156
X0079353
X0101853Y0376156
X0109353Y0391156
X0094353
X0094328Y0398423
Y0404328
X01005Y0412998
Y0417998
X0094353Y0421156
X0079353
X0064353
X0049353
X0034353
X0019353
X0026853Y0436156
X0011853
X0019353Y0451156
X0034353
X0049353
X0064353
X0079353
X0086853Y0436156
X0101853
X0056853
Y0466156
X0071853
X0079353Y0481156
X0064353
X0049353
X0034353
X0019353
X0026853Y0496156
X0011853
Y0466156
X0026853
Y0406156
X0011853
X0019353Y0391156
X0034353
X0049353
X0064353
X0059601Y0398423
X0059404Y0404328
X0026853Y0376156
X0011853
X0019353Y0361156
X0086853Y0496156
X0131853
X0146853
X0161853
X0176853
X0191853
Y0466156
X0206853
Y0436156
X0221853
X0236853
X0251853
X02505Y0417998
Y0412998
X0244328Y0404328
Y0398423
X0244353Y0391156
X0259353
X0251853Y0376156
X0259353Y0361156
X0244353
X0229353
X0236853Y0346156
X0251853
X0266853
X0206853
X0191853
X0176853
X0161853
X0146853
X0131853
X0116853
X0124353Y0361156
X0154353
X0169353
X0176853Y0376156
X0191853
X0199353Y0391156
X0214353
X0209601Y0398423
X0209404Y0404328
X0206853Y0406156
X0191853
X01755Y0412998
Y0417998
X0176853Y0436156
X0191853
X0161853
X0146853
X0131853
Y0466156
X0146853
X0161853
X0176853
X0116853
X0131853Y0406156
X0135357Y0404
X0134601Y0398423
X0139353Y0391156
X0124353
X0169353
X0169328Y0398423
Y0404328
X0199353Y0361156
X0266853Y0466156
X0236853Y0496156
X0311853
X0341853
Y0466156
X0356853
X0371853
Y0436156
X0386853
X0401853
X04005Y0417998
Y0412998
X0394328Y0404328
Y0398423
X0394353Y0391156
X0409353
X0424353
X0401853Y0376156
X0394353Y0361156
X0379353
X0386853Y0346156
X0401853
X0416853
X0356853
X0341853
X0326853
X0311853
X0319353Y0361156
X0304353
X0274353
X0281853Y0346156
X0289353Y0391156
X0284601Y0398423
X0284404Y0404328
X0281853Y0406156
X0274353Y0391156
X0319353
X0319328Y0398423
Y0404328
X03255Y0412998
Y0417998
X0326853Y0436156
X0311853
X0296853
X0281853
Y0466156
X0296853
X0339Y04495
X0356853Y0436156
Y0406156
X0359404Y0404328
X0359601Y0398423
X0364353Y0391156
X0349353
X0334353
X0326853Y0376156
X0349353Y0361156
X0386853Y0496156
X0416853
X0461853
X0491853
X0506853
X0521853
X0536853
X0551853
Y0466156
X0566853
X0581853
X0566853Y0436156
X0551853
X0536853
X0521853
X0506853
X0502Y04495
X0506853Y0466156
X0521853
X0536853
X0491853
X0476853Y0436156
X0461853
X0446853
X0431853
Y0406156
X0434404Y0404328
X0434601Y0398423
X0439353Y0391156
X0469353
X0469328Y0398423
Y0404328
X04755Y0412998
Y0417998
X0484353Y0391156
X0499353
X0514353
X0509601Y0398423
X0509404Y0404328
X0506853Y0406156
X0544328Y0404328
Y0398423
X0544353Y0391156
X0559353
X0574353
X0581853Y0406156
X05505Y0412998
Y0417998
X0551853Y0376156
X0559353Y0361156
X0574353
X0581853Y0346156
X0566853
X0551853
X0536853
X0521853
X0506853
X0491853
X0476853
X0461853
X0469353Y0361156
X0454353
X0476853Y0376156
X0499353Y0361156
X0544353
X0431853Y0346156
X0611853
X0626853
X0641853
X0656853
X0671853
X0686853
X0701853
X0716853
X0731853
X0724353Y0361156
Y0391156
X0739353
X0734601Y0398423
X0734404Y0404328
X0731853Y0406156
Y0436156
Y0466156
X0716853
X0701853
X0686853
X0671853
X0656853
X0641853
X0626853
X0611853
Y0496156
X0626853
X0671853
X0686853
X0701853
Y0436156
X0686853
X0671853
X0656853
Y0406156
X0659404Y0404328
X0659601Y0398423
X0664353Y0391156
X0649353
X0634353
X0619353
X0619328Y0398423
Y0404328
X06255Y0412998
Y0417998
X0626853Y0436156
X0611853
X0596853
X0584404Y0404328
X0584601Y0398423
X0589353Y0391156
X0604353Y0361156
X0619353
X0626853Y0376156
X0649353Y0361156
X0679353
X0694353
X0701853Y0376156
X0709353Y0391156
X0694353
X0694328Y0398423
Y0404328
X07005Y0412998
Y0417998
X0746853Y0436156
X0761853
X0776853
X0791853
X0821853
X0836853
X0851853
X08505Y0417998
Y0412998
X0844328Y0404328
Y0398423
X0844353Y0391156
X0859353
X0874353
X0889353
X0884601Y0398423
X0884404Y0404328
X0881853Y0406156
Y0436156
Y0466156
X0866853
X0851853
X0836853
X0821853
X0806853
X0791853
X0776853
X0761853
X0746853
Y0496156
X0761853
X0776853
X0821853
X0836853
X0851853
X0866853
X0851853Y0376156
X0844353Y0361156
X0829353
X0836853Y0346156
X0851853
X0866853
X0881853
X0874353Y0361156
X0821853Y0346156
X0806853
X0791853
X0776853
X0761853
X0769353Y0361156
X0754353
X0776853Y0376156
X0784353Y0391156
X0799353
X0814353
X0809601Y0398423
X0809404Y0404328
X0806853Y0406156
X07755Y0412998
Y0417998
X0769328Y0404328
Y0398423
X0769353Y0391156
X0799353Y0361156
X0896853Y0346156
X0911853
X0926853
X0941853
X0956853
X0971853
X0986853
X1001853
X1016853
X1031853
Y0376156
X1046853
X1039353Y0391156
X1024353
X1009353
X0994353
X0994328Y0398423
Y0404328
X10005Y0412998
Y0417998
X1001853Y0376156
X0994353Y0361156
X0979353
X0949353
X0934353
X0919353
Y0391156
X0919328Y0398423
Y0404328
X09255Y0412998
Y0417998
X0926853Y0436156
X0941853
X0956853
X0971853
Y0466156
X0956853
X0941853
Y0496156
X0911853
X0896853Y0466156
Y0436156
X0911853
X0956853Y0406156
X0959404Y0404328
X0959601Y0398423
X0964353Y0391156
X0949353
X0941853Y0376156
X1016853Y0466156
X1031853
X1046853
X1016853Y0496156
X0986853
X1061853
X1091853
Y0466156
X1106853
X1121853
X11135Y04315
Y0425
X1121853Y0406156
X1106666Y0404374
X1107Y03985
X1114353Y0391156
X1129353
X1144353
X1159353
X1151853Y0406156
Y0376156
X1136853
X1121853
Y0346156
X1106853
X1091853
X1076853
X1069353Y0361156
X1076853Y0376156
X1061853
X1069353Y0391156
X1071939Y0398469
X1071904Y0404328
X1061853Y0406156
X1054353Y0391156
X1084353
X1099353
X1159353Y0361156
X11685Y03415
X11735
X1196853Y0376156
X1204353Y0391156
X1203353Y0398423
X1203156Y0404328
X1196853Y0406156
X11915Y04135
Y04445
X1159353Y0451156
Y0481156
X1136853Y0496156
X1204353Y0481156
X1219353
X1211853Y0466156
X1256853
X1271853
X1286853
X1331853
X13435Y04675
X1346853Y0466156
X1361853
X1331853Y0496156
X1319252Y0417998
Y0412998
X131308Y0404328
Y0398423
X1278353
X1278156Y0404328
X1271853Y0406156
Y0376156
X1286853
X1294353Y0361156
X1319252Y0342998
X1339353Y0361156
X1346853Y0376156
X1361853
X1331853
X1353353Y0398423
X1353156Y0404328
X1346853Y0406156
X1244252Y0412998
Y0417998
X123808Y0404328
Y0398423
X1256853Y0376156
X1211853
X1219353Y0361156
X1244252Y0342998
X12405Y0443
X138Y045
X1398
X1414353Y0451156
X1429353
X1444353
X14495Y04585
X1459353Y0451156
X14625Y04455
X1466853Y0436156
X14755Y04325
X1474353Y0421156
X1459353
X1444353
X1451853Y0436156
Y0406156
X1459353Y0391156
X1474353
X1489353
X1496853Y0406156
X1481853
X14885Y04195
X1496853Y0436156
X1511853
X1513Y04185
X1519353Y0421156
X152Y04005
X1519353Y0391156
X152Y03875
X15095
Y04005
Y03745
X152
Y03615
X15095
Y03485
X152
X1496853Y0346156
X1481853
X1489353Y0361156
X1474353
X1459353
X1444353
X1429353
X1421853Y0376156
X1417Y0375
X14126Y037515
X14095Y0369
X14055Y0395
X1399353Y0391156
X138808Y0398423
X1394252Y0412998
Y0417998
X1421853Y0406156
X1429353Y0391156
X1444353
X1451853Y0376156
X1481853
X1496853
X1451853Y0346156
X1421853
X1394252Y0342998
X1369353Y0361156
X1421853Y0436156
Y0466156
X1436853
X14365Y04715
X1429353Y0481156
X14285Y04935
X1421853Y0496156
X1438Y04935
X1451853Y0496156
X1466853
X1481853
X1496853
X1511853
X1504353Y0481156
X1511853Y0466156
X1496853
X1489353Y0451156
X1487Y04445
X1474Y04575
X1466853Y0466156
X1461Y04705
X1459353Y0481156
X1448Y04835
X1474353Y0481156
X1414353
X1399353
X1526853Y0496156
X1541853
X1556853
X1571853
X1586853
X1601853
X16195Y0482
X1616853Y0466156
X1646853
X1654353Y0481156
X1639353
X1646853Y0496156
X1676853
X1676857Y0454343
X1654353Y0451156
X1646853Y0436156
X1654353Y0421156
X1639353
X1624353
X1609353
X1594353
X1601853Y0406156
X1616853
X1631853
X1646853
X1661853
X1654353Y0391156
X1639353
X1624353
X1609353
X1594353
X1601853Y0376156
X1616853
X1631853
X1646853
X1661853
X1654353Y0361156
X1639353
X1624353
X1609353
X1594353
X1601853Y0346156
X1616853
X1631853
X1646853
X1661853
X1586853
Y0376156
Y0406156
X1571853Y0436156
X1579353Y0451156
X1586853Y0466156
X1556853
X1541853
X15435Y0451
X15485Y04515
X15535Y0451
X1534353Y0451156
Y0421156
X15445Y0422062
X154775Y041725
X1552408Y0425369
X1549353Y0391156
Y0361156
Y0481156
X1681199Y0454343
X1685542
X1661853Y0526156
X1646853
X1639353Y0541156
X1616853Y0526156
X1617Y05155
X1612
X1601853Y0526156
X1571853
X1556853
X1541853
X15355Y0525
Y0529506
X15265Y05295
X1534353Y0511156
X155Y05115
X1564353Y0511156
X1526853Y0556156
X1496853
X1481853
X1466853
X1451853
X1436853
X1421853
X1406853
X1391853
X1399353Y0541156
X1399252Y05305
X1394252
Y05255
X1399252
X138808Y051683
Y0510924
X1384353Y0541156
X1369353
X142639Y0539876
X14255Y05305
X1421853Y0526156
X1436853
X14405Y05305
X1451853Y0526156
X1447Y0515
X1443
Y051
X1447
X1438Y05035
X14285
X1474353Y0511156
X1489353
X1504353
X1519353
X1353353Y0510924
X1353156Y051683
X1354353Y0541156
X1339353
X1324353
X1309353
X1294353
X1279353
X1264353
X1271853Y0556156
X1286853
X1301853
X1316853
X1331853
X1346853
X1361853
X1319252Y05305
Y05255
X131308Y051683
Y0510924
X1278353
X1278156Y051683
X123808
Y0510924
X1244252Y05255
Y05305
X1234353Y0541156
X1219353
X1241853Y0556156
X1256853
X1204353Y0541156
X1203156Y051683
X1203353Y0510924
X1144328
Y051683
X11505Y05255
Y05305
X1158Y05355
X1109404Y051683
X1109601Y0510924
X1084353Y0511156
X1069328Y0510924
Y051683
X10755Y05255
Y05305
X1034404Y051683
X1034601Y0510924
X1009353Y0511156
X0994328Y0510924
Y051683
X10005Y05255
Y05305
X0959404Y051683
X0959601Y0510924
X0934353Y0511156
X0919328Y0510924
Y051683
X09255Y05255
Y05305
X0884404Y051683
X0884601Y0510924
X0844353Y0511156
X0829353
X0806828Y0510924
Y051683
X0813Y05255
Y05305
X0771904Y051683
X0772101Y0510924
X0731828
Y051683
X0738Y05255
Y05305
X0696904Y051683
X0697101Y0510924
X0656828
Y051683
X0663Y05255
Y05305
X0621904Y051683
X0622101Y0510924
X0588Y05255
Y05305
X0589353Y0541156
X0574353
X0559353
X0544353
X0529353
X0514353
X0499353
Y0511156
X0469328Y0510924
Y051683
X04755Y05255
Y05305
X0469353Y0541156
X0454353
X0439353
X0433377Y0516783
X0434601Y0510924
X0547101
X0545877Y0516783
X0581828Y051683
Y0510924
X0409353Y0511156
X0394328Y0510924
Y051683
X04005Y05255
Y05305
X0394353Y0541156
X0409353
X0424353
X0379353
X0364353
X0334353
X0319353
X0304353
X0289353
X0274353
X0283377Y0516783
X0284601Y0510924
X0319328
Y051683
X03255Y05255
Y05305
X0358377Y0516783
X0359601Y0510924
X0259353Y0511156
X0244328Y0510924
Y051683
X02505Y05255
Y05305
X0244353Y0541156
X0259353
X0229353
X0214353
X0199353
X0184353
X0169353
X0154353
X0139353
X0124353
X0116853Y0556156
X0124353Y0511156
X0139353
X0154353
X0169353
X0184353
X0199353
X0209601Y0510924
X0208377Y0516783
X0109353Y0511156
X0094328Y0510924
Y051683
X01005Y05255
Y05305
X0094353Y0541156
X0109353
X0101853Y0556156
X0079353Y0541156
X0064353
X0049353
X0034353
X0019353
X0026853Y0556156
X0041853
X0056853
Y0526156
X00655Y0524
X0071853Y0526156
X0086853
X0059601Y0510924
X0049353Y0511156
X0034353
X0019353
X0026853Y0526156
X0041853
X0011853
Y0556156
T03
X1593153Y0012815
X1549846
T04
X0076256Y006143
X0101256Y007143
X011384Y0136375
X013884Y0146376
X0235715Y0136375
X0260715Y0146376
X0263755Y006143
X0195006Y007143
X0170006Y006143
X0288755Y007143
X0310715Y0136375
X0335715Y0146376
X0385716Y0136375
X0410716Y0146376
X0460716Y0136375
X0485716Y0146376
X0535716Y0136375
X0560716Y0146376
X057009Y0071376
X054509Y0061376
X0610716Y0136375
X0635716Y0146376
X0685716Y0136375
X0710716Y0146376
X0760716Y0136375
X0785716Y0146376
X0835716Y0136375
X0860716Y0146376
X0851254Y007143
X0826254Y006143
X0920006
X0945006Y007143
X1013754Y006143
X1038754Y007143
X1051338Y0136375
X0935716Y0146376
X0910716Y0136375
X1076338Y0146376
X1107506Y006143
X1132506Y007143
X1210716Y0061376
X1235716Y0071376
X1285716Y0061376
X1310716Y0071376
X1360716Y0061376
X1310716Y0146376
X1285716Y0136375
X1385716Y0071376
Y0296375
X1360716Y0286375
X1310716Y0296375
X1285716Y0286375
X1235716Y0296375
X1210716Y0286375
X1123216Y0296375
X1098216Y0286375
X109509Y0221375
X107009Y0211375
X0973216Y0221375
X0948216Y0211375
X0898216Y0221375
X0929464Y0286375
X0954464Y0296375
X1004464Y0286375
X1029464Y0296375
X0879464
X0854464Y0286375
X0804464Y0296375
X0779464Y0286375
X0798216Y0211375
X0823216Y0221375
X0873216Y0211375
X0748216Y0221375
X0723216Y0211375
X0673216Y0221375
X0648216Y0211375
X0598216Y0221375
X0629464Y0286375
X0654464Y0296375
X0704464Y0286375
X0729464Y0296375
X0579464
X0554464Y0286375
X0504464Y0296375
X0479464Y0286375
X0429464Y0296375
X0448216Y0221375
X0498216Y0211375
X0523216Y0221375
X0573216Y0211375
X0423216
X0373215Y0221375
X0348215Y0211375
X0298215Y0221375
X0273215Y0211375
X0279465Y0296375
X0329465Y0286375
X0354465Y0296375
X0404464Y0286375
X0254465
X0204465Y0296375
X0179465Y0286375
X0198215Y0211375
X0223215Y0221375
X0120036Y0221381
X0095036Y0211382
X0085715Y0286375
X0110715Y0296375
X0091965Y0371375
X0066965Y0361375
Y0473877
X0091965Y0483877
X0216965Y0473877
X0241965Y0483877
Y0371375
X0216965Y0361375
X0166965Y0371375
X0141965Y0361375
X0291965
X0316965Y0371375
X0366965Y0361375
X0391965Y0371375
Y0483877
X0366965Y0473877
X0316965Y0483877
X0291965Y0473877
X0441964
X0466964Y0483877
X0554464Y0473877
X0579464Y0483877
X0541964Y0371375
X0516964Y0361375
X0466964Y0371375
X0441964Y0361375
X0591964
X0616964Y0371375
X0666964Y0361375
X0691964Y0371375
X0704464Y0473877
X0729464Y0483877
X0654464
X0629464Y0473877
X0779464
X0804464Y0483877
X0891964Y0473877
Y0361375
X0841964Y0371375
X0816964Y0361375
X0766964Y0371375
X0741964Y0361375
X0916964Y0371375
X0966964Y0361375
X0991964Y0371375
Y0483877
X0966964Y0473877
X0916964Y0483877
X1041964Y0473877
X1066964Y0483877
X1116964Y0473877
X1141964Y0483877
X1104464Y0371375
X1079464Y0361375
X1210716
X1235716Y0371375
X1285716Y0361375
X1310716Y0371375
X1360716Y0361375
Y0473877
X1310716Y0483877
X1285716Y0473877
X1235716Y0483877
X1210716Y0473877
X1385716Y0483877
Y0371375
T05
X0066256Y008143
X0106256
X010384Y0156376
X014384
X0225715
X0265715
X0253755Y008143
X0200006
X0160005
X0293756
X0300715Y0156376
X0340715
X0375716
X0415716
X0450716
X0490716
X0525716
X0565716
X057509Y0081376
X053509
X0600716Y0156376
X0640716
X0675716
X0715716
X0750716
X0790716
X0825716
X0865716
X0856254Y008143
X0816254
X0910006
X0950006
X1003754
X1043754
X1041338Y0156376
X0940716
X0900716
X1081338
X1097506Y008143
X1137506
X1200716Y0081376
X1240716
X1275716
X1315716
X1350716
X1315716Y0156376
X1275716
X1390716Y0081376
Y0306376
X1350716
X1315716
X1275716
X1240716
X1200716
X1128216
X1088216
X110009Y0231376
X106009
X0978216
X0938216
X0903216
X0919464Y0306376
X0959464
X0994464
X1034464
X0884464
X0844464
X0809464
X0769464
X0753216Y0231376
X0788216
X0828216
X0863216
X0713216
X0678216
X0638216
X0603216
X0619464Y0306376
X0584464
X0659464
X0694464
X0734464
X0544464
X0509464
X0469464
X0434464
X0453216Y0231376
X0488216
X0528216
X0563216
X0413216
X0378215
X0338215
X0303215
X0319465Y0306376
X0284465
X0359465
X0394464
X0244465
X0209465
X0169465
X0115715
X0125036Y0231382
X0188215Y0231376
X0228215
X0263215
X0085036Y0231382
X0075715Y0306376
X0056965Y0381376
X0096965
Y0493877
X0056965
X0206965
X0246965
Y0381376
X0206965
X0171965
X0131965
X0281965
X0321965
X0356965
X0396965
Y0493877
X0356965
X0321965
X0281965
X0431964
X0471964
X0544464
X0546964Y0381376
X0581964
X0506964
X0471964
X0431964
X0621964
X0656964
X0696964
X0731964
X0734464Y0493877
X0694464
X0659464
X0619464
X0584464
X0769464
X0809464
X0881964
Y0381376
X0846964
X0806964
X0771964
X0921964
X0956964
X0996964
Y0493877
X1031964
X0956964
X0921964
X1071964
X1106964
X1146964
X1200716
Y0381376
X1109464
X1069464
X1240716
X1275716
X1315716
X1350716
Y0493877
X1315716
X1275716
X1240716
X1390716
Y0381376
T06
X1581343Y0052185
X1561658
T07
X007684Y0183876
X017084
X035809Y0108876
X075209
X1014338Y0183876
X1108338
X112709Y0258875
X103309
X1042464Y0408876
X1136464
T08
X1377953Y0015748
X007874
X1377953Y0555118
X007874
T10
X007684Y0123875
X017084
X035809Y0048876
X075209
X1014338Y0123875
X1108338
X112709Y0198875
X103309
X1042464Y0348875
X1136464
T11
X0086256Y008143
X0180006
X012384Y0156376
X0245715
X0320715
X0395716
X0273756Y008143
X0470716Y0156376
X0545716
X055509Y0081376
X0620716Y0156376
X0695716
X0770716
X0845716
X0836254Y008143
X0930006
X0920716Y0156376
X1023754Y008143
X1117506
X1061338Y0156376
X1220716Y0081376
X1295716
Y0156376
X1370716Y0081376
Y0306376
X1295716
X1220716
X1108216
X108009Y0231376
X0958216
X0939464Y0306376
X1014464
X0864464
X0789464
X0808216Y0231376
X0883216
X0733216
X0658216
X0639464Y0306376
X0714464
X0564464
X0489464
X0508216Y0231376
X0433216
X0583216
X0358215
X0283215
X0339465Y0306376
X0414464
X0264465
X0189465
X0208215Y0231376
X0105036Y0231382
X0095715Y0306376
X0076965Y0381376
Y0493877
X0226965
Y0381376
X0151965
X0301965
X0376965
Y0493877
X0301965
X0451964
X0564464
X0526964Y0381376
X0451964
X0601964
X0676964
X0639464Y0493877
X0714464
X0789464
X0751964Y0381376
X0826964
X0901964
X0976964
Y0493877
X0901964
X1051964
X1126964
X1089464Y0381376
X1220716
X1295716
Y0493877
X1220716
X1370716
Y0381376
T12
X1423669Y055061
X1439417
T13
X1487Y0116
X1605
Y0278
Y03045
X1487
Y0278
Y04665
X1605
M30
