G04*
G04 #@! TF.GenerationSoftware,Altium Limited,Altium Designer,20.0.2 (26)*
G04*
G04 Layer_Color=8421504*
%FSLAX25Y25*%
%MOIN*%
G70*
G01*
G75*
%ADD24R,0.02756X0.05906*%
%ADD25R,0.03000X0.03000*%
G04:AMPARAMS|DCode=26|XSize=60mil|YSize=50mil|CornerRadius=0mil|HoleSize=0mil|Usage=FLASHONLY|Rotation=180.000|XOffset=0mil|YOffset=0mil|HoleType=Round|Shape=Octagon|*
%AMOCTAGOND26*
4,1,8,-0.03000,0.01250,-0.03000,-0.01250,-0.01750,-0.02500,0.01750,-0.02500,0.03000,-0.01250,0.03000,0.01250,0.01750,0.02500,-0.01750,0.02500,-0.03000,0.01250,0.0*
%
%ADD26OCTAGOND26*%

%ADD27R,0.06000X0.05000*%
%ADD28R,0.07874X0.11811*%
%ADD29R,0.03150X0.06299*%
%ADD30R,0.03000X0.03000*%
%ADD31R,0.06500X0.05000*%
%ADD32R,0.07087X0.02756*%
%ADD33R,0.11024X0.04724*%
%ADD34R,0.04921X0.02756*%
%ADD35O,0.01102X0.07070*%
%ADD36O,0.07070X0.01102*%
%ADD37R,0.02559X0.05800*%
%ADD38R,0.03937X0.11024*%
%ADD39R,0.02756X0.07087*%
%ADD40R,0.11024X0.03937*%
%ADD41R,0.04134X0.05118*%
G04:AMPARAMS|DCode=42|XSize=15.75mil|YSize=72.84mil|CornerRadius=0mil|HoleSize=0mil|Usage=FLASHONLY|Rotation=180.000|XOffset=0mil|YOffset=0mil|HoleType=Round|Shape=Octagon|*
%AMOCTAGOND42*
4,1,8,0.00394,-0.03642,-0.00394,-0.03642,-0.00787,-0.03248,-0.00787,0.03248,-0.00394,0.03642,0.00394,0.03642,0.00787,0.03248,0.00787,-0.03248,0.00394,-0.03642,0.0*
%
%ADD42OCTAGOND42*%

%ADD43R,0.09055X0.14961*%
%ADD44R,0.07874X0.04724*%
%ADD45R,0.03500X0.05000*%
%ADD46O,0.09843X0.04331*%
%ADD47O,0.04331X0.09843*%
%ADD48R,0.04331X0.09843*%
%ADD49R,0.05000X0.03500*%
G04:AMPARAMS|DCode=50|XSize=60mil|YSize=50mil|CornerRadius=0mil|HoleSize=0mil|Usage=FLASHONLY|Rotation=90.000|XOffset=0mil|YOffset=0mil|HoleType=Round|Shape=Octagon|*
%AMOCTAGOND50*
4,1,8,0.01250,0.03000,-0.01250,0.03000,-0.02500,0.01750,-0.02500,-0.01750,-0.01250,-0.03000,0.01250,-0.03000,0.02500,-0.01750,0.02500,0.01750,0.01250,0.03000,0.0*
%
%ADD50OCTAGOND50*%

%ADD51R,0.05000X0.06000*%
%ADD52R,0.06299X0.03150*%
%ADD53R,0.11811X0.07874*%
D24*
X1634929Y491858D02*
D03*
Y474142D02*
D03*
X1626071Y491858D02*
D03*
Y474142D02*
D03*
X1594924Y190061D02*
D03*
Y207778D02*
D03*
X1603783Y190061D02*
D03*
Y207778D02*
D03*
D25*
X1611676Y487440D02*
D03*
Y492558D02*
D03*
X1605426Y487440D02*
D03*
Y492558D02*
D03*
X1589000Y209059D02*
D03*
Y203941D02*
D03*
X1617926Y487440D02*
D03*
Y492558D02*
D03*
X1444047Y74689D02*
D03*
Y79807D02*
D03*
X1467547Y77189D02*
D03*
Y82307D02*
D03*
X1444047Y59689D02*
D03*
Y64807D02*
D03*
X1467547Y62189D02*
D03*
Y67307D02*
D03*
X1436130Y535689D02*
D03*
Y530571D02*
D03*
X1430130Y535689D02*
D03*
Y530571D02*
D03*
X1444047Y44189D02*
D03*
Y49307D02*
D03*
X1467547Y46689D02*
D03*
Y51807D02*
D03*
X1560666Y213107D02*
D03*
Y218225D02*
D03*
X1503780Y153930D02*
D03*
Y159049D02*
D03*
X1460727Y532018D02*
D03*
Y526900D02*
D03*
X1470476Y531959D02*
D03*
X1470476Y526841D02*
D03*
X1480226Y531959D02*
D03*
X1480226Y526841D02*
D03*
D26*
X1587500Y489000D02*
D03*
D27*
X1597500D02*
D03*
D28*
X1515803Y561500D02*
D03*
X1557197Y561500D02*
D03*
D29*
X1526712Y550435D02*
D03*
X1531633Y550435D02*
D03*
X1536554D02*
D03*
X1541476Y550435D02*
D03*
X1546397D02*
D03*
D30*
X1567941Y186000D02*
D03*
X1573059D02*
D03*
X1498941Y170500D02*
D03*
X1504059D02*
D03*
X1650700Y237000D02*
D03*
X1645250Y237006D02*
D03*
X1569225Y198781D02*
D03*
X1564107Y198781D02*
D03*
X1562225Y146395D02*
D03*
X1557107Y146395D02*
D03*
X1534606Y218166D02*
D03*
X1539724D02*
D03*
X1528166Y209781D02*
D03*
X1523047D02*
D03*
X1510225Y199281D02*
D03*
X1505107D02*
D03*
X1534606Y212166D02*
D03*
X1539724D02*
D03*
X1656728Y83500D02*
D03*
X1661846D02*
D03*
X1656728Y89500D02*
D03*
X1661846D02*
D03*
D31*
X1446000Y520250D02*
D03*
Y533750D02*
D03*
D32*
X1672958Y44579D02*
D03*
Y39658D02*
D03*
Y49500D02*
D03*
Y54421D02*
D03*
Y134800D02*
D03*
Y129878D02*
D03*
Y139721D02*
D03*
Y144642D02*
D03*
Y179965D02*
D03*
Y175043D02*
D03*
Y184886D02*
D03*
Y189807D02*
D03*
X1672801Y224551D02*
D03*
Y219630D02*
D03*
D33*
X1686147Y31980D02*
D03*
Y62098D02*
D03*
Y122201D02*
D03*
Y152319D02*
D03*
Y167366D02*
D03*
Y197485D02*
D03*
D34*
X1451407Y80001D02*
D03*
X1461247Y83741D02*
D03*
Y76261D02*
D03*
X1450907Y65000D02*
D03*
X1460747Y68740D02*
D03*
Y61260D02*
D03*
X1451407Y49501D02*
D03*
X1461247Y53241D02*
D03*
Y45761D02*
D03*
D35*
X1551766Y200762D02*
D03*
X1549796Y200762D02*
D03*
X1547828Y200762D02*
D03*
X1545860Y200762D02*
D03*
X1543892Y200762D02*
D03*
X1541922Y200762D02*
D03*
X1539954Y200762D02*
D03*
X1537986Y200762D02*
D03*
X1536017Y200762D02*
D03*
X1534048Y200762D02*
D03*
X1532080Y200762D02*
D03*
X1530112Y200762D02*
D03*
X1528143Y200762D02*
D03*
X1526175D02*
D03*
X1524206Y200762D02*
D03*
X1522237Y200762D02*
D03*
X1522237Y157062D02*
D03*
X1524207Y157062D02*
D03*
X1526175Y157062D02*
D03*
X1528143Y157062D02*
D03*
X1530111D02*
D03*
X1532080D02*
D03*
X1534048D02*
D03*
X1536017D02*
D03*
X1537986D02*
D03*
X1539954D02*
D03*
X1541922Y157062D02*
D03*
X1543892Y157062D02*
D03*
X1545860Y157062D02*
D03*
X1547828Y157062D02*
D03*
X1549796Y157062D02*
D03*
X1551766Y157062D02*
D03*
D36*
X1515151Y193676D02*
D03*
X1515152Y191707D02*
D03*
X1515151Y189739D02*
D03*
Y187770D02*
D03*
Y185802D02*
D03*
Y183833D02*
D03*
Y181865D02*
D03*
Y179896D02*
D03*
Y177928D02*
D03*
Y175959D02*
D03*
Y173991D02*
D03*
Y172022D02*
D03*
Y170054D02*
D03*
Y168085D02*
D03*
X1515152Y166117D02*
D03*
X1515151Y164148D02*
D03*
X1558852D02*
D03*
X1558851Y166117D02*
D03*
X1558852Y168085D02*
D03*
X1558851Y170054D02*
D03*
X1558852Y172022D02*
D03*
X1558851Y173991D02*
D03*
X1558852Y175959D02*
D03*
Y177928D02*
D03*
Y179896D02*
D03*
Y181865D02*
D03*
Y183833D02*
D03*
Y185802D02*
D03*
Y187770D02*
D03*
Y189739D02*
D03*
X1558851Y191707D02*
D03*
X1558852Y193676D02*
D03*
D37*
X1640612Y207548D02*
D03*
X1645612Y207548D02*
D03*
X1650612Y207548D02*
D03*
X1655612Y207548D02*
D03*
X1655612Y229202D02*
D03*
X1650612Y229202D02*
D03*
X1645612D02*
D03*
X1640612D02*
D03*
D38*
X1526453Y470689D02*
D03*
X1570547D02*
D03*
D39*
X1543579Y457500D02*
D03*
X1548500D02*
D03*
X1553421D02*
D03*
X1563264D02*
D03*
X1558342D02*
D03*
X1538657D02*
D03*
X1533736D02*
D03*
D40*
X1685990Y212347D02*
D03*
X1685990Y231835D02*
D03*
D41*
X1546882Y219667D02*
D03*
Y210611D02*
D03*
X1554165D02*
D03*
Y219667D02*
D03*
D42*
X1436661Y546835D02*
D03*
X1434102Y546835D02*
D03*
X1426425D02*
D03*
X1428984D02*
D03*
X1431543D02*
D03*
D43*
X1635806Y444402D02*
D03*
D44*
X1660805D02*
D03*
Y453457D02*
D03*
Y435347D02*
D03*
D45*
X1651740Y199500D02*
D03*
X1644260Y199500D02*
D03*
D46*
X1585968Y534953D02*
D03*
Y529047D02*
D03*
Y523142D02*
D03*
Y517236D02*
D03*
Y540858D02*
D03*
Y546764D02*
D03*
Y552669D02*
D03*
Y511331D02*
D03*
D47*
X1593843Y505425D02*
D03*
X1599748D02*
D03*
X1605654D02*
D03*
X1611559D02*
D03*
X1617465D02*
D03*
X1623370D02*
D03*
X1629276D02*
D03*
X1635181D02*
D03*
X1641087D02*
D03*
X1646992D02*
D03*
X1652898D02*
D03*
X1658803D02*
D03*
X1664709D02*
D03*
X1658803Y558575D02*
D03*
X1652898D02*
D03*
X1646992D02*
D03*
X1641087D02*
D03*
X1635181D02*
D03*
X1629276D02*
D03*
X1623370D02*
D03*
X1617465D02*
D03*
X1611559D02*
D03*
X1605654D02*
D03*
X1599748D02*
D03*
X1593843D02*
D03*
D48*
X1664709D02*
D03*
D49*
X1671378Y445759D02*
D03*
X1671378Y453240D02*
D03*
X1679878Y445759D02*
D03*
X1679878Y453240D02*
D03*
X1616878Y436260D02*
D03*
Y443740D02*
D03*
X1625378Y436260D02*
D03*
X1625378Y443740D02*
D03*
D50*
X1459785Y549500D02*
D03*
X1469535Y549500D02*
D03*
X1479285Y549500D02*
D03*
D51*
X1459785Y539500D02*
D03*
X1469535D02*
D03*
X1479285Y539500D02*
D03*
D52*
X1672565Y84194D02*
D03*
Y89115D02*
D03*
Y94036D02*
D03*
Y98958D02*
D03*
D53*
X1683630Y73394D02*
D03*
Y109866D02*
D03*
M02*
